<svg xmlns="http://www.w3.org/2000/svg" xmlns:xlink="http://www.w3.org/1999/xlink" viewBox="0 0 247 140"><g transform="translate(0.838 0.709)" id="ss1593832035_1"><path d="M 0 103.527 L 15.94 0 L 245.348 35.321 L 229.408 138.849 Z" fill="transparent"></path><path d="M 95.94 31.3 C 95.233 31.481 95.542 31.866 95.443 31.983 C 96.603 31.512 95.894 31.184 95.94 31.3 Z" fill="rgb(249,207,1)"></path><path d="M 107.509 26.931 L 107.316 27.176 C 107.878 26.855 108.448 26.598 109.022 26.311 C 108.518 26.515 108.012 26.696 107.516 26.924 Z" fill="rgb(249,207,1)"></path><path d="M 118.518 24.849 C 117.991 24.525 116.989 24.715 115.88 24.99 C 115.323 25.131 114.742 25.276 114.173 25.415 C 113.607 25.57 113.053 25.688 112.559 25.714 L 112.227 25.592 L 111.372 26.43 C 112.561 26.152 113.921 25.666 115.2 25.401 C 116.479 25.106 117.675 24.86 118.519 24.841 Z" fill="rgb(249,207,1)"></path><path d="M 124.377 25.861 C 124.018 25.579 125.64 25.445 123.016 25.91 C 123.145 25.93 123.184 25.944 123.261 25.963 C 123.497 25.929 123.825 25.894 124.377 25.861 Z" fill="rgb(249,207,1)"></path><path d="M 123.266 25.969 C 124.021 26.156 122.113 26.121 123.266 25.969 Z" fill="rgb(249,207,1)"></path><path d="M 128.591 25.249 C 128.081 25.382 127.573 25.5 127.067 25.641 C 127.378 25.791 128.726 25.755 128.223 25.921 C 129.784 25.66 129.47 25.494 128.592 25.242 Z" fill="rgb(249,207,1)"></path><path d="M 130.05 24.562 L 129.258 24.738 C 129.397 24.806 129.601 24.822 130.05 24.562 Z" fill="rgb(249,207,1)"></path><path d="M 127.584 25.096 L 129.259 24.728 C 129.042 24.608 129.024 24.347 128.489 24.868 C 128.631 24.616 128.293 24.869 127.579 25.088 Z" fill="rgb(249,207,1)"></path><path d="M 126.638 25.059 C 125.787 24.975 124.685 24.985 126.218 24.532 C 123.298 24.975 123.724 25.503 126.638 25.059 Z" fill="rgb(249,207,1)"></path><path d="M 119.07 23.915 L 117.916 23.855 L 116.927 24.29 C 117.421 24.076 119.148 24.162 119.07 23.915 Z" fill="rgb(249,207,1)"></path><path d="M 138.023 25.248 C 138.132 25.069 137.541 24.791 137.442 24.572 L 136.307 24.796 C 136.877 24.908 137.959 24.996 138.018 25.248 Z" fill="rgb(249,207,1)"></path><path d="M 137.442 24.575 L 139.141 24.241 C 137.644 24.238 137.362 24.382 137.442 24.575 Z" fill="rgb(249,207,1)"></path><path d="M 130.35 23.628 L 127.564 24.435 L 130.887 23.586 Z" fill="rgb(249,207,1)"></path><path d="M 144.396 25.325 L 143.421 25.707 L 145.157 25.137 Z" fill="rgb(249,207,1)"></path><path d="M 148.625 25.433 C 147.896 25.72 149.519 26.064 148.763 26.222 C 149.907 26.241 150.915 26.021 151.821 25.824 C 150.869 25.904 149.883 25.799 148.62 25.433 Z" fill="rgb(249,207,1)"></path><path d="M 153.344 25.551 C 152.869 25.603 152.369 25.706 151.821 25.825 C 152.323 25.785 152.824 25.706 153.344 25.551 Z" fill="rgb(249,207,1)"></path><path d="M 141.99 24.334 C 142.111 24.447 142.339 24.725 143.268 24.868 L 142.649 24.358 C 142.449 24.35 142.22 24.338 141.99 24.334 Z" fill="rgb(249,207,1)"></path><path d="M 142.622 24.347 L 142.642 24.365 C 143.357 24.397 143.85 24.418 144.061 24.427 C 143.879 24.415 143.444 24.395 142.622 24.347 Z" fill="rgb(249,207,1)"></path><path d="M 141.823 24.333 C 141.885 24.343 141.927 24.334 141.989 24.343 C 141.927 24.294 141.89 24.273 141.823 24.333 Z" fill="rgb(249,207,1)"></path><path d="M 134.757 23.824 C 135.758 23.532 137.845 23.188 135.863 22.813 C 135.135 23.162 136.265 23.383 134.757 23.824 Z" fill="rgb(249,207,1)"></path><path d="M 141.052 23.69 C 140.463 23.622 139.865 23.616 139.276 23.588 C 139.302 23.718 139.614 23.899 139.113 24.049 C 139.759 23.929 140.41 23.779 141.052 23.69 Z" fill="rgb(249,207,1)"></path><path d="M 141.937 23.558 L 141.052 23.688 L 141.705 23.749 Z" fill="rgb(249,207,1)"></path><path d="M 150.364 24.884 C 151.149 24.723 151.99 24.766 152.942 24.795 C 151.942 24.625 150.895 24.503 149.903 24.437 C 149.747 24.585 149.278 24.826 150.364 24.884 Z" fill="rgb(249,207,1)"></path><path d="M 146.615 24.497 C 146.668 24.49 146.739 24.477 146.785 24.477 C 146.683 24.43 146.598 24.417 146.615 24.497 Z" fill="rgb(249,207,1)"></path><path d="M 162.188 25.925 C 162.142 25.887 162.102 25.85 162.056 25.812 C 162.04 25.84 162.031 25.862 162.009 25.89 L 162.189 25.918 Z" fill="rgb(249,207,1)"></path><path d="M 149.741 24.323 C 148.986 24.175 148.524 24.26 148.072 24.387 C 148.644 24.373 149.253 24.388 149.904 24.426 C 149.978 24.359 149.99 24.314 149.741 24.323 Z" fill="rgb(249,207,1)"></path><path d="M 155.951 25.607 C 155.57 25.463 155.137 25.318 154.674 25.184 C 155.041 25.381 155.796 25.717 155.951 25.607 Z" fill="rgb(249,207,1)"></path><path d="M 147.034 24.617 C 146.994 24.618 146.957 24.628 146.917 24.63 C 147.159 24.745 147.131 24.702 147.034 24.617 Z" fill="rgb(249,207,1)"></path><path d="M 147.034 24.618 C 147.432 24.577 147.753 24.478 148.072 24.386 C 147.604 24.4 147.171 24.404 146.792 24.471 C 146.884 24.508 146.974 24.561 147.034 24.618 Z" fill="rgb(249,207,1)"></path><path d="M 165.488 23.238 C 165.278 23.667 163.218 23.764 161.566 23.002 C 159.816 23.068 160.717 24.74 162.055 25.813 C 162.137 25.623 162.165 25.439 163.943 25.455 C 163.379 25.11 160.18 24.258 161.706 24.079 C 164.048 24.213 163.57 24.546 164.653 24.962 C 163.788 24.251 167.722 24.598 167.363 23.714 C 166.671 23.678 165.978 23.689 165.284 23.668 C 165.265 23.532 166.038 23.448 165.494 23.239 Z" fill="rgb(249,207,1)"></path><path d="M 158.753 25.295 L 158.031 25.27 C 158.833 25.448 159.397 25.676 160.414 26.185 C 161.628 26.152 161.902 26.022 162.003 25.889 L 160.254 25.573 L 158.493 25.333 L 158.747 25.294 Z" fill="rgb(249,207,1)"></path><path d="M 154.815 24.902 C 155.434 24.473 157.188 24.462 156.2 23.801 C 154.082 23.6 154.672 24.035 153.385 24.126 C 156.804 24.371 152.375 24.284 154.795 24.844 C 154.12 24.85 153.518 24.796 152.942 24.794 C 153.55 24.887 154.131 25.039 154.672 25.193 C 154.64 25.18 154.624 25.17 154.598 25.15 L 154.581 25.148 C 154.443 25.072 154.398 25.026 154.557 25.081 C 154.568 25.083 154.609 25.082 154.627 25.077 C 154.66 25.011 154.726 24.959 154.803 24.908 C 155.773 25.12 154.941 25.055 154.627 25.077 C 154.612 25.098 154.586 25.117 154.576 25.147 L 154.587 25.149 L 158.02 25.27 C 157.311 25.122 156.41 25.022 154.804 24.9 Z" fill="rgb(249,207,1)"></path><path d="M 137.774 21.708 C 137.877 21.747 137.871 21.785 137.878 21.818 C 138.107 21.751 138.194 21.71 137.774 21.708 Z" fill="rgb(249,207,1)"></path><path d="M 139.185 21.969 C 138.925 22.047 138.704 22.248 137.891 22.216 C 137.191 22.085 137.91 21.977 137.883 21.816 C 137.378 21.957 136.134 22.212 137.67 22.417 L 137.917 22.346 C 139.301 22.488 141.049 23.071 140.8 23.157 C 140.428 22.693 140.093 22.399 139.191 21.97 Z" fill="rgb(249,207,1)"></path><path d="M 147.167 23.084 L 150.048 23.042 L 148.632 22.511 L 148.678 22.776 C 147.057 22.558 147.379 22.905 147.16 23.09 Z" fill="rgb(249,207,1)"></path><path d="M 162.471 26.223 L 162.019 26.686 L 163.752 26.209 Z" fill="rgb(249,207,1)"></path><path d="M 166.129 26.746 L 165.919 27.176 C 166.254 27.133 166.595 27.092 166.926 27.072 C 166.662 26.953 166.397 26.842 166.131 26.738 Z" fill="rgb(249,207,1)"></path><path d="M 121.913 119.368 L 121.046 119.462 C 121.453 119.439 121.717 119.409 121.913 119.368 Z" fill="rgb(249,207,1)"></path><path d="M 128.073 119.661 L 128.245 119.444 C 127.951 119.556 127.822 119.646 128.073 119.661 Z" fill="rgb(249,207,1)"></path><path d="M 233.682 82.192 C 233.404 82.877 233.019 83.545 232.805 84.035 C 232.586 84.525 232.42 84.82 232.632 84.822 L 233.111 84.552 C 233.265 83.551 233.492 82.828 233.682 82.192 Z" fill="rgb(249,207,1)"></path><path d="M 178.845 113.758 C 178.962 113.784 179.089 113.819 179.212 113.846 C 179.511 113.626 179.792 113.411 180.04 113.222 C 179.68 113.386 179.272 113.566 178.845 113.758 Z" fill="rgb(249,207,1)"></path><path d="M 178.004 115.965 C 177.451 115.966 176.9 115.913 176.351 115.883 C 176.723 115.94 177.257 115.991 178.004 115.965 Z" fill="rgb(249,207,1)"></path><path d="M 88.445 116.059 L 87.381 116.38 C 88.91 116.663 88.277 116.284 88.445 116.059 Z" fill="rgb(249,207,1)"></path><path d="M 202.329 38.283 C 203.225 38.937 203.953 39.409 204.613 39.768 C 203.557 38.917 202.766 38.029 202.329 38.283 Z" fill="rgb(249,207,1)"></path><path d="M 124.834 114.163 C 124.311 114.232 124.079 114.321 124.083 114.439 C 124.623 114.374 124.928 114.295 124.834 114.163 Z" fill="rgb(249,207,1)"></path><path d="M 207.335 41.245 C 207.19 41.105 207.035 40.987 206.881 40.862 C 206.16 40.571 205.45 40.242 204.618 39.77 C 205.389 40.413 206.299 41.054 207.335 41.245 Z" fill="rgb(249,207,1)"></path><path d="M 23.453 34.917 C 23.549 34.893 23.659 34.855 23.747 34.845 C 23.758 34.768 23.634 34.828 23.453 34.917 Z" fill="rgb(249,207,1)"></path><path d="M 58.932 37.213 C 58.585 37.184 58.034 37.099 57.505 37.017 C 57.752 37.095 58.185 37.161 58.932 37.213 Z" fill="rgb(249,207,1)"></path><path d="M 180.574 30.379 C 180.444 30.399 179.815 30.184 180.574 30.379 Z" fill="rgb(249,207,1)"></path><path d="M 177.299 27.433 C 177.474 27.421 177.613 27.38 177.659 27.269 C 177.568 27.373 177.446 27.417 177.299 27.433 Z" fill="rgb(249,207,1)"></path><path d="M 215.348 42.721 C 215.348 42.721 215.384 42.75 215.405 42.761 C 215.244 42.532 215.268 42.567 215.348 42.721 Z" fill="rgb(249,207,1)"></path><path d="M 179.492 29.813 C 179.763 29.956 180.074 30.106 180.421 30.253 C 180.272 30.168 179.994 30.031 179.492 29.813 Z" fill="rgb(249,207,1)"></path><path d="M 179.593 30.084 C 179.339 29.975 179.135 29.92 178.943 29.859 C 178.83 29.92 178.907 29.979 179.593 30.084 Z" fill="rgb(249,207,1)"></path><path d="M 181.629 30.671 C 181.199 30.55 180.801 30.402 180.421 30.25 C 180.559 30.326 180.615 30.374 180.573 30.383 C 180.794 30.448 181.109 30.536 181.628 30.679 Z" fill="rgb(249,207,1)"></path><path d="M 34.487 97.933 C 34.441 97.894 34.389 97.855 34.345 97.809 C 33.546 97.616 33.873 97.768 34.487 97.933 Z" fill="rgb(249,207,1)"></path><path d="M 221.647 104.301 C 221.686 104.275 221.701 104.254 221.734 104.228 C 221.696 104.246 221.648 104.262 221.612 104.272 L 221.649 104.293 Z" fill="rgb(249,207,1)"></path><path d="M 218.851 106.076 C 219.968 104.919 220.666 104.651 221.616 104.282 L 220.375 103.442 C 219.888 104.32 219.376 105.211 218.856 106.085 Z" fill="rgb(249,207,1)"></path><path d="M 107.19 118.334 L 109.131 119.009 C 106.622 119.475 104.901 119.014 106.706 119.863 C 106.953 119.088 108.895 119.308 110.852 119.43 C 112.811 119.544 114.77 119.658 114.992 118.887 L 116.28 119.32 C 115.9 119.277 115.83 119.36 115.456 119.318 C 117.952 120.249 117.486 118.372 120.781 118.785 C 121.924 118.961 122.714 119.216 121.908 119.365 L 124.526 119.088 C 125.277 119.149 125.064 119.413 124.318 119.353 L 128.269 119.399 L 128.234 119.44 C 128.528 119.329 128.999 119.191 129.478 119.069 C 129.955 118.931 130.442 118.795 130.76 118.719 C 131.744 118.949 130.245 118.882 130.486 119.076 L 132.702 118.713 C 133.56 119.127 131.721 119.508 130.211 119.44 C 132.128 121.017 132.055 119.059 136.399 120.002 L 134.319 120.189 C 135.587 121.081 137.227 120.794 139.536 121.329 C 138.994 121.073 134.944 119.91 137.345 119.545 C 138.008 119.655 138.885 119.759 140.186 119.389 C 140.164 119.948 141.429 119.775 142.997 119.696 L 142.848 120.439 C 144.559 120.179 144.443 119.809 145.462 119.442 C 147.349 119.459 147.712 120.023 148.141 120.488 C 151.168 120.477 146.088 119.68 149.681 119.357 C 152.192 119.478 153.978 119.065 157.003 118.428 C 158.762 118.566 156.684 118.895 157.308 119.07 C 157.833 118.838 158.362 118.622 158.885 118.366 C 159.27 118.34 159.141 118.539 159.075 118.63 C 160.398 118.271 159.202 117.883 161.275 117.476 C 161.841 116.609 165.515 118.23 168.087 117.055 C 168.72 117.176 167.781 117.547 167.972 117.803 C 171.498 116.72 170.995 116.955 173.877 115.749 L 176.344 115.895 C 175.433 115.747 175.558 115.422 176.158 115.045 C 176.757 114.668 177.834 114.224 178.832 113.768 C 178.189 113.606 177.637 113.482 177.273 113.418 L 180.472 112.473 C 180.86 112.532 180.543 112.835 180.027 113.233 C 180.244 113.133 180.448 113.04 180.611 112.955 C 181.764 113.023 181.182 113.551 180.37 114.107 C 179.974 114.022 179.584 113.939 179.199 113.856 C 178.412 114.438 177.677 115.06 177.851 115.462 C 178.06 115.338 178.462 115.197 178.907 115.077 C 178.699 115.233 178.569 115.362 178.669 115.424 C 178.782 115.48 179.115 115.258 179.637 114.979 L 180.39 115.665 L 180.56 115.308 L 184.801 115.078 C 185.551 114.74 186.274 114.382 187.01 114.019 C 187.744 113.631 188.497 113.231 189.301 112.831 C 190.91 112.039 192.735 111.265 195.114 110.591 C 193.964 111.438 194.916 111.616 194.892 112.332 C 193.547 111.867 191.202 113.437 188.713 113.812 C 190.011 113.613 189.742 114.009 189.419 114.202 L 193.817 112.581 C 193.748 113.18 194.783 112.815 195.954 112.808 C 195.017 111.898 199.201 111.252 200.973 110.446 C 201.115 110.796 200.71 111.296 198.508 111.755 C 200.988 111.996 201.536 109.633 203.959 109.764 C 203.424 109.908 203.133 109.926 202.935 110.169 C 203.544 109.841 204.62 109.553 205.455 109.408 C 206.291 109.255 206.887 109.238 206.54 109.505 L 206.01 109.658 C 207.79 109.244 210.503 108.465 212.819 107.532 C 215.133 106.614 217.028 105.53 217.209 104.955 C 217.266 105.066 216.938 106.266 216.75 106.55 C 218.698 104.637 220.566 102.611 222.252 100.455 C 222.095 100.986 222.639 101.421 222.906 101.97 C 223.168 102.511 223.141 103.211 221.733 104.237 C 222.592 103.892 223.683 103.435 225.334 101.992 C 224.735 102.291 223.603 101.82 224.339 101.269 C 225.499 100.994 225.895 100.82 226.347 100.616 C 226.567 100.494 226.806 100.366 227.157 100.178 C 227.513 99.998 227.985 99.743 228.676 99.333 C 228.239 99.625 228.13 99.288 228.268 98.762 C 228.338 98.499 228.473 98.184 228.665 97.869 C 228.849 97.538 229.084 97.207 229.382 96.917 C 229.278 97.26 230.039 97.815 229.648 98.372 L 230.266 97.35 L 230.832 96.256 C 231.193 95.522 231.583 94.863 231.865 94.078 C 231.366 95.15 232.306 94.99 233.1 94.323 C 232.999 94.385 233.09 94.204 233.295 93.884 C 233.399 93.728 233.528 93.529 233.671 93.308 C 233.806 93.071 233.951 92.804 234.108 92.531 C 234.412 91.976 234.759 91.373 235.04 90.822 C 235.29 90.243 235.495 89.735 235.602 89.415 L 235.1 90.315 L 234.847 90.761 L 234.564 91.178 C 234.644 91.034 234.724 90.89 234.803 90.746 C 234.866 90.6 234.929 90.453 234.985 90.313 C 235.103 90.034 235.203 89.76 235.294 89.508 C 235.476 88.997 235.627 88.543 235.716 88.111 C 235.869 87.228 235.917 86.508 235.95 85.81 C 235.95 84.387 235.923 83.061 236.243 80.499 C 236.298 80.813 236.551 81.227 236.849 81.242 C 237.124 81.253 237.547 80.825 237.661 79.412 C 237.553 79.099 237.377 78.595 237.154 77.95 C 236.904 77.326 236.58 76.588 236.272 75.782 C 235.952 74.982 235.54 74.137 235.222 73.244 C 235.03 72.807 234.839 72.364 234.669 71.9 C 234.497 71.443 234.357 70.968 234.175 70.502 L 234.262 69.601 C 233.941 68.621 233.498 67.716 233.096 66.81 C 233.413 67.148 233.841 67.66 234.339 68.315 C 234.775 69 235.32 69.803 235.788 70.727 C 236.232 71.663 236.73 72.655 237.049 73.689 C 237.219 74.2 237.394 74.704 237.533 75.186 C 237.647 75.681 237.754 76.151 237.836 76.586 C 237.995 74.468 238.222 75.918 237.906 72.844 C 238.047 71.661 238.501 74.405 238.538 75.357 C 238.556 74.718 238.474 74.127 238.443 73.505 C 238.388 72.894 238.376 72.259 238.282 71.674 C 238.102 70.482 237.967 69.265 237.688 68.119 C 237.568 68.265 237.396 68.035 237.196 67.613 C 237.095 67.403 236.991 67.144 236.884 66.87 C 236.764 66.601 236.635 66.315 236.507 66.022 C 236.251 65.443 235.998 64.873 235.782 64.48 C 235.56 64.094 235.364 63.907 235.279 64.043 C 235.554 64.538 235.763 65.094 235.99 65.637 C 236.211 66.187 236.464 66.711 236.658 67.288 C 237.045 68.442 237.462 69.586 237.744 70.825 C 237.613 70.961 237.403 70.796 237.152 70.406 C 237.02 70.213 236.898 69.96 236.734 69.677 C 236.57 69.393 236.395 69.069 236.222 68.699 C 236.047 68.336 235.867 67.933 235.685 67.506 C 235.478 67.091 235.275 66.653 235.076 66.185 C 234.704 65.236 234.236 64.273 233.856 63.221 C 233.642 61.992 235.083 63.262 235.225 63.049 C 234.871 62.58 233.164 59.409 233.038 58.991 C 233.437 59.428 233.794 59.92 234.154 60.422 C 233.73 59.176 233.04 58.491 232.407 57.698 C 232.096 57.29 231.749 56.924 231.429 56.453 C 231.103 55.988 230.813 55.404 230.504 54.715 C 229.972 53.906 229.345 51.652 228.973 51.9 C 229.484 53.784 228.085 56.055 227.158 55.756 C 227.076 55.61 226.452 54.537 225.785 53.371 C 225.075 52.253 224.336 50.99 224.07 50.472 C 223.726 49.677 224.307 49.719 224.916 49.805 C 225.519 49.898 226.133 50.063 225.847 49.339 C 225.707 49.458 224.999 49.083 224.714 48.914 C 224.131 48.097 225.313 48.654 223.797 47.272 C 223.179 47.693 220.762 44.42 222.774 47.177 C 221.212 46.022 221.278 45.633 219.49 44.185 C 219.669 44.627 219.078 44.692 218.245 44.525 C 217.831 44.446 217.357 44.302 216.883 44.128 C 216.407 43.961 215.931 43.762 215.522 43.535 C 215.695 43.421 215.447 42.937 215.326 42.715 C 212.149 40.444 210.495 39.063 207.37 37.315 C 207.145 36.984 205.704 35.941 206.458 35.979 C 205.958 35.863 205.449 35.909 204.464 35.422 C 202.781 33.818 206.687 36.436 205.502 34.932 C 205.364 35.115 204.677 34.938 203.844 34.662 C 203.001 34.407 202.007 34.051 201.259 33.857 C 201.484 34.72 204.463 35.539 205.946 36.01 C 205.626 36.93 202.9 36.596 199.436 35.523 C 196.708 34.564 198.465 34.42 197.964 34.343 C 192.952 32.125 193.228 34.114 189.182 31.951 C 187.656 30.746 189.422 30.729 189.158 30.164 C 191.442 30.743 192.476 31.739 193.959 32.358 C 193.372 32.017 192.796 31.647 192.204 31.337 C 192.967 31.392 194.466 31.873 195.22 32.364 C 194.597 31.807 192.473 30.862 189.979 29.994 C 188.736 29.537 187.417 29.044 186.164 28.578 C 184.899 28.148 183.698 27.713 182.728 27.282 C 181.964 27.266 180.687 27.101 181.215 27.526 L 182.505 27.827 C 183.557 28.669 179.967 27.772 181.515 28.495 C 179.751 28.278 177.707 28.378 175.363 27.478 L 175.05 26.663 C 175.062 26.884 176.538 27.479 177.264 27.442 C 176.193 27.512 173.764 25.511 172.467 26.226 C 173.007 26.497 173.538 26.79 174.067 27.098 C 172.277 27.01 169.999 27.363 167.897 26.68 C 168.75 27.577 168.406 26.704 169.783 27.83 C 169.213 27.187 170.585 27.485 171.851 27.758 C 173.127 28.001 174.28 28.335 173.332 27.532 C 174.695 28.86 175.937 28.614 177.785 29.93 C 177.771 29.686 177.166 29.311 178.917 29.878 C 179.011 29.83 179.218 29.791 179.354 29.773 C 179.408 29.797 179.423 29.807 179.467 29.822 C 179.436 29.801 179.409 29.789 179.377 29.769 C 179.46 29.758 179.472 29.752 179.346 29.748 C 178.946 29.538 178.626 29.333 178.514 29.167 C 179.523 28.822 182.323 29.761 183.343 29.762 C 184.365 30.193 182.839 29.887 183.357 30.303 L 184.874 30.334 C 184.895 30.868 187.438 32.05 184.91 31.559 C 185.649 31.774 186.376 32.066 187.101 32.334 C 188.318 33.076 190.058 33.821 191.205 34.006 C 192.204 34.48 193.934 34.504 192.942 34.515 L 196.421 35.606 L 196.417 35.746 C 199.728 37.179 203.51 37.988 206.857 40.872 C 207.968 41.364 209.142 41.826 210.841 43.064 L 211.016 43.686 C 211.718 44.028 212.664 44.807 213.531 45.464 C 214.381 46.158 215.153 46.754 215.53 46.742 C 215.972 47.795 217.478 49.02 219.081 50.322 C 220.669 51.645 222.37 53.056 223.282 54.205 L 223.648 53.816 C 223.982 54.188 224.312 54.552 224.66 54.91 C 224.995 55.282 225.33 55.654 225.68 56.036 C 226.402 56.773 227.094 57.63 227.917 58.57 L 228.121 58.07 C 228.858 58.856 229.633 60.109 230.304 61.627 C 231.014 63.12 231.623 64.887 232.289 66.584 C 232.063 66.448 231.759 65.572 231.599 64.891 C 232.061 67.206 232.871 69.277 233.548 71.469 C 234.185 73.655 234.585 75.999 234.267 78.139 C 234.334 79.166 234.289 79.941 234.099 80.654 C 234.113 80.562 234.116 80.469 234.115 80.399 C 234.099 80.505 234.075 80.658 234.05 80.819 C 233.924 81.268 233.785 81.716 233.658 82.205 C 233.807 81.798 233.938 81.396 234.022 81.041 C 233.972 81.44 233.925 81.933 233.868 82.487 C 233.774 83.028 233.677 83.615 233.597 84.212 C 233.423 84.334 233.278 84.452 233.089 84.556 C 233.063 84.646 233.046 84.722 233.021 84.811 C 232.544 85.809 232.926 85.766 233.401 85.3 C 233.281 85.891 233.204 86.466 233.151 86.919 C 232.666 87.188 232.43 87.902 232.159 88.689 C 231.827 89.42 231.457 90.215 230.892 90.48 C 230.858 90.702 230.65 91.115 230.367 91.642 C 230.224 91.902 230.064 92.19 229.896 92.492 C 229.704 92.768 229.498 93.057 229.298 93.346 C 228.525 94.549 227.626 95.638 227.602 96.244 C 227.521 96.169 227.259 96.339 227.696 95.93 C 227.213 96.301 226.745 96.682 226.285 97.049 C 225.815 97.407 225.393 97.827 224.993 98.258 L 224.361 97.942 C 223.76 98.74 223.112 99.469 222.449 100.219 C 220.969 100.625 220.376 100.698 221.579 99.436 C 220.071 100.737 219.394 101.125 218.796 101.494 C 218.198 101.863 217.658 102.187 216.276 103.193 L 216.351 102.705 C 215.32 103.148 213.727 104.365 213.042 104.212 C 211.819 104.219 208.908 105.131 205.491 106.028 C 202.068 106.854 198.171 107.88 195.084 108.171 C 196.353 109.242 192.194 108.187 192.006 109.261 C 191.634 109.023 190.768 109.031 191.748 108.541 C 188.626 109.506 187.027 109.08 184.886 110.299 C 184.516 110.046 185.54 109.719 185.214 109.591 C 184.967 109.701 184.229 110.041 183.893 109.903 C 183.567 109.775 184.343 109.558 184.833 109.337 C 181.633 109.946 181.336 110.979 181.126 111.932 C 179.484 111.781 178.68 111.986 177.513 112.791 C 176.938 112.562 175.988 112.408 177.983 111.988 C 176.859 112.135 171.116 112.502 171.005 113.259 C 170.652 113.118 169.436 113.424 169.141 113.542 C 166.618 113.834 166.398 113.73 163.92 114.068 L 164.604 114.118 C 163.617 115.1 162.543 114.52 160.542 114.83 L 160.603 114.73 C 158.322 114.652 157.825 114.74 157.337 114.837 C 156.85 114.934 156.37 115.016 154.123 114.795 L 154.352 115.331 C 153.891 116.526 150.374 114.929 147.739 115.47 L 148.667 115.761 C 147.216 116.21 144.75 114.259 143.332 114.15 C 143.024 114.056 143.833 113.969 144.273 113.881 C 140.567 113.287 143.75 114.621 140.946 114.869 C 140.456 114.497 141.667 113.855 139.796 113.84 C 138.887 113.536 134.27 115.077 131.766 114.316 C 132.307 114.618 132.841 114.927 131.53 115.14 C 131.03 115.164 130.453 115.099 129.832 115.011 C 129.217 114.893 128.563 114.761 127.914 114.638 C 126.614 114.398 125.337 114.272 124.393 114.713 C 124.148 114.621 124.063 114.537 124.057 114.466 C 123.287 114.559 122.048 114.602 120.882 114.689 C 119.716 114.775 118.624 114.833 118.139 115.064 C 116.958 113.045 108.64 115.274 108.894 113.437 L 104.265 113.006 L 104.411 112.841 C 102.942 112.614 101.934 112.576 101.154 112.628 C 100.377 112.657 99.827 112.791 99.282 112.926 C 98.618 112.707 99.139 112.615 99.21 112.532 C 94.969 111.52 94.534 111.578 90.799 111.847 L 90.517 111.209 C 90.004 111.287 88.498 110.774 86.583 110.228 C 84.668 109.676 82.347 109.146 80.214 108.966 C 80.269 108.912 80.375 108.819 80.716 108.817 C 78.314 108.619 75.59 107.606 73.207 106.84 C 70.842 105.999 68.817 105.414 67.744 106.21 L 64.569 105.909 C 68.504 107.109 63.783 106.64 65.342 107.404 C 63.74 107.141 61.451 105.655 63.378 106.124 L 63.655 106.307 C 64.584 105.473 58.847 104.457 59.119 103.772 C 57.187 103.185 55.258 102.614 53.375 101.934 C 51.49 101.268 49.637 100.545 47.81 99.795 C 44.157 98.302 40.628 96.672 37.226 94.967 C 37.401 95.362 37.57 95.763 37.752 96.151 C 36.955 95.754 36.168 95.328 35.378 94.918 C 34.824 94.402 34.754 93.883 36.44 94.76 C 35.698 93.888 33.493 93.65 33.373 93.796 C 31.798 92.724 32.212 92.655 32.878 92.82 C 33.545 92.978 34.488 93.287 33.99 93.007 C 33.528 92.788 33.069 92.553 32.616 92.311 L 32.886 92.579 C 31.687 92.246 31.434 92.582 29.507 91.285 C 28.338 90.347 29.07 90.42 28.607 90.06 C 28.632 90.009 28.487 89.869 27.893 89.535 C 26.962 88.884 26.076 88.161 25.177 87.452 L 25.99 88.867 C 24.628 88.251 23.454 86.819 24.377 88.494 C 23.712 87.234 21.25 85.112 19.1 82.725 C 16.935 80.398 15.144 77.73 14.863 76.936 C 13.384 75.277 12.297 73.132 11.343 70.272 C 11.416 70.659 11.373 71.051 11.203 71.033 C 11.032 71.022 10.724 70.591 10.361 69.277 C 11.046 69.398 10.784 68.177 10.522 66.589 C 10.247 65.006 10.051 62.982 10.423 61.843 C 10.21 62.85 10.01 61.006 10.044 59.252 C 10.052 58.378 10.111 57.542 10.098 57.103 C 10.074 56.661 9.963 56.597 9.668 57.349 C 9.861 56.214 10.01 56.213 10.123 56.27 C 10.246 56.328 10.372 56.449 10.658 55.672 C 10.965 53.085 12.136 50.38 13.864 48.176 C 14.692 47.029 15.701 46.05 16.717 45.065 C 17.781 44.143 18.867 43.223 20.026 42.393 C 20.045 42.161 19.154 42.446 20.082 41.471 C 20.544 41.316 21.02 41.217 21.486 41.109 C 21.952 41.001 22.412 40.892 22.888 40.832 C 23.361 40.53 23.519 40.14 23.804 39.785 C 24.093 39.446 24.517 39.16 25.488 39.067 C 25.206 39.024 24.773 38.957 25.429 38.589 C 30.505 36.908 35.755 35.699 41.079 35.401 C 46.4 35.086 51.749 35.629 56.801 37.36 C 55.454 36.754 56.394 36.86 57.477 37.011 C 56.793 36.812 57.57 36.517 57.478 36.221 C 58.894 36.713 60.31 37.212 61.716 37.734 C 62.64 37.118 66.396 38.587 66.982 37.958 L 65.576 37.812 C 67.57 37.322 63.341 35.412 63.795 34.372 C 61.569 34.944 58.562 31.908 54.899 32.838 C 54.172 32.507 55.597 32.57 55.229 32.263 C 54.288 32.611 53.224 32.564 51.287 32.156 L 51.527 32.06 C 48.752 31.821 46.766 31.656 44.697 31.478 C 42.616 31.33 40.444 31.144 37.238 31.346 L 37.709 31.841 C 36.339 31.911 36.05 31.804 35.399 31.766 C 34.619 32.303 35.581 32.154 36.561 32.039 C 37.543 31.948 38.534 31.874 37.817 32.412 C 36.922 31.938 34.495 32.245 32.156 32.768 C 29.811 33.251 27.56 34.031 26.853 33.64 C 24.746 34.457 27.554 33.991 25.461 34.825 L 24.847 34.731 L 24.402 35.382 C 23.034 35.921 22.264 35.905 22.145 35.667 C 22.485 35.517 23.069 35.09 23.425 34.911 C 22.961 35.011 22.415 35.263 21.852 35.552 C 21.57 35.696 21.281 35.855 20.996 36.022 C 20.714 36.205 20.438 36.39 20.168 36.567 C 19.082 37.26 18.197 38.07 17.877 38.2 C 18.553 37.819 19.213 37.382 19.895 37.072 C 19.205 37.513 18.513 38.079 17.795 38.586 C 17.098 39.182 16.368 39.695 15.67 40.378 C 14.244 41.628 12.861 43.166 11.62 44.898 C 10.365 46.613 9.302 48.654 8.54 50.757 C 7.772 52.867 7.352 55.069 7.221 57.082 L 7.489 56.498 C 7.352 58.024 7.335 59.069 7.305 59.901 C 7.281 60.734 7.255 61.348 7.243 61.987 C 7.24 62.307 7.237 62.627 7.233 62.986 C 7.242 63.34 7.264 63.726 7.288 64.167 C 7.365 65.047 7.497 66.178 7.866 67.673 L 7.776 67.471 C 8.206 68.609 8.705 70.116 9.207 71.648 C 8.874 71.002 8.978 71.753 9.097 72.436 C 9.218 73.111 9.321 73.753 8.863 72.908 C 9.46 74.235 9.89 74.997 10.183 75.488 C 10.469 75.986 10.649 76.201 10.798 76.357 C 11.096 76.668 11.317 76.765 12.485 78.016 L 12.637 79.009 C 13.511 79.769 13.645 79.758 15.238 81.802 C 13.767 80.316 15.868 83.658 14.166 82.027 C 15.546 84.664 17.077 85.986 18.291 86.97 C 18.89 87.493 19.443 87.906 19.918 88.378 C 20.388 88.841 20.763 89.399 21.07 90.064 C 22.254 90.309 21.44 89.496 20.549 88.584 C 20.099 88.14 19.609 87.689 19.302 87.4 C 19.003 87.096 18.883 86.944 19.152 87.142 C 18.539 86.031 20.98 87.806 22.152 88.91 C 22.775 89.428 23.123 90.24 23.765 91.159 C 24.085 91.623 24.467 92.135 24.975 92.69 C 25.494 93.216 26.146 93.77 26.979 94.344 C 26.647 94.105 26.591 94.174 26.264 93.936 C 26.826 94.515 27.492 94.829 28.178 95.169 C 28.866 95.525 29.579 95.909 30.287 96.588 C 31.418 96.466 32.335 97.803 32.9 97.092 C 31.811 96.604 30.747 96.034 29.667 95.485 C 31.545 96.313 33.551 96.309 36.387 98.247 C 36.096 98.304 35.127 98.084 34.469 97.905 C 35.262 98.59 36.211 98.603 37.046 99.279 C 36.49 100.045 33.06 97.547 30.905 97.067 C 31.703 97.979 34.8 98.448 33.493 98.857 C 34.408 98.638 35.259 99.097 36.225 99.668 C 37.199 100.194 38.283 100.861 39.635 100.913 L 39.318 101.364 C 39.726 101.443 40.597 101.553 41.298 101.864 L 39.815 101.988 C 41.95 102.27 43.481 104.077 45.48 104.486 C 41.486 102.964 44.76 103.515 43.187 102.468 C 45.732 103.079 46.343 103.673 47.02 104.364 C 47.692 105.054 48.436 105.833 51.245 106.64 C 50.471 106.467 48.505 105.351 49.741 105.518 C 50.768 105.996 52.112 106.657 52.693 107.153 C 56.416 108.195 52.256 106.436 53.913 106.598 C 55.017 107.628 55.793 106.887 57.461 107.168 L 57.343 107.712 C 61.472 109.333 58.722 106.916 62.408 108.492 L 60.639 108.759 L 62.656 109.164 L 62.108 109.658 C 64.373 109.803 65.023 110.075 67.115 110.82 C 66.704 110.303 67.602 109.902 69.487 110.38 C 70.699 111.043 68.658 110.713 71.34 111.329 C 70.666 111.515 69.919 111.767 68.861 110.963 C 68.706 111.111 68.193 111.15 68.038 111.298 C 69.344 112.023 71.494 112.315 72.469 112.527 C 72.098 112.431 71.66 112.285 71.445 112.143 C 72.788 112.217 74.14 112.23 75.486 112.28 C 76.061 112.627 75.54 112.68 75.025 112.733 C 75.824 112.856 76.421 112.721 77.587 112.932 C 77.2 113.311 77.185 113.785 75.504 113.628 L 79.312 113.964 C 79.521 114.215 81.118 114.922 80.607 114.984 C 82.631 115.687 85.847 115.08 88.53 115.954 C 88.689 115.893 88.988 115.86 89.579 115.912 C 90.856 116.226 92.062 116.553 93.335 116.819 C 94.608 117.085 95.956 117.269 97.541 117.193 L 99.168 118.264 C 101.608 118.437 96.951 116.907 101.006 117.179 C 103.894 117.248 101.977 117.985 102.949 118.33 C 104.427 118.089 107.001 117.539 109.539 118.493 C 108.65 118.544 107.988 118.348 107.169 118.316 Z M 137.29 119.529 C 136.696 119.641 135.506 119.997 135.103 119.661 C 135.817 119.029 136.305 119.338 137.29 119.529 Z M 183.313 114.044 C 182.881 114.305 182.209 114.327 181.442 114.256 C 181.994 114.114 182.619 114.023 183.313 114.044 Z M 188.895 32.618 C 188.895 32.618 188.935 32.624 188.959 32.612 C 190.116 33.259 189.709 33.017 188.895 32.618 Z M 186.437 31.481 C 186.163 31.462 186.162 31.548 186.253 31.664 C 186.461 31.587 187.03 31.784 187.668 32.054 C 187.526 31.852 187.226 31.634 186.443 31.482 Z M 28.313 90.061 L 28.695 90.496 C 27.644 89.951 27.975 90.009 28.313 90.061 Z" fill="rgb(249,207,1)"></path><path d="M 178.118 115.71 C 177.95 115.644 177.901 115.551 177.864 115.451 C 177.636 115.588 177.632 115.69 178.118 115.71 Z" fill="rgb(249,207,1)"></path><path d="M 88.638 116.002 L 88.548 115.988 C 88.493 116.003 88.461 116.029 88.445 116.058 Z" fill="rgb(249,207,1)"></path><path d="M 225.162 48.248 C 225.563 48.748 225.754 49.075 225.857 49.342 C 225.945 49.261 225.821 48.945 225.162 48.248 Z" fill="rgb(249,207,1)"></path><path d="M 172.666 28.566 C 173.231 28.637 173.786 28.738 174.342 28.831 C 173.54 28.653 173.282 28.457 172.894 28.28 C 172.908 28.415 173.186 28.669 172.666 28.566 Z" fill="rgb(249,207,1)"></path><path d="M 158.638 22.597 C 158.379 22.636 158.11 22.547 157.851 22.586 L 157.885 22.849 C 158.946 22.958 159.72 22.834 158.638 22.597 Z" fill="rgb(249,207,1)"></path><path d="M 171.469 26.419 C 171.424 25.927 170.344 25.87 169.153 25.71 C 169.226 25.721 169.293 25.732 169.36 25.75 C 168.896 26.328 170.186 26.37 171.469 26.419 Z" fill="rgb(249,207,1)"></path><path d="M 168.882 25.667 C 168.517 25.61 168.145 25.553 167.798 25.453 C 167.618 25.683 168.225 25.597 168.882 25.667 Z" fill="rgb(249,207,1)"></path><path d="M 183.136 30.763 C 182.621 30.48 182.659 31.245 182.397 30.962 C 181.651 31.356 186.178 31.364 183.136 30.763 Z" fill="rgb(249,207,1)"></path><path d="M 170.807 24.699 L 171.12 25.358 L 171.867 25.035 Z" fill="rgb(249,207,1)"></path><path d="M 179.962 27.355 L 178.13 26.72 C 178.137 26.823 177.89 26.817 177.59 26.786 C 178.733 27.103 179.969 27.536 179.962 27.355 Z" fill="rgb(249,207,1)"></path><path d="M 177.59 26.781 C 176.993 26.619 176.42 26.485 176.073 26.493 C 176.396 26.566 177.097 26.728 177.59 26.781 Z" fill="rgb(249,207,1)"></path><path d="M 173.412 25.061 C 173.591 25.135 173.767 25.225 173.944 25.315 L 175.251 25.696 C 174.638 25.484 174.028 25.257 173.411 25.068 Z" fill="rgb(249,207,1)"></path><path d="M 199.488 34.547 C 200.148 34.79 200.815 35.018 201.472 35.283 C 201.728 35.19 201.244 34.818 200.493 34.569 C 199.986 34.491 199.242 34.235 199.487 34.555 Z" fill="rgb(249,207,1)"></path><path d="M 193.996 30.55 C 194.497 30.886 194.499 31.027 194.746 31.331 L 195.003 30.666 Z" fill="rgb(249,207,1)"></path><path d="M 199.793 32.789 C 200.045 32.687 202.807 33.535 200.306 32.453 C 200.049 32.547 198.04 31.822 199.793 32.789 Z" fill="rgb(249,207,1)"></path><path d="M 226.646 52.489 C 226.52 52.337 226.381 52.19 226.247 52.052 L 225.697 53.04 L 226.639 52.496 Z" fill="rgb(249,207,1)"></path><path d="M 237.43 85.881 C 237.952 84.022 237.866 83.759 237.787 83.559 C 237.704 83.351 237.623 83.205 237.973 81.532 C 237.928 81.079 237.787 81.769 237.643 82.442 C 237.521 83.119 237.311 83.775 237.324 83.316 C 237.192 84.437 237.021 85.286 236.99 85.75 C 236.932 86.203 237.028 86.288 237.442 85.875 Z" fill="rgb(249,207,1)"></path><path d="M 237.311 83.325 C 237.355 82.963 237.345 82.578 237.35 82.172 C 237.315 82.816 237.324 83.131 237.311 83.325 Z" fill="rgb(249,207,1)"></path><path d="M 64.556 38.9 L 66.078 39.455 L 65.138 38.856 Z" fill="rgb(249,207,1)"></path><path d="M 67.713 38.637 L 67.95 39.456 L 69.009 38.977 C 68.646 38.937 67.949 38.861 67.712 38.644 Z" fill="rgb(249,207,1)"></path><path d="M 141.699 120.976 L 141.831 120.793 C 141.589 120.607 141.209 120.603 140.45 120.596 L 141.693 120.983 Z" fill="rgb(249,207,1)"></path><path d="M 119.807 120.016 L 120.182 120.05 L 119.55 119.334 Z" fill="rgb(249,207,1)"></path><path d="M 101.424 119.143 C 102.167 119.257 103.062 119.207 103.805 119.321 C 102.167 119.257 101.337 118.284 101.424 119.143 Z" fill="rgb(249,207,1)"></path></g></svg>