<svg width="60" height="60" viewBox="0 0 100 100" fill="none" xmlns="http://www.w3.org/2000/svg">
<g clip-path="url(#clip0_100_2261)">
<path d="M10.6519 69.6233L16.6519 75.6233V91.6666C16.6545 93.876 17.5334 95.994 19.0956 97.5563C20.6578 99.1185 22.7759 99.9973 24.9852 100H91.6669C93.8762 99.9973 95.9943 99.1185 97.5565 97.5563C99.1188 95.994 99.9976 93.876 100 91.6666V50C99.9938 47.8965 99.1908 45.8734 97.7529 44.3381C96.3149 42.8028 94.3488 41.8691 92.2502 41.725C93.0906 40.1531 93.4059 38.3537 93.1501 36.5897C92.8943 34.8258 92.0808 33.19 90.8286 31.9216L69.6052 10.685L69.5952 10.6666H69.5802L61.3619 2.43831C59.7996 0.879108 57.6825 0.00341797 55.4752 0.00341797C53.268 0.00341797 51.1509 0.879108 49.5886 2.43831L2.43522 49.61C0.880744 51.1805 0.00878906 53.301 0.00878906 55.5108C0.00878906 57.7206 0.880744 59.8411 2.43522 61.4116L10.6519 69.6233ZM61.3502 7.13998L66.0586 11.8516L36.2602 41.6666H26.8336L61.3502 7.13998ZM16.6669 61.26L11.8336 66.0933L7.12355 61.3833L16.6669 51.8333V61.26ZM14.1902 68.45L16.6669 65.9733V70.9267L14.1902 68.45ZM96.6669 50V91.6666C96.6669 92.9927 96.1401 94.2645 95.2024 95.2022C94.2647 96.1399 92.993 96.6666 91.6669 96.6666H25.0002C23.6741 96.6666 22.4024 96.1399 21.4647 95.2022C20.527 94.2645 20.0002 92.9927 20.0002 91.6666V50C20.0002 48.6739 20.527 47.4021 21.4647 46.4644C22.4024 45.5268 23.6741 45 25.0002 45H91.6669C92.993 45 94.2647 45.5268 95.2024 46.4644C96.1401 47.4021 96.6669 48.6739 96.6669 50ZM88.4719 41.355L88.1669 41.6666H40.9719L68.4152 14.21L88.4669 34.2733C89.402 35.2142 89.9272 36.4866 89.9282 37.8131C89.9291 39.1396 89.4056 40.4128 88.4719 41.355ZM4.79522 51.9616L51.9452 4.79498C52.8948 3.8875 54.1572 3.38025 55.4707 3.37839C56.7842 3.37653 58.0481 3.8802 59.0002 4.78498L21.1269 42.6666C19.6535 43.4473 18.4483 44.652 17.6669 46.125L4.77022 59.0233C3.84917 58.0773 3.33587 56.8077 3.34054 55.4874C3.34522 54.167 3.8675 52.9012 4.79522 51.9616Z" fill="#02382A"/>
<path d="M26.6663 63.3333H36.6663C37.5504 63.3333 38.3982 62.9821 39.0234 62.357C39.6485 61.7319 39.9997 60.8841 39.9997 60V53.3333C39.9997 52.4493 39.6485 51.6014 39.0234 50.9763C38.3982 50.3512 37.5504 50 36.6663 50H26.6663C25.7823 50 24.9344 50.3512 24.3093 50.9763C23.6842 51.6014 23.333 52.4493 23.333 53.3333V60C23.333 60.8841 23.6842 61.7319 24.3093 62.357C24.9344 62.9821 25.7823 63.3333 26.6663 63.3333ZM26.6663 53.3333H36.6663V60H26.6663V53.3333Z" fill="#02382A"/>
<path d="M24.9997 73.3334C25.4417 73.3334 25.8656 73.1578 26.1782 72.8453C26.4907 72.5327 26.6663 72.1088 26.6663 71.6667V68.3334C26.6663 67.8914 26.4907 67.4675 26.1782 67.1549C25.8656 66.8423 25.4417 66.6667 24.9997 66.6667C24.5576 66.6667 24.1337 66.8423 23.8212 67.1549C23.5086 67.4675 23.333 67.8914 23.333 68.3334V71.6667C23.333 72.1088 23.5086 72.5327 23.8212 72.8453C24.1337 73.1578 24.5576 73.3334 24.9997 73.3334Z" fill="#02382A"/>
<path d="M31.6667 66.6667C31.2246 66.6667 30.8007 66.8423 30.4882 67.1549C30.1756 67.4675 30 67.8914 30 68.3334V71.6667C30 72.1088 30.1756 72.5327 30.4882 72.8453C30.8007 73.1578 31.2246 73.3334 31.6667 73.3334C32.1087 73.3334 32.5326 73.1578 32.8452 72.8453C33.1577 72.5327 33.3333 72.1088 33.3333 71.6667V68.3334C33.3333 67.8914 33.1577 67.4675 32.8452 67.1549C32.5326 66.8423 32.1087 66.6667 31.6667 66.6667Z" fill="#02382A"/>
<path d="M36.667 68.3334V71.6667C36.667 72.1088 36.8426 72.5327 37.1551 72.8453C37.4677 73.1578 37.8916 73.3334 38.3337 73.3334C38.7757 73.3334 39.1996 73.1578 39.5122 72.8453C39.8247 72.5327 40.0003 72.1088 40.0003 71.6667V68.3334C40.0003 67.8914 39.8247 67.4675 39.5122 67.1549C39.1996 66.8423 38.7757 66.6667 38.3337 66.6667C37.8916 66.6667 37.4677 66.8423 37.1551 67.1549C36.8426 67.4675 36.667 67.8914 36.667 68.3334Z" fill="#02382A"/>
<path d="M44.9997 66.6667C44.5576 66.6667 44.1337 66.8423 43.8212 67.1549C43.5086 67.4675 43.333 67.8914 43.333 68.3334V71.6667C43.333 72.1088 43.5086 72.5327 43.8212 72.8453C44.1337 73.1578 44.5576 73.3334 44.9997 73.3334C45.4417 73.3334 45.8656 73.1578 46.1782 72.8453C46.4907 72.5327 46.6663 72.1088 46.6663 71.6667V68.3334C46.6663 67.8914 46.4907 67.4675 46.1782 67.1549C45.8656 66.8423 45.4417 66.6667 44.9997 66.6667Z" fill="#02382A"/>
<path d="M51.6667 73.3334C52.1087 73.3334 52.5326 73.1578 52.8452 72.8453C53.1577 72.5327 53.3333 72.1088 53.3333 71.6667V68.3334C53.3333 67.8914 53.1577 67.4675 52.8452 67.1549C52.5326 66.8423 52.1087 66.6667 51.6667 66.6667C51.2246 66.6667 50.8007 66.8423 50.4882 67.1549C50.1756 67.4675 50 67.8914 50 68.3334V71.6667C50 72.1088 50.1756 72.5327 50.4882 72.8453C50.8007 73.1578 51.2246 73.3334 51.6667 73.3334Z" fill="#02382A"/>
<path d="M64.9997 66.6667C64.5576 66.6667 64.1337 66.8423 63.8212 67.1549C63.5086 67.4675 63.333 67.8914 63.333 68.3334V71.6667C63.333 72.1088 63.5086 72.5327 63.8212 72.8453C64.1337 73.1578 64.5576 73.3334 64.9997 73.3334C65.4417 73.3334 65.8656 73.1578 66.1782 72.8453C66.4907 72.5327 66.6663 72.1088 66.6663 71.6667V68.3334C66.6663 67.8914 66.4907 67.4675 66.1782 67.1549C65.8656 66.8423 65.4417 66.6667 64.9997 66.6667Z" fill="#02382A"/>
<path d="M71.6667 66.6667C71.2246 66.6667 70.8007 66.8423 70.4882 67.1549C70.1756 67.4675 70 67.8914 70 68.3334V71.6667C70 72.1088 70.1756 72.5327 70.4882 72.8453C70.8007 73.1578 71.2246 73.3334 71.6667 73.3334C72.1087 73.3334 72.5326 73.1578 72.8452 72.8453C73.1577 72.5327 73.3333 72.1088 73.3333 71.6667V68.3334C73.3333 67.8914 73.1577 67.4675 72.8452 67.1549C72.5326 66.8423 72.1087 66.6667 71.6667 66.6667Z" fill="#02382A"/>
<path d="M78.3337 66.6667C77.8916 66.6667 77.4677 66.8423 77.1551 67.1549C76.8426 67.4675 76.667 67.8914 76.667 68.3334V71.6667C76.667 72.1088 76.8426 72.5327 77.1551 72.8453C77.4677 73.1578 77.8916 73.3334 78.3337 73.3334C78.7757 73.3334 79.1996 73.1578 79.5122 72.8453C79.8247 72.5327 80.0003 72.1088 80.0003 71.6667V68.3334C80.0003 67.8914 79.8247 67.4675 79.5122 67.1549C79.1996 66.8423 78.7757 66.6667 78.3337 66.6667Z" fill="#02382A"/>
<path d="M84.9997 66.6667C84.5576 66.6667 84.1337 66.8423 83.8212 67.1549C83.5086 67.4675 83.333 67.8914 83.333 68.3334V71.6667C83.333 72.1088 83.5086 72.5327 83.8212 72.8453C84.1337 73.1578 84.5576 73.3334 84.9997 73.3334C85.4417 73.3334 85.8656 73.1578 86.1782 72.8453C86.4907 72.5327 86.6663 72.1088 86.6663 71.6667V68.3334C86.6663 67.8914 86.4907 67.4675 86.1782 67.1549C85.8656 66.8423 85.4417 66.6667 84.9997 66.6667Z" fill="#02382A"/>
<path d="M31.6663 76.6667H24.9997C24.5576 76.6667 24.1337 76.8423 23.8212 77.1549C23.5086 77.4675 23.333 77.8914 23.333 78.3334C23.333 78.7754 23.5086 79.1994 23.8212 79.5119C24.1337 79.8245 24.5576 80.0001 24.9997 80.0001H31.6663C32.1084 80.0001 32.5323 79.8245 32.8449 79.5119C33.1574 79.1994 33.333 78.7754 33.333 78.3334C33.333 77.8914 33.1574 77.4675 32.8449 77.1549C32.5323 76.8423 32.1084 76.6667 31.6663 76.6667Z" fill="#02382A"/>
<path d="M45.0003 76.6667H38.3337C37.8916 76.6667 37.4677 76.8423 37.1551 77.1549C36.8426 77.4675 36.667 77.8914 36.667 78.3334C36.667 78.7754 36.8426 79.1994 37.1551 79.5119C37.4677 79.8245 37.8916 80.0001 38.3337 80.0001H45.0003C45.4424 80.0001 45.8663 79.8245 46.1788 79.5119C46.4914 79.1994 46.667 78.7754 46.667 78.3334C46.667 77.8914 46.4914 77.4675 46.1788 77.1549C45.8663 76.8423 45.4424 76.6667 45.0003 76.6667Z" fill="#02382A"/>
<path d="M31.6663 83.3333H24.9997C24.5576 83.3333 24.1337 83.5088 23.8212 83.8214C23.5086 84.134 23.333 84.5579 23.333 84.9999C23.333 85.4419 23.5086 85.8659 23.8212 86.1784C24.1337 86.491 24.5576 86.6666 24.9997 86.6666H31.6663C32.1084 86.6666 32.5323 86.491 32.8449 86.1784C33.1574 85.8659 33.333 85.4419 33.333 84.9999C33.333 84.5579 33.1574 84.134 32.8449 83.8214C32.5323 83.5088 32.1084 83.3333 31.6663 83.3333Z" fill="#02382A"/>
<path d="M45.0003 83.3333H38.3337C37.8916 83.3333 37.4677 83.5088 37.1551 83.8214C36.8426 84.134 36.667 84.5579 36.667 84.9999C36.667 85.4419 36.8426 85.8659 37.1551 86.1784C37.4677 86.491 37.8916 86.6666 38.3337 86.6666H45.0003C45.4424 86.6666 45.8663 86.491 46.1788 86.1784C46.4914 85.8659 46.667 85.4419 46.667 84.9999C46.667 84.5579 46.4914 84.134 46.1788 83.8214C45.8663 83.5088 45.4424 83.3333 45.0003 83.3333Z" fill="#02382A"/>
<path d="M58.3333 76.6667H51.6667C51.2246 76.6667 50.8007 76.8423 50.4882 77.1549C50.1756 77.4675 50 77.8914 50 78.3334C50 78.7754 50.1756 79.1994 50.4882 79.5119C50.8007 79.8245 51.2246 80.0001 51.6667 80.0001H58.3333C58.7754 80.0001 59.1993 79.8245 59.5118 79.5119C59.8244 79.1994 60 78.7754 60 78.3334C60 77.8914 59.8244 77.4675 59.5118 77.1549C59.1993 76.8423 58.7754 76.6667 58.3333 76.6667Z" fill="#02382A"/>
</g>
<defs>
<clipPath id="clip0_100_2261">
<rect width="100" height="100" fill="white"/>
</clipPath>
</defs>
</svg>
