<svg width="40" height="40" viewBox="0 0 49 48" fill="none" xmlns="http://www.w3.org/2000/svg">
<g clip-path="url(#clip0_100_2255)">
<path d="M12.4946 30.9177C12.8371 27.9849 11.1667 25.2931 8.7897 24.722C6.37025 24.1406 4.50014 20.6647 4.50014 17C4.50014 12.0294 8.52958 8 13.5001 8C18.7198 8 22.5001 12.3234 22.5 19.0761C22.4697 27.4861 17.277 33.8774 9.13493 36.69C11.1334 34.9319 12.2557 32.9624 12.4946 30.9177ZM13.5001 6C7.42501 6 2.50014 10.9249 2.50014 17C2.50014 21.4872 4.83604 25.8288 8.32241 26.6666C9.66721 26.9898 10.7382 28.7155 10.5081 30.6857C10.2001 33.3226 7.81542 35.9868 3.09385 38.0863C2.04256 38.5537 2.48275 40.1352 3.62437 39.9923C15.9295 38.4517 24.4591 30.4295 24.5 19.0797C24.5001 11.2741 19.8886 6 13.5001 6Z" fill="#CB8966"/>
<path d="M36.4946 30.9177C36.8371 27.9849 35.1667 25.2931 32.7897 24.722C30.3703 24.1406 28.5001 20.6647 28.5001 17C28.5001 12.0294 32.5296 8 37.5001 8C42.7198 8 46.5001 12.3234 46.5 19.0761C46.4697 27.4861 41.277 33.8774 33.1349 36.69C35.1334 34.9319 36.2557 32.9624 36.4946 30.9177ZM37.5001 6C31.425 6 26.5001 10.9249 26.5001 17C26.5001 21.4872 28.836 25.8288 32.3224 26.6666C33.6672 26.9898 34.7382 28.7155 34.5081 30.6857C34.2001 33.3226 31.8154 35.9868 27.0938 38.0863C26.0426 38.5537 26.4828 40.1352 27.6244 39.9923C39.9295 38.4517 48.4591 30.4295 48.5 19.0797C48.5001 11.2741 43.8886 6 37.5001 6Z" fill="#CB8966"/>
</g>
<defs>
<clipPath id="clip0_100_2255">
<rect width="48" height="48" fill="white" transform="matrix(-1 0 0 1 48.5 0)"/>
</clipPath>
</defs>
</svg>
