<svg width="40" height="40" viewBox="0 0 49 48" fill="none" xmlns="http://www.w3.org/2000/svg">
<g clip-path="url(#clip0_100_2249)">
<path d="M36.5054 30.9177C36.1629 27.9849 37.8333 25.2931 40.2103 24.722C42.6297 24.1406 44.4999 20.6647 44.4999 17C44.4999 12.0294 40.4704 8 35.4999 8C30.2802 8 26.4999 12.3234 26.5 19.0761C26.5303 27.4861 31.723 33.8774 39.8651 36.69C37.8666 34.9319 36.7443 32.9624 36.5054 30.9177ZM35.4999 6C41.575 6 46.4999 10.9249 46.4999 17C46.4999 21.4872 44.164 25.8288 40.6776 26.6666C39.3328 26.9898 38.2618 28.7155 38.4919 30.6857C38.7999 33.3226 41.1846 35.9868 45.9062 38.0863C46.9574 38.5537 46.5172 40.1352 45.3756 39.9923C33.0705 38.4517 24.5409 30.4295 24.5 19.0797C24.4999 11.2741 29.1114 6 35.4999 6Z" fill="#CB8966"/>
<path d="M12.5054 30.9177C12.1629 27.9849 13.8333 25.2931 16.2103 24.722C18.6297 24.1406 20.4999 20.6647 20.4999 17C20.4999 12.0294 16.4704 8 11.4999 8C6.28018 8 2.49987 12.3234 2.49999 19.0761C2.53032 27.4861 7.72302 33.8774 15.8651 36.69C13.8666 34.9319 12.7443 32.9624 12.5054 30.9177ZM11.4999 6C17.575 6 22.4999 10.9249 22.4999 17C22.4999 21.4872 20.164 25.8288 16.6776 26.6666C15.3328 26.9898 14.2618 28.7155 14.4919 30.6857C14.7999 33.3226 17.1846 35.9868 21.9062 38.0863C22.9574 38.5537 22.5172 40.1352 21.3756 39.9923C9.07049 38.4517 0.54092 30.4295 0.5 19.0797C0.499853 11.2741 5.11144 6 11.4999 6Z" fill="#CB8966"/>
</g>
<defs>
<clipPath id="clip0_100_2249">
<rect width="48" height="48" fill="white" transform="translate(0.5)"/>
</clipPath>
</defs>
</svg>
