<svg width="17" height="17" viewBox="0 0 17 17" fill="none" xmlns="http://www.w3.org/2000/svg">
<g id="account 1">
<g id="user, account, people, man">
<path id="Vector" d="M12.6105 8.59626C12.5612 8.54587 12.5023 8.50579 12.4374 8.47836C12.3724 8.45094 12.3027 8.43672 12.2322 8.43652C12.1617 8.43633 12.0918 8.45017 12.0267 8.47725C11.9616 8.50432 11.9026 8.54407 11.853 8.5942C11.8034 8.64433 11.7643 8.70382 11.738 8.76921C11.7116 8.8346 11.6985 8.90458 11.6995 8.97508C11.7005 9.04557 11.7155 9.11517 11.7436 9.17981C11.7718 9.24445 11.8125 9.30285 11.8634 9.35159C12.3141 9.79511 12.6717 10.3242 12.9152 10.9078C13.1587 11.4913 13.2831 12.1177 13.2813 12.75C13.2813 13.3998 11.4188 14.3438 8.50003 14.3438C5.58128 14.3438 3.71878 13.3993 3.71878 12.7489C3.71699 12.1209 3.83978 11.4988 4.08004 10.9186C4.32031 10.3384 4.67328 9.81163 5.11851 9.36875C5.16887 9.31966 5.20898 9.26105 5.23651 9.19633C5.26404 9.13161 5.27845 9.06207 5.27889 8.99174C5.27934 8.92141 5.26581 8.85169 5.23911 8.78663C5.2124 8.72157 5.17304 8.66245 5.1233 8.61272C5.07357 8.56299 5.01446 8.52363 4.9494 8.49692C4.88433 8.47021 4.81462 8.45669 4.74429 8.45713C4.67396 8.45758 4.60442 8.47198 4.5397 8.49952C4.47498 8.52705 4.41637 8.56715 4.36727 8.61751C3.82297 9.15896 3.39147 9.803 3.09778 10.5123C2.80408 11.2217 2.65402 11.9823 2.65628 12.75C2.65628 14.4753 5.66687 15.4062 8.50003 15.4062C11.3332 15.4062 14.3438 14.4753 14.3438 12.75C14.3461 11.9771 14.194 11.2115 13.8964 10.4982C13.5987 9.78488 13.1615 9.13824 12.6105 8.59626Z" fill="#02382A"/>
<path id="Vector_2" d="M8.5 9.03125C9.2355 9.03125 9.95448 8.81315 10.566 8.40453C11.1776 7.99591 11.6542 7.41512 11.9357 6.7356C12.2171 6.05609 12.2908 5.30837 12.1473 4.58701C12.0038 3.86564 11.6496 3.20302 11.1296 2.68295C10.6095 2.16287 9.94686 1.80869 9.22549 1.6652C8.50413 1.52172 7.75641 1.59536 7.0769 1.87682C6.39738 2.15829 5.81659 2.63493 5.40797 3.24647C4.99935 3.85802 4.78125 4.577 4.78125 5.3125C4.78239 6.29842 5.17455 7.24364 5.8717 7.9408C6.56886 8.63795 7.51408 9.03011 8.5 9.03125ZM8.5 2.65625C9.02536 2.65625 9.53891 2.81204 9.97573 3.10391C10.4126 3.39578 10.753 3.81063 10.9541 4.296C11.1551 4.78136 11.2077 5.31545 11.1052 5.83071C11.0027 6.34597 10.7497 6.81927 10.3783 7.19075C10.0068 7.56224 9.53347 7.81522 9.01821 7.91771C8.50295 8.0202 7.96886 7.9676 7.4835 7.76655C6.99813 7.56551 6.58328 7.22505 6.29141 6.78823C5.99954 6.35142 5.84375 5.83786 5.84375 5.3125C5.84458 4.60827 6.1247 3.93313 6.62266 3.43516C7.12063 2.9372 7.79577 2.65708 8.5 2.65625Z" fill="#02382A"/>
</g>
</g>
</svg>
