<svg width="20" height="20" viewBox="0 0 24 24" fill="none" xmlns="http://www.w3.org/2000/svg">
<path d="M12.0158 22.8277L5.93826 14.2452C4.94347 13.0707 4.30285 11.6377 4.09099 10.1131C3.87914 8.5886 4.10477 7.03524 4.74162 5.63397C5.37846 4.23271 6.4003 3.04121 7.68814 2.19824C8.97598 1.35527 10.4768 0.895529 12.0158 0.872559C14.1492 0.893641 16.1873 1.75934 17.6837 3.28005C19.1801 4.80076 20.0128 6.85252 19.9995 8.98596C20.0003 10.8471 19.3667 12.6529 18.2032 14.1055L12.0158 22.8277ZM12.0158 2.86848C10.411 2.88691 8.87901 3.54148 7.75635 4.68846C6.6337 5.83544 6.01211 7.38107 6.02808 8.98596C6.03476 10.4508 6.56177 11.8656 7.51504 12.9778L12.0158 19.3548L16.6364 12.8481C17.5147 11.7518 17.9965 10.3907 18.0036 8.98596C18.0196 7.38107 17.398 5.83544 16.2753 4.68846C15.1526 3.54148 13.6207 2.88691 12.0158 2.86848Z" fill="#E3DDD1"/>
<path d="M12.0154 9.85414C13.1178 9.85414 14.0114 8.96054 14.0114 7.85822C14.0114 6.75591 13.1178 5.8623 12.0154 5.8623C10.9131 5.8623 10.0195 6.75591 10.0195 7.85822C10.0195 8.96054 10.9131 9.85414 12.0154 9.85414Z" fill="#E3DDD1"/>
</svg>
