<svg width="25" height="24" viewBox="0 0 25 24" fill="none" xmlns="http://www.w3.org/2000/svg">
<g id="Vector">
<path d="M24.5 12C24.5 18.6274 19.1274 24 12.5 24C5.87258 24 0.5 18.6274 0.5 12C0.5 5.37258 5.87258 0 12.5 0C19.1274 0 24.5 5.37258 24.5 12Z" fill="#CB8966"/>
<path d="M18.0386 6.16621C17.9271 6.09247 17.8024 6.04183 17.6717 6.0172C17.541 5.99256 17.4067 5.99441 17.2767 6.02264C17.1467 6.05087 17.0234 6.10492 16.9139 6.18171C16.8044 6.2585 16.7108 6.35653 16.6385 6.47018L10.9659 15.3799L8.19948 12.7734C8.10188 12.6815 7.98746 12.61 7.86275 12.5631C7.73804 12.5162 7.60548 12.4948 7.47265 12.5001C7.20439 12.5108 6.95129 12.6296 6.76903 12.8305C6.58676 13.0314 6.49027 13.2978 6.50078 13.5711C6.51128 13.8445 6.62792 14.1024 6.82504 14.2881L10.4574 17.7102C10.4574 17.7102 10.5616 17.8017 10.6099 17.8336C10.7214 17.9074 10.8461 17.9581 10.9769 17.9828C11.1076 18.0074 11.2419 18.0056 11.3719 17.9774C11.502 17.9491 11.6253 17.8951 11.7349 17.8182C11.8444 17.7414 11.938 17.6434 12.0103 17.5297L18.3369 7.59288C18.4093 7.47925 18.4589 7.35221 18.4831 7.21901C18.5073 7.08581 18.5055 6.94906 18.4778 6.81657C18.4501 6.68409 18.397 6.55846 18.3217 6.44687C18.2463 6.33528 18.1501 6.23991 18.0386 6.16621Z" fill="white"/>
</g>
</svg>
