<svg width="60" height="60" viewBox="0 0 80 80" fill="none" xmlns="http://www.w3.org/2000/svg">
<path d="M21.3311 5.33325H23.9975V7.99992H21.3311V5.33325Z" fill="#02382A"/>
<path d="M26.6641 5.33325H37.3297V7.99992H26.6641V5.33325Z" fill="#02382A"/>
<path d="M51.9952 57.3333C51.9931 59.1008 51.2901 60.7953 50.0405 62.045C48.7908 63.2948 47.0965 63.9979 45.3292 64H20.9741L25.5577 56.0613C25.4127 56.47 25.3361 56.8998 25.331 57.3333C25.331 58.3942 25.7524 59.4116 26.5025 60.1618C27.2526 60.9119 28.2699 61.3333 29.3307 61.3333H34.6635C35.7243 61.3333 36.7416 60.9119 37.4917 60.1618C38.2418 59.4116 38.6631 58.3942 38.6631 57.3333C38.6631 56.2725 38.2418 55.2551 37.4917 54.5049C36.7416 53.7548 35.7243 53.3333 34.6635 53.3333H29.3307C28.6959 53.3345 28.0705 53.4872 27.5066 53.7787C26.9426 54.0702 26.4564 54.4921 26.0883 55.0093C26.6178 53.7619 26.6513 52.3595 26.182 51.0882C25.7128 49.8169 24.7761 48.7727 23.5632 48.1685C22.3503 47.5644 20.9525 47.4459 19.6553 47.8373C18.358 48.2287 17.259 49.1005 16.5825 50.2747L12.0496 58.1307C12.0167 57.8661 11.9998 57.5999 11.999 57.3333V9.33333C12.0011 7.56587 12.7041 5.87141 13.9537 4.62163C15.2034 3.37184 16.8977 2.66878 18.665 2.66667H45.3292C46.4988 2.66939 47.6472 2.97857 48.6601 3.56343C49.6729 4.14828 50.5149 4.98837 51.102 6L53.4098 4.66667C52.5879 3.25059 51.4094 2.07458 49.9917 1.2558C48.5739 0.437015 46.9664 0.00403846 45.3292 0H18.665C16.1907 0.00282315 13.8186 0.987061 12.0691 2.73679C10.3195 4.48652 9.33536 6.85885 9.33253 9.33333V35.0667C8.4841 35.4615 7.80098 36.1414 7.40205 36.988L1.35061 50.1173C0.454776 52.0432 -0.00630841 54.1426 6.51863e-05 56.2667V80H2.66648V56.2667C2.66054 54.5299 3.03744 52.8132 3.77038 51.2387L9.33253 39.1693V57.3333C9.33162 58.9258 9.73973 60.4919 10.5178 61.8813C10.6181 62.1061 10.7788 62.2988 10.9819 62.4378C11.185 62.5769 11.4227 62.6571 11.6686 62.6694C11.9144 62.6816 12.1589 62.6256 12.3749 62.5075C12.5909 62.3893 12.7699 62.2137 12.8922 62L18.8916 51.608C19.2477 51.0005 19.8297 50.5586 20.5104 50.3786C21.1911 50.1986 21.9154 50.2952 22.5252 50.6473C23.1349 50.9994 23.5807 51.5784 23.7652 52.258C23.9497 52.9375 23.8579 53.6625 23.5099 54.2747L17.5104 64.6667C17.3912 64.8729 17.3295 65.1074 17.3316 65.3456C17.3337 65.5839 17.3996 65.8172 17.5224 66.0213L20.3782 70.768C21.0011 71.8064 21.3306 72.9944 21.3314 74.2053V79.9867H23.9978V74.2053C23.9976 72.5106 23.5368 70.8477 22.6646 69.3947L21.0234 66.6667H45.3292C47.8035 66.6638 50.1756 65.6796 51.9251 63.9299C53.6747 62.1802 54.6588 59.8078 54.6617 57.3333V50.6667H51.9952V57.3333ZM29.3307 56H34.6635C35.0171 56 35.3562 56.1405 35.6062 56.3905C35.8563 56.6406 35.9967 56.9797 35.9967 57.3333C35.9967 57.687 35.8563 58.0261 35.6062 58.2761C35.3562 58.5262 35.0171 58.6667 34.6635 58.6667H29.3307C28.9771 58.6667 28.638 58.5262 28.388 58.2761C28.1379 58.0261 27.9975 57.687 27.9975 57.3333C27.9975 56.9797 28.1379 56.6406 28.388 56.3905C28.638 56.1405 28.9771 56 29.3307 56Z" fill="#02382A"/>
<path d="M76.1398 15.7601C73.1415 11.4679 68.6695 8.42841 63.5754 7.22026C58.4812 6.01211 53.1207 6.71971 48.5145 9.20833C43.9083 11.6969 40.378 15.7928 38.5958 20.716C36.8137 25.6392 36.9041 31.0459 38.85 35.9068L34.3437 43.5468C34.2137 43.7667 34.1497 44.0193 34.1591 44.2746C34.1686 44.5299 34.2512 44.7771 34.397 44.9868C34.5467 45.196 34.7527 45.3585 34.9911 45.4553C35.2295 45.5521 35.4904 45.5792 35.7436 45.5334L44.4494 43.9068C47.4056 46.557 51.045 48.3261 54.9551 49.0134C56.1838 49.2247 57.4281 49.3317 58.6748 49.3334C62.577 49.3323 66.4042 48.2607 69.7397 46.2353C73.0753 44.2099 75.7914 41.3082 77.5924 37.8461C79.3934 34.384 80.2103 30.4941 79.9542 26.6C79.6981 22.7058 78.3787 18.9564 76.1398 15.7601ZM77.0464 31.2401C76.4601 34.5662 74.9823 37.671 72.7707 40.2234C70.5591 42.7759 67.6965 44.6804 64.4879 45.7341C61.2793 46.7877 57.845 46.951 54.5509 46.2066C51.2568 45.4621 48.2264 43.8378 45.7827 41.5068C45.5326 41.2747 45.2039 41.146 44.8627 41.1468C44.7825 41.1445 44.7023 41.149 44.6228 41.1601L38.13 42.3734L41.4897 36.6934C41.5942 36.5105 41.6556 36.3062 41.6695 36.096C41.6834 35.8858 41.6492 35.6752 41.5697 35.4801C40.0827 32.1148 39.6325 28.3825 40.2765 24.7601C41.1357 19.8836 43.8967 15.5483 47.9521 12.7077C49.9602 11.3012 52.2256 10.3041 54.6189 9.77313C57.0123 9.24221 59.4868 9.18794 61.9012 9.61343C64.3155 10.0389 66.6224 10.9358 68.6902 12.2529C70.7579 13.57 72.546 15.2816 73.9524 17.2898C75.3588 19.298 76.3559 21.5636 76.8867 23.9572C77.4176 26.3508 77.4719 28.8255 77.0464 31.2401Z" fill="#02382A"/>
<path d="M67.9933 19.9999H63.9936V18.6666C63.9936 17.2521 63.4318 15.8955 62.4317 14.8953C61.4316 13.8952 60.0752 13.3333 58.6608 13.3333C57.2464 13.3333 55.89 13.8952 54.8899 14.8953C53.8898 15.8955 53.328 17.2521 53.328 18.6666V19.9999H49.3283C48.9747 19.9999 48.6356 20.1404 48.3856 20.3904C48.1356 20.6405 47.9951 20.9796 47.9951 21.3333V37.3333C47.9983 38.3931 48.4207 39.4087 49.1701 40.1582C49.9195 40.9076 50.935 41.3301 51.9947 41.3333H65.3268C66.3866 41.3301 67.4021 40.9076 68.1515 40.1582C68.9009 39.4087 69.3233 38.3931 69.3265 37.3333V21.3333C69.3265 20.9796 69.186 20.6405 68.936 20.3904C68.686 20.1404 68.3469 19.9999 67.9933 19.9999ZM55.9944 18.6666C55.9944 17.9593 56.2753 17.2811 56.7753 16.781C57.2754 16.2809 57.9536 15.9999 58.6608 15.9999C59.368 15.9999 60.0462 16.2809 60.5462 16.781C61.0463 17.2811 61.3272 17.9593 61.3272 18.6666V19.9999H55.9944V18.6666ZM66.6601 37.3333C66.6601 37.6869 66.5196 38.026 66.2696 38.2761C66.0195 38.5261 65.6804 38.6666 65.3268 38.6666H51.9947C51.6412 38.6666 51.302 38.5261 51.052 38.2761C50.802 38.026 50.6615 37.6869 50.6615 37.3333V35.9999H66.6601V37.3333ZM66.6601 33.3333H50.6615V22.6666H53.328V25.3333H55.9944V22.6666H61.3272V25.3333H63.9936V22.6666H66.6601V33.3333Z" fill="#02382A"/>
<path d="M27.0554 17.724L25.0023 19.7773C23.6203 18.8625 21.9479 18.4937 20.3093 18.7422C18.6708 18.9908 17.183 19.8391 16.1344 21.1226C15.0858 22.4061 14.5513 24.0333 14.6344 25.6887C14.7175 27.344 15.4124 28.9095 16.5843 30.0815C17.7562 31.2534 19.3215 31.9484 20.9767 32.0315C22.6319 32.1146 24.2589 31.58 25.5423 30.5314C26.8257 29.4827 27.6739 27.9947 27.9225 26.3561C28.171 24.7174 27.8021 23.0448 26.8874 21.6627L28.9406 19.6093L27.0554 17.724ZM25.3316 25.3333C25.3316 26.1245 25.097 26.8978 24.6575 27.5556C24.218 28.2134 23.5934 28.7261 22.8625 29.0289C22.1317 29.3316 21.3275 29.4108 20.5517 29.2565C19.7758 29.1021 19.0632 28.7212 18.5038 28.1618C17.9444 27.6024 17.5635 26.8896 17.4092 26.1137C17.2549 25.3378 17.3341 24.5335 17.6368 23.8026C17.9395 23.0717 18.4521 22.447 19.1099 22.0075C19.7676 21.5679 20.5409 21.3333 21.332 21.3333C21.9259 21.3356 22.5116 21.4724 23.0451 21.7333L19.0562 25.7227L20.9413 27.608L24.9316 23.62C25.1925 24.1536 25.3293 24.7393 25.3316 25.3333Z" fill="#02382A"/>
<path d="M30.6641 21.3333H35.9969V23.9999H30.6641V21.3333Z" fill="#02382A"/>
<path d="M30.6641 26.6667H35.9969V29.3334H30.6641V26.6667Z" fill="#02382A"/>
</svg>
