<svg width="62" height="61" viewBox="0 0 82 81" fill="none" xmlns="http://www.w3.org/2000/svg">
<path d="M23.7642 1.59363H4.25203C2.45593 1.59363 1 3.02056 1 4.78088V70.4383C1 72.1986 2.45593 73.6255 4.25203 73.6255H56.1884" stroke="#02382A" stroke-width="2" stroke-miterlimit="10" stroke-linecap="round" stroke-linejoin="round"/>
<path d="M61.1627 13.5277V4.78076C61.1627 3.02044 59.7067 1.59351 57.9106 1.59351H38.3984" stroke="#02382A" stroke-width="2" stroke-miterlimit="10" stroke-linecap="round" stroke-linejoin="round"/>
<path d="M64.4258 59.086V53.016" stroke="#02382A" stroke-width="2" stroke-miterlimit="10" stroke-linecap="round" stroke-linejoin="round"/>
<path d="M57.5957 59.0858V53.0159" stroke="#02382A" stroke-width="2" stroke-miterlimit="10" stroke-linecap="round" stroke-linejoin="round"/>
<path d="M61.0109 80.0007C58.4964 80.0007 56.458 78.0029 56.458 75.5385V60.8199C56.458 59.9916 57.1432 59.3202 57.9883 59.3202H64.0335C64.8787 59.3202 65.5637 59.9917 65.5637 60.8199V75.5385C65.5637 78.0029 63.5253 80.0007 61.0109 80.0007Z" stroke="#02382A" stroke-width="2" stroke-miterlimit="10" stroke-linecap="round" stroke-linejoin="round"/>
<path d="M61.0093 53.0154C72.0493 53.0154 80.999 44.2439 80.999 33.4238C80.999 22.6037 72.0493 13.8323 61.0093 13.8323C49.9692 13.8323 41.0195 22.6037 41.0195 33.4238C41.0195 44.2439 49.9692 53.0154 61.0093 53.0154Z" stroke="#02382A" stroke-width="2" stroke-miterlimit="10" stroke-linecap="round" stroke-linejoin="round"/>
<path d="M52.0723 43.3201C53.1414 39.464 56.7386 36.6282 61.0118 36.6282C65.2849 36.6282 68.8822 39.464 69.9513 43.3203" stroke="#02382A" stroke-width="2" stroke-miterlimit="10" stroke-linecap="round" stroke-linejoin="round"/>
<path d="M65.2401 31.4468V32.4832C65.2401 34.7724 63.3466 36.6283 61.0107 36.6283C58.6749 36.6283 56.7812 34.7726 56.7812 32.4832V31.4468C56.7812 29.1576 58.6747 27.3016 61.0107 27.3016C63.3466 27.3016 65.2401 29.1576 65.2401 31.4468Z" stroke="#02382A" stroke-width="2" stroke-miterlimit="10" stroke-linecap="round" stroke-linejoin="round"/>
<path d="M61.0111 46.641C68.459 46.641 74.4968 40.7235 74.4968 33.424C74.4968 26.1244 68.459 20.2069 61.0111 20.2069C53.5631 20.2069 47.5254 26.1244 47.5254 33.424C47.5254 40.7235 53.5631 46.641 61.0111 46.641Z" stroke="#02382A" stroke-width="2" stroke-miterlimit="10" stroke-linecap="round" stroke-linejoin="round"/>
<path d="M14.3816 22.9483C13.5504 22.9483 12.7192 22.6375 12.085 22.0158L7.94373 17.9572C7.373 17.3978 7.37284 16.4907 7.94373 15.9314L10.4701 13.4554C11.0408 12.896 11.9663 12.896 12.5371 13.4554L14.3816 15.2632L19.1203 10.6189C19.6911 10.0595 20.6166 10.0595 21.1873 10.6189L23.7137 13.0949C24.2844 13.6542 24.2844 14.5613 23.7137 15.1207L16.6784 22.016C16.0441 22.6375 15.2128 22.9483 14.3816 22.9483Z" stroke="#02382A" stroke-width="2" stroke-miterlimit="10" stroke-linecap="round" stroke-linejoin="round"/>
<path d="M30.7295 13.0679H43.9693" stroke="#02382A" stroke-width="2" stroke-miterlimit="10" stroke-linecap="round" stroke-linejoin="round"/>
<path d="M30.7295 20.0797H36.6779" stroke="#02382A" stroke-width="2" stroke-miterlimit="10" stroke-linecap="round" stroke-linejoin="round"/>
<path d="M14.3816 43.9844C13.5504 43.9844 12.7192 43.6736 12.085 43.052L7.94373 38.9933C7.373 38.434 7.37284 37.5269 7.94373 36.9675L10.4701 34.4915C11.0408 33.9321 11.9663 33.9321 12.5371 34.4915L14.3816 36.2993L19.1203 31.655C19.6911 31.0956 20.6166 31.0956 21.1873 31.655L23.7137 34.131C24.2844 34.6904 24.2844 35.5975 23.7137 36.1568L16.6784 43.0521C16.0441 43.6736 15.2128 43.9844 14.3816 43.9844Z" stroke="#02382A" stroke-width="2" stroke-miterlimit="10" stroke-linecap="round" stroke-linejoin="round"/>
<path d="M30.7295 34.104H40.7461" stroke="#02382A" stroke-width="2" stroke-miterlimit="10" stroke-linecap="round" stroke-linejoin="round"/>
<path d="M30.7295 41.116H34.7976" stroke="#02382A" stroke-width="2" stroke-miterlimit="10" stroke-linecap="round" stroke-linejoin="round"/>
<path d="M14.3816 65.0205C13.5504 65.0205 12.7192 64.7098 12.085 64.0881L7.94373 60.0295C7.373 59.4701 7.37284 58.563 7.94373 58.0036L10.4701 55.5276C11.0408 54.9683 11.9663 54.9683 12.5371 55.5276L14.3816 57.3354L19.1203 52.6911C19.6911 52.1318 20.6166 52.1318 21.1873 52.6911L23.7137 55.1671C24.2844 55.7265 24.2844 56.6336 23.7137 57.193L16.6784 64.0883C16.0441 64.7098 15.2128 65.0205 14.3816 65.0205Z" stroke="#02382A" stroke-width="2" stroke-miterlimit="10" stroke-linecap="round" stroke-linejoin="round"/>
<path d="M30.7295 55.1401H43.9693" stroke="#02382A" stroke-width="2" stroke-miterlimit="10" stroke-linecap="round" stroke-linejoin="round"/>
<path d="M30.7295 62.1521H36.6779" stroke="#02382A" stroke-width="2" stroke-miterlimit="10" stroke-linecap="round" stroke-linejoin="round"/>
<ellipse cx="31.0811" cy="1.59363" rx="1.62602" ry="1.59363" fill="#02382A"/>
</svg>
