<svg width="60" height="60" viewBox="0 0 80 80" fill="none" xmlns="http://www.w3.org/2000/svg">
<g clip-path="url(#clip0_100_2241)">
<path d="M50.7357 13.0549C47.8742 10.3134 43.1725 10.1009 39.9999 13.4077C36.8283 10.0995 32.1053 10.3331 29.2644 13.0549C26.2751 15.9188 26.1732 20.6807 29.0373 23.6701L37.5204 32.5241C38.8719 33.9346 41.1235 33.9396 42.4795 32.5241L50.9628 23.67C53.8268 20.6807 53.7249 15.9188 50.7357 13.0549ZM49.2705 22.0484L40.7871 30.9025C40.3562 31.3524 39.6415 31.35 39.2129 30.9025L30.7297 22.0484C28.7598 19.9923 28.8298 16.7169 30.8858 14.7471C32.9417 12.7774 36.2171 12.8472 38.1871 14.9033C38.4751 15.2038 38.9885 15.8482 40.0002 15.848C40.9938 15.848 41.4999 15.2297 41.8131 14.9033C43.78 12.8502 47.0445 12.7641 49.1144 14.7471C51.1702 16.7171 51.2404 19.9924 49.2705 22.0484Z" fill="#02382A"/>
<path d="M42.8136 20.9H41.172V19.2584C41.172 18.6112 40.6475 18.0865 40.0001 18.0865C39.3528 18.0865 38.8282 18.6112 38.8282 19.2584V20.9H37.1865C36.5392 20.9 36.0146 21.4247 36.0146 22.0719C36.0146 22.719 36.5392 23.2437 37.1865 23.2437H38.8282V24.8853C38.8282 25.5325 39.3528 26.0572 40.0001 26.0572C40.6475 26.0572 41.172 25.5325 41.172 24.8853V23.2437H42.8136C43.4609 23.2437 43.9854 22.719 43.9854 22.0719C43.9854 21.4247 43.4607 20.9 42.8136 20.9Z" fill="#02382A"/>
<path d="M42.8136 40.0718C43.4609 40.0718 43.9854 39.5471 43.9854 38.8999C43.9854 38.2527 43.4609 37.728 42.8136 37.728H37.1865C36.5392 37.728 36.0146 38.2527 36.0146 38.8999C36.0146 39.5471 36.5392 40.0718 37.1865 40.0718H42.8136Z" fill="#02382A"/>
<path d="M46.7999 43.0227H33.2012C32.5538 43.0227 32.0293 43.5474 32.0293 44.1946C32.0293 44.8418 32.5538 45.3665 33.2012 45.3665H46.7999C47.4473 45.3665 47.9718 44.8418 47.9718 44.1946C47.9718 43.5474 47.4471 43.0227 46.7999 43.0227Z" fill="#02382A"/>
<path d="M46.7999 48.3179H33.2012C32.5538 48.3179 32.0293 48.8426 32.0293 49.4897C32.0293 50.1369 32.5538 50.6616 33.2012 50.6616H46.7999C47.4473 50.6616 47.9718 50.1369 47.9718 49.4897C47.9718 48.8426 47.4471 48.3179 46.7999 48.3179Z" fill="#02382A"/>
<path d="M14.1113 80H37.2659C37.9133 80 38.4378 79.4753 38.4378 78.8281C38.4378 78.1809 37.9133 77.6562 37.2659 77.6562H14.1113C12.6891 77.6562 11.5322 76.4992 11.5322 75.0771V40.2655C11.5322 40.0584 11.5573 39.8534 11.6058 39.6549C12.1573 40.1409 34.1895 59.5604 34.7319 60.0386C37.7353 62.6858 42.2654 62.6861 45.269 60.0386C45.9801 59.4118 68.0042 39.9995 68.3948 39.6551C68.4434 39.8537 68.4686 40.0585 68.4686 40.2655V75.0771C68.4686 76.4993 67.3116 77.6562 65.8894 77.6562H42.7347C42.0874 77.6562 41.5629 78.1809 41.5629 78.8281C41.5629 79.4753 42.0874 80 42.7347 80H65.8892C68.6037 80 70.8122 77.7915 70.8122 75.0771V40.2655C70.8122 38.6149 69.9738 37.0188 68.5013 36.0957L59.8201 28.4439V21.2115C59.8201 20.5643 59.2955 20.0396 58.6482 20.0396C58.0008 20.0396 57.4763 20.5643 57.4763 21.2115V46.1544L43.7191 58.2801C41.5947 60.1526 38.3945 60.1425 36.2814 58.2801L22.5242 46.1544C22.5242 44.9511 22.5242 4.73692 22.5242 3.71504C22.5242 2.95894 23.1396 2.34377 23.8955 2.34377H56.1049C56.861 2.34377 57.4761 2.95894 57.4761 3.71504V15.7427C57.4761 16.3898 58.0007 16.9145 58.648 16.9145C59.2954 16.9145 59.8199 16.3898 59.8199 15.7427V3.71504C59.8201 1.66658 58.1535 0 56.1049 0H23.8957C21.8472 0 20.1806 1.66658 20.1806 3.71504V28.4437L11.4988 36.096C10.0518 37.0035 9.18848 38.578 9.18848 40.2655V75.0771C9.18848 77.7915 11.3969 80 14.1113 80ZM59.8201 31.5681L64.1023 35.3425H59.8201V31.5681ZM59.8201 37.6863H65.8892C66.2153 37.6863 66.5469 37.7499 66.8651 37.8788L59.8201 44.0884V37.6863ZM20.1805 31.568V35.3425H15.8981L20.1805 31.568ZM14.1113 37.6863H20.1806V44.0886L13.1355 37.879C13.4465 37.7522 13.7832 37.6863 14.1113 37.6863Z" fill="#02382A"/>
</g>
<defs>
<clipPath id="clip0_100_2241">
<rect width="80" height="80" fill="white"/>
</clipPath>
</defs>
</svg>
