<svg width="60" height="60" viewBox="0 0 80 80" fill="none" xmlns="http://www.w3.org/2000/svg">
<path d="M66.25 58.75V61.25H62.8788L61.3338 60.22C60.315 59.5412 59.1763 59.1013 57.9863 58.8938C60.0825 56.4363 61.25 53.3237 61.25 50C61.25 42.4187 55.0812 36.25 47.5 36.25C39.9188 36.25 33.75 42.4187 33.75 50C33.75 53.6488 35.1662 57.0375 37.6662 59.5875C36.81 60.2762 36.25 61.3188 36.25 62.5C36.25 63.0275 36.3363 63.5363 36.4625 64.035L32.14 58.27C31.1912 57.005 29.68 56.25 28.0988 56.25H27.5513C24.7663 56.25 22.5 58.5163 22.5 61.3013C22.5 62.3438 22.8162 63.3463 23.4125 64.1975L28.49 71.4512C30.5938 74.4562 34.0388 76.25 37.7063 76.25H66.25V78.75H78.75V58.75H66.25ZM47.5 38.75C53.7025 38.75 58.75 43.7963 58.75 50C58.75 53.4412 57.215 56.6025 54.5462 58.75H48.75V56.25H52.5V52.5C52.5 50.4325 50.8175 48.75 48.75 48.75H46.25C45.5613 48.75 45 48.19 45 47.5V46.25H48.75C49.4387 46.25 50 46.81 50 47.5H52.5C52.5 45.4325 50.8175 43.75 48.75 43.75V41.25H46.25V43.75H42.5V47.5C42.5 49.5675 44.1825 51.25 46.25 51.25H48.75C49.4387 51.25 50 51.81 50 52.5V53.75H46.25C45.5613 53.75 45 53.19 45 52.5H42.5C42.5 54.5675 44.1825 56.25 46.25 56.25V58.75H40.4537C37.785 56.6025 36.25 53.4412 36.25 50C36.25 43.7963 41.2975 38.75 47.5 38.75ZM37.7063 73.75C34.8538 73.75 32.1737 72.355 30.5387 70.0187L25.4612 62.7637C25.1587 62.3337 25 61.8275 25 61.3013C25 59.895 26.145 58.75 27.5525 58.75H28.1C28.8987 58.75 29.6625 59.1325 30.1413 59.77L35 66.2512C36.175 67.8162 38.0437 68.75 40 68.75H42.465C42.4775 68.75 42.49 68.7537 42.5025 68.7537H42.505L50.4263 68.7513H50.43C51.4313 68.7513 52.3725 69.1425 53.0812 69.85L54.115 70.8838L55.8825 69.1162L54.8488 68.0825C53.6675 66.9025 52.0988 66.2512 50.4313 66.2512C50.43 66.2512 50.4275 66.2512 50.425 66.2512H48.7488L42.4638 66.25C41.4763 66.24 40.5487 65.8538 39.8475 65.155C39.1413 64.4463 38.75 63.5025 38.75 62.5C38.75 61.81 39.3113 61.25 40 61.25H56.48C57.7175 61.25 58.9163 61.6125 59.9463 62.3L62.1212 63.75H66.25V73.75H37.7063ZM76.25 76.25H73.75V66.25H71.25V76.25H68.75V61.25H71.25V63.75H73.75V61.25H76.25V76.25Z" fill="#02382A"/>
<path d="M15 33.75C14.3112 33.75 13.75 33.1888 13.75 32.5H11.25C11.25 34.5675 12.9325 36.25 15 36.25V38.75H17.5V36.25H21.25V32.5C21.25 30.4325 19.5675 28.75 17.5 28.75H15C14.3112 28.75 13.75 28.1887 13.75 27.5V26.25H17.5C18.1887 26.25 18.75 26.8113 18.75 27.5H21.25C21.25 25.4325 19.5675 23.75 17.5 23.75V21.25H15V23.75H11.25V27.5C11.25 29.5675 12.9325 31.25 15 31.25H17.5C18.1887 31.25 18.75 31.8112 18.75 32.5V33.75H15Z" fill="#02382A"/>
<path d="M15.8063 46.25H16.695C24.72 46.25 31.25 39.72 31.25 31.6937C31.25 28.6925 30.34 25.8062 28.6188 23.3462L22.635 14.7975L26.6125 2.86373L19.33 1.04248L17.345 5.01248L15.5925 2.38248L5.79625 4.01623L9.84875 14.8225L3.88125 23.3462C2.16 25.8075 1.25 28.6937 1.25 31.6937C1.25 39.72 7.78 46.25 15.8063 46.25ZM14.4075 5.11623L17.655 9.98623L20.67 3.95623L23.3875 4.63498L20.3487 13.75H12.1163L9.20375 5.98373L14.4075 5.11623ZM5.93 24.78L11.9012 16.25H20.6L26.5713 24.78C27.9963 26.8175 28.75 29.2087 28.75 31.6937C28.75 38.3412 23.3412 43.75 16.6937 43.75H15.805C9.15875 43.75 3.75 38.3412 3.75 31.6937C3.75 29.2087 4.50375 26.8175 5.93 24.78Z" fill="#02382A"/>
<path d="M16.25 61.82V60H21.25L11.25 46.6663L1.25 60H6.25V61.25C6.25 70.9 14.1 78.75 23.75 78.75H25V75.525L23.8075 74.8438C19.1462 72.18 16.25 67.19 16.25 61.82ZM8.75 61.25V57.5H6.25L11.25 50.8338L16.25 57.5H13.75V61.82C13.75 67.4538 16.4825 72.73 20.9888 75.995C14.0325 74.6963 8.75 68.5775 8.75 61.25Z" fill="#02382A"/>
<path d="M42.5 18.18V20H37.5L47.5 33.3338L57.5 20H52.5V18.75C52.5 9.1 44.65 1.25 35 1.25H33.75V4.47625L34.9425 5.15625C39.6038 7.82 42.5 12.8113 42.5 18.18ZM50 18.75V22.5H52.5L47.5 29.1663L42.5 22.5H45V18.18C45 12.5475 42.2663 7.27125 37.76 4.005C44.7175 5.305 50 11.4225 50 18.75Z" fill="#02382A"/>
</svg>
