<svg width="60" height="60" viewBox="0 0 104 101" fill="none" xmlns="http://www.w3.org/2000/svg">
<path fill-rule="evenodd" clip-rule="evenodd" d="M6.88118 22.432L9.16737 31.1808C10.1691 35.7846 13.6946 39.1978 18.2242 41.1162C22.7743 43.0432 28.498 43.5522 34.342 42.3025C40.1859 41.0529 45.2008 38.2476 48.565 34.6281C51.9243 31.0138 53.7375 26.3991 52.7485 21.7736L50.2072 12.0487C49.2055 7.44481 45.68 4.03166 41.1504 2.11335C36.6002 0.186315 30.8766 -0.322654 25.0327 0.92694C19.1887 2.17663 14.1737 4.98191 10.8096 8.60131C7.45034 12.2156 5.65578 16.2501 6.88118 22.432ZM13.5564 11.1543C10.7841 14.1371 9.40578 17.1876 10.3433 20.9376C11.2808 24.2188 13.6293 26.4158 17.0117 27.8824L37.3319 4.75635C33.9728 3.84369 29.9765 3.70457 25.8168 4.59407C20.6338 5.70238 16.3356 8.16416 13.5564 11.1543ZM41.0437 6.21482L20.921 29.0816C23.962 29.6814 27.4287 29.6795 31.0169 28.9122C36.1999 27.8039 40.4982 25.3421 43.2774 22.3519C46.0614 19.3566 47.2127 15.9781 46.5493 12.8758C45.9693 10.1632 44.0369 7.82553 41.0437 6.21482ZM46.0241 24.9049C47.0923 23.7556 48.0051 22.5094 48.7214 21.1953C50.187 25.1563 48.5905 29.0924 45.8182 32.0751C43.039 35.0653 38.7407 37.5271 33.5577 38.6354C28.3749 39.7438 23.4457 39.255 19.6866 37.6631C15.921 36.0683 12.6828 33.5938 12.6828 29.8012C13.6148 30.4113 14.6215 30.9432 15.6833 31.3929C20.2334 33.32 25.9571 33.829 31.8011 32.5793C37.6451 31.3296 42.66 28.5244 46.0241 24.9049Z" fill="#02382A"/>
<path d="M7.32585 60.5399C5.08138 62.7348 3.88963 65.2738 3.88963 67.8656C3.88963 71.3058 5.98935 74.6528 9.86347 77.2261C13.7239 79.7902 19.1656 81.4372 25.2703 81.4372C28.9687 81.4372 32.4347 80.8321 35.4556 79.7776C36.4333 79.4363 37.5026 79.9523 37.8438 80.9299C38.1851 81.9076 37.6692 82.9768 36.6915 83.3181C33.2565 84.5169 29.3714 85.1872 25.2703 85.1872C18.5313 85.1872 12.3451 83.3762 7.78869 80.3498C6.3201 79.3743 5.0016 78.2568 3.88963 77.0191C3.31241 81.875 5.98935 85.5388 9.86347 88.1122C13.7239 90.6763 19.1656 92.3225 25.2703 92.3225C30.7041 92.3225 35.6207 91.0175 39.3627 88.9147C40.2655 88.4075 41.4086 88.7281 41.9158 89.6309C42.423 90.5338 42.1023 91.6775 41.1996 92.1847C36.8399 94.6334 31.2791 96.0725 25.2703 96.0725C18.5313 96.0725 12.3451 94.2622 7.78869 91.2359C3.24594 88.2181 0.139648 83.8419 0.139648 78.7514V67.8656C0.139648 62.7749 3.24594 58.3986 7.78869 55.3813C12.3451 52.3549 18.5313 50.5439 25.2703 50.5439C30.6557 50.5439 35.6764 51.6997 39.7951 53.6986C40.7267 54.1508 41.1154 55.2725 40.6633 56.2042C40.2112 57.1358 39.0894 57.5245 38.1578 57.0723C34.5895 55.3405 30.1348 54.2939 25.2703 54.2939C19.5725 54.2939 14.4523 55.7287 10.6562 58.0048L34.9112 70.021C35.8391 70.4807 36.2187 71.6055 35.759 72.5335C35.2993 73.4614 34.1743 73.8409 33.2465 73.3813L7.32585 60.5399Z" fill="#02382A"/>
<path fill-rule="evenodd" clip-rule="evenodd" d="M43.0289 84.7794C38.7815 80.2469 37.8608 73.7215 39.4167 67.1214C40.9765 60.5053 45.0561 53.5778 51.2046 47.8156C57.3531 42.0535 64.5305 38.4316 71.2339 37.3039C77.9197 36.1791 84.3704 37.5202 88.6175 42.0503L88.6203 42.053L98.885 52.939C103.133 57.4713 104.053 63.9967 102.497 70.5968C100.937 77.2129 96.8581 84.1401 90.71 89.9029C84.5611 95.6648 77.3836 99.2863 70.6803 100.414C63.9943 101.539 57.5433 100.198 53.2958 95.6676L53.2938 95.6657L43.0289 84.7794ZM88.9775 56.7809C89.6937 51.8314 88.6269 47.5443 85.8841 44.6172C82.7652 41.2892 77.7516 40.0101 71.856 41.0019C65.9767 41.991 59.4545 45.2235 53.7688 50.5519C49.2235 54.8116 45.9802 59.6916 44.163 64.4424L88.9775 56.7809ZM45.7633 82.2129C42.7302 78.9749 41.7481 74.0736 42.9605 68.4525L88.0615 60.741C86.4049 65.9989 82.9536 71.5259 77.8805 76.2803C72.1948 81.6086 65.6726 84.8413 59.7933 85.8304C53.9286 86.8166 48.9365 85.5566 45.8142 82.2669L45.7652 82.2149L45.7633 82.2129ZM92.8625 52.018C93.0772 54.491 92.8494 57.095 92.2325 59.7107C90.6725 66.3268 86.5932 73.2545 80.4447 79.0165C74.2962 84.7785 67.1188 88.401 60.4155 89.5279C57.8012 89.9685 55.2228 90.0313 52.798 89.6732L56.03 93.1007C59.1489 96.4288 64.1626 97.7085 70.0582 96.7166C75.9375 95.7276 82.4596 92.4951 88.145 87.1663C93.8309 81.838 97.4797 75.5391 98.8475 69.7362C100.219 63.9188 99.2684 58.8337 96.1512 55.5056L96.1494 55.5033L92.8625 52.018Z" fill="#02382A"/>
</svg>
