<svg width="182" height="40" viewBox="0 0 182 40" fill="none" xmlns="http://www.w3.org/2000/svg">
<g clip-path="url(#clip0_303_3475)">
<mask id="mask0_303_3475" style="mask-type:luminance" maskUnits="userSpaceOnUse" x="0" y="0" width="182" height="40">
<path d="M181.371 0H0.629883V40H181.371V0Z" fill="white"/>
</mask>
<g mask="url(#mask0_303_3475)">
<path d="M44.0296 9.47033C30.4149 9.47033 16.7995 9.47877 3.18468 9.45765C1.80225 9.45522 0.860083 10.1528 0.651254 11.3093C0.650033 11.3172 0.63721 11.3232 0.629883 11.3298V21.581C0.704988 21.5032 0.783757 21.4283 0.855198 21.3468C1.20813 20.9452 1.53053 20.5133 1.91461 20.1443C3.76354 18.367 6.00082 17.548 8.56904 17.5492C17.1878 17.5529 25.8066 17.5619 34.4253 17.545C37.7611 17.5384 40.3166 16.0816 42.1019 13.3114C42.7949 12.2358 43.4508 11.1378 44.1231 10.0489C44.2324 9.87255 44.3361 9.69257 44.4693 9.46972L44.0296 9.47033Z" fill="url(#paint0_linear_303_3475)"/>
<path d="M12.9574 20.4692C12.5013 20.4692 12.0421 20.4965 11.5896 20.5508C8.27037 20.9519 5.47378 23.5228 4.84606 26.7648C4.73799 27.3234 4.69524 27.899 4.67754 28.4685C4.65006 29.3393 4.67021 30.2114 4.67021 31.1191H5.08908C13.2896 31.1191 21.49 31.1179 29.6906 31.1209C30.8306 31.1209 31.6776 30.6335 32.2594 29.6763C34.0638 26.7067 35.8675 23.7372 37.6712 20.767C37.7213 20.6843 37.7653 20.5985 37.8392 20.4656H37.4374C29.2779 20.4656 21.1176 20.4645 12.9574 20.4692Z" fill="url(#paint1_linear_303_3475)"/>
<path d="M181.26 18.7347C180.737 14.5675 178.564 11.569 174.687 9.83811C172.135 8.69909 169.438 8.50644 166.709 8.99201C163.171 9.6213 160.423 11.4319 158.66 14.5736C157.346 16.9163 156.998 19.4461 157.37 22.0702C157.916 25.9276 159.935 28.8077 163.485 30.5194C166.884 32.1578 170.444 32.2363 173.987 31.0485C177.184 29.9771 179.457 27.8433 180.741 24.7294C180.78 24.6351 180.804 24.5344 180.836 24.4286C180.765 24.4166 180.735 24.4068 180.704 24.4068C178.518 24.4062 176.33 24.4039 174.141 24.4123C174.042 24.4123 173.913 24.4867 173.85 24.567C173.407 25.1214 172.876 25.5791 172.223 25.8575C170.288 26.6819 168.34 26.694 166.455 25.7379C165.051 25.0254 164.399 23.7492 164.066 22.2388H181.167C181.198 22.0237 181.232 21.8372 181.251 21.6488C181.294 21.2248 181.331 20.7996 181.371 20.375V19.832C181.334 19.4667 181.306 19.0994 181.26 18.7347ZM164.247 17.8747C164.752 15.8781 166.488 14.175 169.229 14.1345C171.941 14.0947 173.873 15.4814 174.41 17.8747H164.247Z" fill="black"/>
<path d="M155.664 9.77957V9.45043C154.507 9.45043 153.399 9.45163 152.289 9.45043C151.425 9.44922 150.819 9.83936 150.465 10.616C150.336 10.8969 150.203 11.1747 150.061 11.4778C149.95 11.3921 149.861 11.3293 149.776 11.261C149.01 10.6366 148.173 10.1274 147.258 9.74756C144.859 8.75107 142.368 8.56264 139.839 9.0476C136.332 9.72099 133.718 11.6089 132.193 14.8418C131.156 17.0402 130.96 19.3634 131.36 21.734C131.871 24.7554 133.398 27.1421 136.045 28.7812C138.08 30.0417 140.329 30.5116 142.708 30.4802C144.891 30.4505 146.929 29.9305 148.782 28.7643C148.804 28.7504 148.837 28.7504 148.95 28.7239C148.884 29.4824 148.877 30.2174 148.748 30.9301C148.465 32.498 147.598 33.6393 146.042 34.1787C144.613 34.6738 143.149 34.6871 141.679 34.387C140.462 34.1388 139.465 33.5608 138.826 32.4617C138.774 32.3735 138.598 32.3125 138.479 32.3119C136.332 32.3034 134.184 32.3058 132.037 32.3058H131.742C131.749 32.3802 131.749 32.4102 131.756 32.4387C132.362 35.0012 133.881 36.8891 136.147 38.2202C137.82 39.2034 139.654 39.7011 141.576 39.8877C143.694 40.0931 145.803 40.0495 147.872 39.4848C150.397 38.7951 152.458 37.4544 153.867 35.2295C155.157 33.1919 155.647 30.9295 155.656 28.5633C155.677 22.3023 155.664 16.0406 155.664 9.77957ZM149.098 20.3528C148.815 22.3505 147.627 23.6925 145.703 24.3417C145.013 24.5754 144.262 24.6359 143.539 24.7753C143.533 24.7464 143.527 24.718 143.521 24.6889C142.084 24.6908 140.759 24.3442 139.649 23.4057C137.043 21.2036 137.403 17.1307 140.347 15.3962C142.329 14.2282 145.339 14.3357 147.137 15.6751C148.71 16.8468 149.367 18.4461 149.098 20.3528Z" fill="black"/>
<path d="M72.3617 17.3324C71.6655 14.163 69.9443 11.685 67.0176 10.1069C65.0344 9.03858 62.8954 8.675 60.6569 8.79036C58.6785 8.89242 56.8363 9.4263 55.1717 10.4995C54.6827 10.8154 54.2297 11.1862 53.7436 11.5437C53.5945 11.2224 53.4449 10.8945 53.2898 10.5696C52.9381 9.83577 52.352 9.45649 51.527 9.45107C50.9781 9.44744 50.4285 9.45046 49.879 9.45046H48.1289V39.2923H54.8908V29.8967C55.0759 30.0133 55.2091 30.0997 55.3452 30.1818C55.4929 30.2707 55.6402 30.36 55.7916 30.4415C58.1698 31.72 60.7174 32.0522 63.3576 31.6524C67.2381 31.0647 70.0396 29.0018 71.6393 25.4458C72.8141 22.8356 72.9686 20.096 72.3617 17.3324ZM61.0794 25.7852C60.7888 25.8268 60.492 25.8256 60.1976 25.8443C57.6868 25.8323 55.6193 24.523 54.82 22.3566C53.6679 19.233 55.1449 15.4071 59.2939 14.785C61.6858 14.4263 64.0378 15.4615 65.1778 17.3699C66.9371 20.3147 65.8239 25.0954 61.0794 25.7852Z" fill="black"/>
<path d="M129.825 31.1101H123.108V30.7235C123.108 26.9453 123.113 23.1671 123.105 19.3895C123.103 18.4926 123.005 17.6055 122.633 16.7696C122.01 15.369 120.755 14.6842 119.207 14.7307C116.88 14.7995 115.484 16.2979 115.01 18.4461C114.852 19.1659 114.779 19.9173 114.773 20.6552C114.749 24.0114 114.763 27.3674 114.763 30.7235V31.0998H108.063V9.46431C108.179 9.45948 108.278 9.45102 108.377 9.45102C109.394 9.44982 110.412 9.45102 111.429 9.45042C112.278 9.44982 112.883 9.82547 113.24 10.5888C113.439 11.0164 113.642 11.4422 113.871 11.929C114.234 11.5576 114.543 11.1801 114.912 10.8745C116.505 9.55854 118.372 8.92682 120.426 8.79757C121.933 8.70274 123.416 8.82777 124.836 9.36769C127.291 10.3014 128.706 12.1367 129.395 14.5797C129.691 15.6299 129.818 16.7086 129.82 17.7951C129.83 22.1155 129.824 26.4361 129.824 30.7573L129.825 31.1101Z" fill="black"/>
<path d="M90.4398 9.47222V9.84062C90.4398 13.6394 90.4289 17.4376 90.4508 21.2363C90.4545 21.8825 90.5345 22.5438 90.6932 23.1701C91.1555 24.9904 92.6154 25.9797 94.5077 25.8256C96.1228 25.6941 97.2139 24.8394 97.904 23.4317C98.4016 22.4164 98.5787 21.3323 98.5798 20.2163C98.5835 16.7594 98.5812 13.3024 98.5812 9.84545V9.47101H105.299V31.101C105.204 31.1077 105.116 31.1191 105.029 31.1191C103.991 31.1204 102.952 31.121 101.915 31.1191C101.077 31.1179 100.482 30.7381 100.127 29.9909C99.9244 29.5646 99.7261 29.1364 99.5135 28.6816C99.4432 28.7469 99.3834 28.7952 99.3327 28.8514C97.8032 30.54 95.8584 31.4265 93.6132 31.708C91.9798 31.9127 90.3616 31.8258 88.7991 31.2695C86.3763 30.4065 84.9535 28.637 84.2293 26.2598C83.8843 25.1281 83.7274 23.9637 83.7262 22.7835C83.7201 18.4425 83.7237 14.1014 83.7237 9.75969C83.7237 9.67092 83.7237 9.58154 83.7237 9.47222H90.4398Z" fill="black"/>
<path d="M74.2803 0H80.9586V31.1016H74.2803V0Z" fill="black"/>
</g>
</g>
<defs>
<linearGradient id="paint0_linear_303_3475" x1="6.26338" y1="27.153" x2="33.997" y2="-0.887581" gradientUnits="userSpaceOnUse">
<stop stop-color="#00E3F0"/>
<stop offset="0.32" stop-color="#2276F3"/>
<stop offset="0.65" stop-color="#AE00FF"/>
<stop offset="1" stop-color="#FF48C9"/>
</linearGradient>
<linearGradient id="paint1_linear_303_3475" x1="9.71751" y1="36.1119" x2="31.4459" y2="14.1428" gradientUnits="userSpaceOnUse">
<stop stop-color="#00E3F0"/>
<stop offset="0.32" stop-color="#2276F3"/>
<stop offset="0.65" stop-color="#AE00FF"/>
<stop offset="1" stop-color="#FF48C9"/>
</linearGradient>
<clipPath id="clip0_303_3475">
<rect width="180.741" height="40" fill="white" transform="translate(0.629883)"/>
</clipPath>
</defs>
</svg>
