<svg width="192" height="58" viewBox="0 0 192 58" fill="none" xmlns="http://www.w3.org/2000/svg">
<path d="M33.305 14.3765L37.3707 7.29426C38.5511 5.26139 37.8298 2.57276 35.7969 1.39239C33.764 0.212017 31.0754 0.933356 29.895 2.96622L25.8293 10.0485C17.1732 7.29426 7.40236 10.8354 2.68086 19.098C-0.335644 24.3441 -0.7291 30.3115 1.10704 35.6232L8.64831 22.5735C10.3533 19.557 13.1731 17.4586 16.5175 16.5405C19.8619 15.6224 23.3374 16.0815 26.3539 17.852C32.5181 21.3932 34.6821 29.3935 31.0754 35.5576C27.5343 41.7218 19.5995 43.8858 13.3698 40.2791L17.6978 32.7379C19.7307 33.9182 22.4193 33.1969 23.5997 31.164C24.7801 29.0656 24.0587 26.4425 22.0259 25.2622C19.993 24.0818 17.3044 24.8031 16.124 26.836L2.35298 50.7058C1.17261 52.8042 1.89395 55.4272 3.92681 56.6076C5.95968 57.788 8.64831 57.0667 9.82868 55.0338L13.8944 47.9516C22.5505 50.7058 32.3213 47.1646 37.0428 38.902C41.8299 30.705 39.9938 20.5407 33.305 14.3765Z" fill="#181A1D"/>
<path d="M51.6016 19.4912H58.2903C62.1593 19.4912 65.3726 21.3929 65.3726 25.8521C65.3726 30.3113 62.1593 32.2786 58.2903 32.2786H55.5361V38.5083H51.6016V19.4912ZM58.1592 28.803C60.0609 28.803 61.3069 27.9505 61.3069 25.8521C61.3069 23.7537 59.9953 22.9012 58.1592 22.9012H55.4706V28.803H58.1592Z" fill="#181A1D"/>
<path d="M71.0771 19.4912H83.6678V22.9668H75.0117V27.3604H82.6186V30.7048H75.0117V35.0984H84.0613V38.5083H71.0771V19.4912Z" fill="#181A1D"/>
<path d="M90.6191 19.4912H94.5537V35.0984H103.144V38.5083H90.6191V19.4912Z" fill="#181A1D"/>
<path d="M107.538 29.0001C107.538 23.3605 111.932 19.2292 117.375 19.2292C122.883 19.2292 127.211 23.3605 127.211 29.0001C127.211 34.6396 122.883 38.7709 117.375 38.7709C111.932 38.7709 107.538 34.6396 107.538 29.0001ZM123.211 29.0001C123.211 25.4589 120.85 22.7047 117.375 22.7047C113.899 22.7047 111.538 25.3934 111.538 29.0001C111.538 32.5412 113.899 35.2954 117.375 35.2954C120.85 35.2954 123.211 32.5412 123.211 29.0001Z" fill="#181A1D"/>
<path d="M136.851 22.9016H131.408V19.4261H146.228V22.9016H140.786V38.5088H136.851V22.9016Z" fill="#181A1D"/>
<path d="M150.426 29.0001C150.426 23.3605 154.819 19.2292 160.262 19.2292C165.771 19.2292 170.099 23.3605 170.099 29.0001C170.099 34.6396 165.705 38.7709 160.262 38.7709C154.754 38.7709 150.426 34.6396 150.426 29.0001ZM166.033 29.0001C166.033 25.4589 163.672 22.7047 160.197 22.7047C156.721 22.7047 154.36 25.3934 154.36 29.0001C154.36 32.5412 156.721 35.2954 160.197 35.2954C163.738 35.2954 166.033 32.5412 166.033 29.0001Z" fill="#181A1D"/>
<path d="M182.033 29.6554C181.115 28.7374 179.738 27.0324 179.738 27.0324C179.738 27.0324 180 29.1308 180 30.5079V38.5082H176.394V19.2944H176.787L186.361 28.3439C187.279 29.1964 188.591 30.9669 188.591 30.9669C188.591 30.9669 188.328 28.8029 188.328 27.4914V19.4911H192.001V38.705H191.607L182.033 29.6554Z" fill="#181A1D"/>
</svg>
