<svg width="174" height="22" viewBox="0 0 174 22" fill="none" xmlns="http://www.w3.org/2000/svg">
<g clip-path="url(#clip0_303_3529)">
<path d="M7.42278 21.45H2.8877V0H8.84L14.0837 14.85L19.3274 0H25.4214V21.45H20.7446V6.875L15.9261 21.45H12.383L7.5645 6.875H7.42278V21.45Z" fill="black"/>
<path d="M35.9083 18.8375C37.1838 18.8375 38.1759 18.425 38.8845 17.4625C39.5931 16.5 39.8765 15.2625 39.8765 13.75C39.8765 12.2375 39.5931 11 38.8845 10.0375C38.1759 9.21251 37.1838 8.66251 35.9083 8.66251C34.6328 8.66251 33.6408 9.07501 32.9322 10.0375C32.3653 11 31.9401 12.2375 31.9401 13.75C31.9401 15.2625 32.2236 16.5 32.9322 17.4625C33.6408 18.425 34.6328 18.8375 35.9083 18.8375ZM35.9083 22C34.2077 22 32.7905 21.725 31.515 21.0375C30.2395 20.35 29.3891 19.3875 28.6805 18.15C27.9719 16.9125 27.6885 15.5375 27.6885 13.8875C27.6885 12.2375 27.9719 10.8625 28.6805 9.62501C29.3891 8.38751 30.3812 7.42501 31.515 6.73751C32.7905 6.05001 34.2077 5.63751 35.9083 5.63751C37.609 5.63751 39.0262 5.91251 40.3017 6.60001C41.5772 7.28751 42.5692 8.25001 43.1361 9.48751C43.8447 10.725 44.1282 12.1 44.1282 13.75C44.1282 15.4 43.8447 16.775 43.1361 18.0125C42.4275 19.25 41.5772 20.2125 40.3017 20.9C39.0262 21.725 37.609 22 35.9083 22Z" fill="black"/>
<path d="M65.1031 5.63751C66.662 5.63751 67.9375 6.05001 68.7879 7.01251C69.6382 7.97501 70.0634 9.21251 70.0634 11V21.45H65.8117V12.2375C65.8117 11.1375 65.67 10.3125 65.2448 9.76251C64.9614 9.21251 64.2528 9.07501 63.2607 9.07501C62.2687 9.07501 61.5601 9.35001 60.9932 9.90001C60.4263 10.45 60.1429 11.275 60.1429 12.375V21.45H55.8912V12.2375C55.8912 11.1375 55.7495 10.3125 55.3243 9.76251C55.0409 9.21251 54.3323 9.07501 53.3402 9.07501C52.3482 9.07501 51.6396 9.35001 51.0727 9.90001C50.5058 10.45 50.2224 11.275 50.2224 12.375V21.45H45.9707V6.18751H50.2224V8.25001C50.6475 7.56251 51.3561 6.87501 52.2064 6.46251C53.0568 5.91251 54.0488 5.77501 55.1826 5.77501C56.1747 5.77501 57.025 6.05001 57.7336 6.46251C58.4422 7.01251 59.0091 7.56251 59.2925 8.38751C60.0011 7.56251 60.8515 6.87501 61.5601 6.32501C62.9773 5.91251 63.9693 5.63751 65.1031 5.63751Z" fill="black"/>
<path d="M83.9522 12.2375C83.9522 11.1375 83.6688 10.3125 82.9602 9.76251C82.2516 9.07501 81.4012 8.80001 80.2675 8.80001C79.2754 8.80001 78.2834 9.07501 77.7165 9.76251C77.0079 10.3125 76.5827 11.275 76.5827 12.2375H83.9522ZM88.2039 14.9875H76.5827C76.5827 16.0875 77.0079 17.05 77.7165 17.875C78.4251 18.5625 79.4171 18.975 80.5509 18.975C81.543 18.975 82.2516 18.8375 82.8184 18.425C83.3853 18.0125 83.6688 17.6 83.9522 17.05H88.2039C87.7787 18.7 86.9284 19.9375 85.5112 20.9C84.2357 21.8625 82.535 22.275 80.4092 22.275C78.7085 22.275 77.2913 22 76.1575 21.3125C74.882 20.625 74.0317 19.6625 73.3231 18.425C72.6145 16.775 72.3311 15.4 72.3311 13.75C72.3311 12.2375 72.6145 10.725 73.3231 9.62501C74.0317 8.38751 74.882 7.42501 76.0158 6.73751C77.2913 6.05001 78.7085 5.63751 80.4092 5.63751C82.9602 5.63751 84.9443 6.32501 86.2198 7.83751C87.637 9.35001 88.2039 11.4125 88.2039 14.025V14.9875Z" fill="black"/>
<path d="M100.109 5.63751C101.668 5.63751 102.943 6.05001 103.793 7.01251C104.785 7.97501 105.211 9.21251 105.211 11V21.45H100.959V12.2375C100.959 11.1375 100.675 10.3125 100.25 9.76251C99.8252 9.21251 99.1166 8.93751 98.2662 8.93751C97.1325 8.93751 96.2821 9.21251 95.7153 9.76251C95.1484 10.3125 94.8649 11.1375 94.8649 12.2375V21.3125H90.6133V6.18751H94.8649V8.25001C95.2901 7.42501 95.9987 6.87501 96.849 6.32501C97.6994 5.91251 98.8331 5.63751 100.109 5.63751Z" fill="black"/>
<path d="M115.131 18.5625C115.556 18.5625 115.981 18.5625 116.406 18.425V21.45C115.556 21.5875 114.706 21.725 113.855 21.725C112.297 21.725 111.021 21.3125 110.312 20.625C109.604 19.8 109.179 18.5625 109.179 16.775V9.35002H106.911V6.18752H109.179V1.65002H113.43V6.18752H116.265V9.35002H113.43V16.775C113.43 17.6 113.572 18.0125 113.855 18.2875C113.997 18.425 114.564 18.5625 115.131 18.5625Z" fill="black"/>
<path d="M125.901 18.8375C127.177 18.8375 128.169 18.425 128.878 17.4625C129.586 16.5 129.87 15.2625 129.87 13.75C129.87 12.2375 129.586 11 128.878 10.0375C128.169 9.21251 127.177 8.66251 125.901 8.66251C124.626 8.66251 123.634 9.07501 122.925 10.0375C122.217 11 121.933 12.2375 121.933 13.75C121.933 15.2625 122.217 16.5 122.925 17.4625C123.634 18.425 124.626 18.8375 125.901 18.8375ZM125.901 22C124.201 22 122.784 21.725 121.508 21.0375C120.233 20.35 119.382 19.3875 118.674 18.15C117.965 16.9125 117.682 15.5375 117.682 13.8875C117.682 12.2375 117.965 10.8625 118.674 9.62501C119.382 8.38751 120.374 7.42501 121.508 6.73751C122.784 6.05001 124.201 5.63751 125.901 5.63751C127.602 5.63751 129.019 5.91251 130.295 6.60001C131.57 7.28751 132.562 8.25001 133.129 9.48751C133.838 10.725 134.121 12.1 134.121 13.75C134.121 15.4 133.838 16.775 133.129 18.0125C132.421 19.25 131.57 20.2125 130.295 20.9C129.019 21.725 127.602 22 125.901 22Z" fill="black"/>
<path d="M146.735 6.1875H150.987V21.5875H146.735V19.525C146.31 20.35 145.602 20.9 144.751 21.45C143.901 21.8625 142.909 22.1375 141.492 22.1375C139.933 22.1375 138.657 21.725 137.807 20.7625C136.815 19.8 136.39 18.5625 136.39 16.775V6.1875H140.641V15.4C140.641 16.5 140.925 17.325 141.35 17.875C141.775 18.425 142.484 18.7 143.476 18.7C144.609 18.7 145.318 18.425 146.027 17.875C146.594 17.325 147.019 16.5 147.019 15.4V6.1875H146.735Z" fill="black"/>
<path d="M160.765 22C158.214 22 156.372 21.45 155.096 20.4875C153.821 19.3875 153.112 18.15 153.112 16.5H157.222C157.364 17.325 157.647 18.0125 158.214 18.425C158.781 18.8375 159.631 19.1125 160.765 19.1125C162.466 19.1125 163.316 18.5625 163.316 17.4625C163.316 16.775 163.033 16.3625 162.608 16.0875C162.041 15.8125 161.332 15.5375 160.057 15.4L159.348 15.2625C157.506 14.85 156.23 14.3 155.096 13.6125C154.104 12.925 153.537 11.825 153.537 10.45C153.537 9.07502 154.104 7.83752 155.238 7.01252C156.372 6.18752 158.073 5.77502 160.057 5.77502C162.324 5.77502 164.025 6.32502 165.159 7.28752C166.292 8.25002 167.001 9.48752 167.001 10.8625H163.033C162.891 10.175 162.608 9.62502 162.182 9.35002C161.757 8.93752 161.049 8.80002 160.198 8.80002C159.348 8.80002 158.781 8.93752 158.498 9.21252C158.073 9.48752 157.931 9.90002 157.931 10.3125C157.931 10.8625 158.073 11.1375 158.498 11.4125C158.923 11.55 159.631 11.825 160.624 12.1L161.474 12.2375C162.749 12.5125 163.883 12.925 164.733 13.2C165.584 13.475 166.292 14.025 166.859 14.7125C167.426 15.4 167.71 16.225 167.71 17.325C167.71 18.8375 167.143 20.075 165.867 20.9C164.592 21.5875 162.891 22 160.765 22Z" fill="black"/>
<path d="M167.143 3.57501C167.143 2.47501 167.993 1.51251 169.127 1.51251C170.26 1.51251 171.111 2.33751 171.111 3.57501C171.111 4.81251 170.26 5.63751 169.127 5.63751C167.993 5.63751 167.143 4.81251 167.143 3.57501ZM169.127 5.22501C170.119 5.22501 170.827 4.53751 170.827 3.57501C170.827 2.61251 170.119 1.92501 169.127 1.92501C168.135 1.92501 167.426 2.61251 167.426 3.57501C167.426 4.53751 168.276 5.22501 169.127 5.22501ZM168.276 2.47501H169.268C169.835 2.47501 170.119 2.75001 170.119 3.16251C170.119 3.43751 169.977 3.71251 169.694 3.71251C170.26 3.85001 170.119 4.67501 170.26 4.67501H169.694C169.552 4.53751 169.835 3.85001 169.268 3.85001H168.985V4.67501H168.418V2.47501H168.276ZM169.127 3.43751C169.41 3.43751 169.552 3.43751 169.552 3.16251C169.552 2.88751 169.41 2.88751 169.127 2.88751H168.843V3.43751H169.127Z" fill="black"/>
</g>
<defs>
<clipPath id="clip0_303_3529">
<rect width="172.333" height="22" fill="white" transform="translate(0.833008)"/>
</clipPath>
</defs>
</svg>
