<svg width="176" height="28" viewBox="0 0 176 28" fill="none" xmlns="http://www.w3.org/2000/svg">
<path d="M29.7042 1.14872C29.7042 0.753851 30.0574 0.430771 30.4459 0.394874H35.0375C35.426 0.394874 35.7793 0.717953 35.7793 1.14872V10.9487H46.7991V1.14872C46.7991 0.753851 47.117 0.394874 47.5408 0.394874H52.1325C52.521 0.394874 52.8389 0.717953 52.8742 1.14872V26.8513C52.8742 27.2462 52.5563 27.5692 52.1325 27.6051H47.5408C47.1523 27.6051 46.7991 27.2821 46.7991 26.8513V16.6564H35.7793V26.8513C35.7793 27.2462 35.4614 27.6051 35.0375 27.6051H30.4459C30.0574 27.6051 29.7395 27.2821 29.7042 26.8513V1.14872ZM74.2428 0.0358996C66.649 2.19047e-06 60.468 6.21026 60.3974 13.9282C60.3974 13.9641 60.3974 14 60.3974 14.0359C60.3974 21.7897 66.5077 27.9641 74.2428 27.9641C81.9779 27.9641 88.1236 21.7897 88.1236 14.0359C88.1236 6.28205 81.9426 0.0358974 74.3488 0C74.2781 0.0358974 74.2782 0.0358996 74.2428 0.0358996ZM74.2428 21.7897C70.0397 21.7897 66.5784 18.3077 66.5784 14.0718C66.5784 9.76411 70.0397 6.24615 74.2781 6.28205C78.5165 6.28205 81.9426 9.76411 81.9426 14.0718C81.9426 18.2718 78.4812 21.7897 74.2428 21.7897ZM95.6821 26.8513C95.6821 27.2462 96 27.6051 96.4238 27.6051H101.015C101.404 27.6051 101.722 27.2821 101.757 26.8513V16.9436H104.406L109.528 27.2462C109.669 27.4615 109.881 27.6051 110.128 27.6051H115.249C115.638 27.641 115.991 27.3179 116.026 26.9231C116.026 26.7795 115.991 26.6 115.921 26.4923L110.658 16.6205C114.013 15.2564 116.344 12.3846 116.344 8.83077C116.344 4.2 112.565 0.430774 107.938 0.430774H96.4238C96.0353 0.430774 95.6821 0.753851 95.6821 1.14872V26.8513ZM101.722 12.0256V5.95898H107.444C109.033 5.95898 110.34 7.28718 110.375 8.90257C110.375 10.5538 109.033 12.0256 107.444 12.0256H101.722ZM125.881 26.8513C125.881 27.2462 126.234 27.5692 126.623 27.6051H131.214C131.603 27.6051 131.956 27.2821 131.956 26.8513V12.3846H131.991L147.214 27.7846C147.355 27.8923 147.532 27.9641 147.709 28H148.309C148.698 28 149.015 27.7128 149.051 27.318V1.18462C149.051 0.789745 148.698 0.466671 148.309 0.430774H143.682C143.294 0.430774 142.94 0.753847 142.94 1.18462V14.9333H142.905L127.859 0.32308C127.682 0.143593 127.4 0.0358996 127.152 0.0358996H126.587C126.199 0.0358996 125.881 0.323077 125.845 0.717949L125.881 26.8513ZM158.552 26.8513C158.552 27.2462 158.87 27.6051 159.294 27.6051H175.258C175.647 27.6051 176 27.2821 176 26.8513V22.6154C176 22.2205 175.682 21.8615 175.258 21.8615H164.592V16.6205H173.386C173.775 16.6205 174.093 16.2974 174.128 15.8667V11.7026C174.128 11.3077 173.775 10.9846 173.386 10.9487H164.592V6.13846H175.258C175.647 6.13846 176 5.81538 176 5.38462V1.14872C176 0.753851 175.682 0.394874 175.258 0.394874H159.294C158.905 0.394874 158.552 0.717953 158.552 1.14872V26.8513ZM21.404 0.430774H0.741721C0.3532 0.430774 0 0.753851 0 1.14872V5.38462C0 5.77949 0.31788 6.13846 0.741721 6.13846H8.01766V27.2103C8.05298 27.4256 8.22958 27.6051 8.4415 27.6051H8.90066C9.11258 27.6051 9.5011 27.3897 9.78366 27.1385C10.0662 26.8872 10.2075 26.7436 10.2075 26.7436L10.2428 26.7077L13.4923 23.4051C13.9161 22.9744 14.128 22.4359 14.128 21.8256V20.4974V6.10256H21.404C21.7925 6.10256 22.1457 5.77949 22.1457 5.34872V1.11282C22.1457 0.753848 21.8278 0.430774 21.404 0.430774Z" fill="#221F20"/>
</svg>
