<svg width="164" height="68" viewBox="0 0 164 68" fill="none" xmlns="http://www.w3.org/2000/svg">
<g clip-path="url(#clip0_303_3547)">
<path d="M30.6489 19.7542H0.5V25.4184H30.6489V19.7542Z" fill="#211551"/>
<path d="M162.586 19.7542H132.437V25.4184H162.586V19.7542Z" fill="#211551"/>
<path d="M0.5 27.981V31.0938L30.6489 31.2799V27.981H0.5Z" fill="#D6001C"/>
<path d="M132.437 27.981V31.0938L162.586 31.2799V27.981H132.437Z" fill="#D6001C"/>
<path d="M81.5366 21.5531H71.2642L81.6256 14.8088L81.5366 21.5531ZM125.161 28.7412C124.974 24.6612 122.7 21.4624 118.355 21.4608H102.149V16.0781H125.182V7.85773H93.6333V21.5531H90.0051L90.0194 7.85932H79.5673L57.4369 21.5531H46.2849V16.0781H59.4554L72.9455 7.85773H37.9325V42.1614H46.2833V29.7655H57.93V29.7735H81.6256V42.1423H90.0942V29.7735H116.814V33.3222H93.7081V42.1407H118.355C122.817 42.1407 125.172 38.7335 125.172 34.547L125.161 28.7396V28.7412ZM30.0732 0V49.9873H54.1442V37.6296H73.7679V50H118.356C126.86 50 133.032 43.4991 133.032 34.5406L133.041 0H30.0732ZM128.731 4.30903V19.6284H124.178C126.844 21.4481 128.524 24.6071 128.707 28.5773L128.71 28.6553L128.721 34.5406C128.721 41.1099 124.457 45.691 118.355 45.691H78.0753V33.3206H54.5546V33.3158H49.8352V45.7117H34.3806V4.30903H128.731Z" fill="#211551"/>
<path d="M32.4389 67.7692V59.033H29.5V56.2308H38.12V59.033H35.167V67.7692H32.4389Z" fill="#211551"/>
<path d="M43.8174 67.7692V56.2308H48.4719C49.9766 56.2308 51.0171 56.6923 51.6781 57.467C52.2546 58.1429 52.5499 59.0165 52.5499 60.1538V60.1868C52.5499 61.967 51.7484 63.1374 50.525 63.7473L52.8733 67.7692H49.7375L47.7548 64.2747H46.5455V67.7692H43.8174ZM46.5455 61.7692H48.3594C49.2735 61.7692 49.8219 61.2418 49.8219 60.4011V60.3681C49.8219 59.4451 49.2453 58.9835 48.3454 58.9835H46.5455V61.7692Z" fill="#211551"/>
<path d="M57.4717 67.7692L61.6481 56.1484H64.2777L68.4682 67.7692H65.5433L64.8402 65.6923H61.0294L60.3263 67.7692H57.4717ZM61.8309 63.2033H64.0387L62.9418 59.9396L61.8309 63.2033Z" fill="#211551"/>
<path d="M73.9941 67.7692V56.2308H76.7221V67.7692H73.9941Z" fill="#211551"/>
<path d="M83.0234 67.7692V56.2308H85.5687L89.6185 62.3297V56.2308H92.3184V67.7692H89.9419L85.7233 61.4396V67.7692H83.0234Z" fill="#211551"/>
<path d="M98.6348 67.7692V56.2308H101.363V67.7692H98.6348Z" fill="#211551"/>
<path d="M107.664 67.7692V56.2308H110.21L114.259 62.3297V56.2308H116.959V67.7692H114.583L110.364 61.4396V67.7692H107.664Z" fill="#211551"/>
<path d="M128.225 68C125.16 68 122.882 65.5275 122.882 62.033V62C122.882 58.6374 125.132 56 128.169 56C129.899 56 131.122 56.6099 132.163 57.6648L130.559 59.9396C129.856 59.2473 129.167 58.8516 128.183 58.8516C126.763 58.8516 125.666 60.2363 125.666 62V62.033C125.666 63.9121 126.777 65.2473 128.338 65.2473C129.013 65.2473 129.519 65.0824 129.913 64.7692V63.3681H127.986V61.0275H132.5V66.2033C131.459 67.2253 130.025 68 128.225 68Z" fill="#211551"/>
</g>
<defs>
<clipPath id="clip0_303_3547">
<rect width="163" height="68" fill="white" transform="translate(0.5)"/>
</clipPath>
</defs>
</svg>
