<svg width="210" height="38" viewBox="0 0 210 38" fill="none" xmlns="http://www.w3.org/2000/svg">
<path d="M67.3278 25.302C64.2818 25.302 62.4962 22.9212 62.4962 20.2253C62.4962 17.1093 64.5269 15.0436 67.3278 15.0436C68.7983 15.0436 69.7786 15.6388 70.689 16.199L72.1595 13.5731C71.1091 12.9079 69.3585 12.1026 67.5029 12.1026C62.6712 12.1026 59.2051 15.5338 59.2051 20.2253C59.2051 24.8819 62.7413 28.3481 67.5029 28.3481C69.5336 28.3481 71.0041 27.5078 72.1595 26.8076L70.689 24.1817C69.7786 24.8119 68.4132 25.302 67.3278 25.302ZM77.6563 4.92517H80.7724V27.9279H77.6563V4.92517ZM98.7334 12.5928L98.3833 13.9232C97.543 13.0129 95.7574 12.1026 93.8668 12.1026C90.0155 12.1026 86.4793 15.1486 86.4793 20.1203C86.4793 25.267 90.0155 28.3831 93.8668 28.3831C95.7574 28.3831 97.473 27.4728 98.3833 26.5625L98.7334 27.9629H101.359V12.6978H98.7334V12.5928ZM98.4533 20.3304C98.4533 23.8315 96.3176 25.4071 94.2869 25.4071C92.2212 25.4071 89.8404 24.0066 89.8404 20.1553C89.8404 17.7045 91.1359 15.0786 94.0418 15.0786C96.2476 15.0786 98.4533 16.8642 98.4533 20.1553V20.3304ZM112.493 21.5558C114.629 22.116 115.539 22.5361 115.539 23.6215C115.539 24.4618 114.804 25.3371 113.088 25.3371C111.513 25.3371 110.217 24.7769 108.992 24.1116L107.591 26.7375C108.677 27.4028 111.093 28.3131 113.088 28.3131C116.519 28.3131 118.515 26.0023 118.515 23.6565C118.515 19.6301 114.559 18.9999 113.508 18.6498C111.303 18.0546 110.742 17.5994 110.742 16.6891C110.742 15.7088 111.583 15.0436 113.193 15.0436C114.594 15.0436 115.644 15.4637 116.624 15.9539L118.095 13.328C116.694 12.7328 115.049 12.1026 113.193 12.1026C109.832 12.1026 107.801 14.4834 107.801 16.6891C107.801 20.2253 110.777 21.1356 112.493 21.5558ZM129.194 21.5558C131.329 22.116 132.24 22.5361 132.24 23.6215C132.24 24.4618 131.504 25.3371 129.789 25.3371C128.213 25.3371 126.918 24.7769 125.693 24.1116L124.292 26.7375C125.377 27.4028 127.793 28.3131 129.789 28.3131C133.22 28.3131 135.216 26.0023 135.216 23.6565C135.216 19.6301 131.259 18.9999 130.209 18.6498C128.003 18.0546 127.443 17.5994 127.443 16.6891C127.443 15.7088 128.283 15.0436 129.894 15.0436C131.294 15.0436 132.345 15.4637 133.325 15.9539L134.796 13.328C133.395 12.7328 131.75 12.1026 129.894 12.1026C126.533 12.1026 124.502 14.4834 124.502 16.6891C124.467 20.2253 127.478 21.1356 129.194 21.5558ZM148.73 12.1026C146.84 12.1026 145.124 13.0129 144.214 13.9232L143.864 12.5227H141.238V34.2651H144.179V26.7025L144.284 26.6325C145.124 27.5428 146.84 28.2781 148.485 28.2781C152.442 28.2781 156.118 25.7222 156.118 20.0153C156.188 14.9035 152.652 12.1026 148.73 12.1026ZM148.38 25.4071C146.349 25.4071 144.214 23.8315 144.214 20.3304V20.1553C144.214 16.7942 146.42 15.0786 148.625 15.0786C151.566 15.0786 152.827 17.7045 152.827 20.1553C152.827 24.0066 150.446 25.4071 148.38 25.4071ZM173.554 12.5928L173.204 13.9932C172.363 13.0829 170.578 12.1726 168.687 12.1726C164.836 12.1726 161.3 15.2186 161.3 20.1903C161.3 25.3371 164.836 28.4531 168.687 28.4531C170.578 28.4531 172.293 27.5428 173.204 26.6325L173.554 28.033H176.18V12.7678H173.554V12.5928ZM173.239 20.3304C173.239 23.8315 171.103 25.4071 169.072 25.4071C167.006 25.4071 164.626 24.0066 164.626 20.1553C164.626 17.7045 165.921 15.0786 168.827 15.0786C171.033 15.0786 173.239 16.8642 173.239 20.1553V20.3304ZM187.313 21.5558C189.449 22.116 190.359 22.5361 190.359 23.6215C190.359 24.4618 189.624 25.3371 187.909 25.3371C186.333 25.3371 185.038 24.7769 183.812 24.1116L182.412 26.7375C183.497 27.4028 185.913 28.3131 187.909 28.3131C191.34 28.3131 193.335 26.0023 193.335 23.6565C193.335 19.6301 189.379 18.9999 188.329 18.6498C186.123 18.0546 185.563 17.5994 185.563 16.6891C185.563 15.7088 186.403 15.0436 188.014 15.0436C189.414 15.0436 190.464 15.4637 191.445 15.9539L192.915 13.328C191.515 12.7328 189.869 12.1026 188.014 12.1026C184.652 12.1026 182.622 14.4834 182.622 16.6891C182.587 20.2253 185.598 21.1356 187.313 21.5558ZM203.979 21.5558C206.115 22.116 207.025 22.5361 207.025 23.6215C207.025 24.4618 206.29 25.3371 204.574 25.3371C202.999 25.3371 201.703 24.7769 200.478 24.1116L199.077 26.7375C200.163 27.4028 202.578 28.3131 204.574 28.3131C208.005 28.3131 210.001 26.0023 210.001 23.6565C210.001 19.6301 206.045 18.9999 204.994 18.6498C202.789 18.0546 202.228 17.5994 202.228 16.6891C202.228 15.7088 203.069 15.0436 204.679 15.0436C206.08 15.0436 207.13 15.4637 208.11 15.9539L209.581 13.328C208.18 12.7328 206.535 12.1026 204.679 12.1026C201.318 12.1026 199.287 14.4834 199.287 16.6891C199.287 20.2253 202.298 21.1356 203.979 21.5558Z" fill="#333333"/>
<path d="M32.491 0.0585938H26.8541C25.8737 0.0585938 24.8934 0.793845 24.7884 1.77418L23.9481 5.80054C23.843 6.53578 23.2128 7.02595 22.4776 7.02595H16.2455C7.80764 7.13098 0 13.5031 0 22.5362C0 30.5889 6.72227 37.9414 16.3855 37.9414H22.7577C23.738 37.9414 24.7183 37.2061 24.8234 36.2258L25.6637 32.1995C25.7687 31.4642 26.3989 30.974 27.1342 30.974H32.631C42.0492 30.974 49.0165 23.7616 49.0165 15.5688C48.8765 6.53579 41.1739 0.0585938 32.491 0.0585938ZM32.3509 24.987H25.7337C24.7534 24.987 23.9131 25.7223 23.668 26.7026L22.8277 30.6239C22.7227 31.3592 22.0925 31.8493 21.3572 31.8493H16.4556C11.4489 31.8493 6.05705 28.3131 6.05705 22.4311C6.05705 17.0393 10.8187 13.013 16.4556 13.013H24.0181C24.9984 13.013 25.8387 12.2777 26.0838 11.2974L26.9241 7.37607C27.0291 6.64082 27.6593 6.15065 28.3946 6.15065H32.3159C37.5677 6.15065 42.7144 9.8269 42.7144 15.5688C42.6444 20.8206 38.1279 24.987 32.3509 24.987Z" fill="#333333"/>
</svg>
