<svg width="190" height="48" viewBox="0 0 190 48" fill="none" xmlns="http://www.w3.org/2000/svg">
<g clip-path="url(#clip0_303_3568)">
<path fill-rule="evenodd" clip-rule="evenodd" d="M34.8245 30.3898C27.9275 30.3898 22.3375 24.7957 22.3375 17.8968C22.3375 10.9964 27.9275 5.40366 34.8245 5.40366C41.7216 5.40366 47.3116 10.9964 47.3116 17.8968C47.3116 24.7957 41.7216 30.3898 34.8245 30.3898ZM34.8245 0C24.9398 0 16.9248 8.01745 16.9248 17.9069C16.9248 27.7978 24.9398 35.8153 34.8245 35.8153C44.7092 35.8153 52.7243 27.7978 52.7243 17.9069C52.7243 8.01745 44.7092 0 34.8245 0Z" fill="#FFB81C"/>
<path fill-rule="evenodd" clip-rule="evenodd" d="M26.3942 17.9061C26.3942 22.565 30.1683 26.341 34.825 26.341C39.4817 26.341 43.2559 22.565 43.2559 17.9061C43.2559 13.2486 39.4817 9.47262 34.825 9.47262C30.1683 9.47262 26.3942 13.2486 26.3942 17.9061ZM22.3379 17.8959C22.3379 10.997 27.9279 5.40283 34.825 5.40283C41.722 5.40283 47.3121 10.997 47.3121 17.8959C47.3121 24.7963 41.722 30.389 34.825 30.389C27.9279 30.389 22.3379 24.7963 22.3379 17.8959ZM108.157 34.1663H104.106L108.898 40.9285V47.1729H112.278V40.9285L117.072 34.1663H113.02L110.589 37.7023L108.157 34.1663ZM128.467 40.4455C128.467 42.6884 130.122 44.3262 132.14 44.3262C134.156 44.3262 135.812 42.6884 135.812 40.4455C135.812 38.652 134.156 37.0127 132.14 37.0127C130.122 37.0127 128.467 38.652 128.467 40.4455ZM139.329 40.428C139.329 44.6375 136.312 47.6033 132.14 47.6033C127.967 47.6033 124.95 44.6375 124.95 40.428C124.95 36.4949 128.399 33.7356 132.14 33.7356C135.881 33.7356 139.329 36.4949 139.329 40.428ZM160.293 45.051C161.449 43.4292 161.587 41.8074 161.622 39.9106H154.915V42.5666H157.673C157.535 44.0677 156.416 44.827 154.95 44.827C152.726 44.827 151.519 42.7732 151.519 40.7557C151.519 38.7717 152.673 36.651 154.898 36.651C156.26 36.651 157.241 37.4786 157.708 38.7208L160.915 37.3754C159.793 34.9434 157.726 33.7361 155.052 33.7361C150.863 33.7361 148.002 36.5128 148.002 40.7383C148.002 44.827 150.846 47.6037 154.933 47.6037C157.105 47.6037 159.018 46.827 160.293 45.051ZM176.604 38.1855H176.569L175.172 42.3251H177.984L176.604 38.1855ZM174.242 44.9128L173.345 47.1717H169.759L174.759 34.1666H178.449L183.346 47.1717H179.741L178.897 44.9128H174.242ZM187.053 35.1372H187.456C187.658 35.1372 187.777 35.2274 187.777 35.3932C187.777 35.5518 187.658 35.6507 187.456 35.6507H187.053V35.1372ZM188.153 36.4798L187.716 35.8689C187.939 35.8049 188.093 35.642 188.093 35.3772C188.093 35.0514 187.846 34.8594 187.469 34.8594H186.747V36.4798H187.053V35.9198H187.392L187.786 36.4798H188.153ZM185.985 35.719C185.985 34.9496 186.585 34.3198 187.375 34.3198C188.161 34.3198 188.756 34.9408 188.756 35.7103C188.756 36.4798 188.157 37.1081 187.366 37.1081C186.579 37.1081 185.985 36.4885 185.985 35.719ZM185.824 35.719C185.824 36.5656 186.498 37.2638 187.366 37.2638C188.234 37.2638 188.919 36.5569 188.919 35.7103C188.919 34.8638 188.243 34.167 187.375 34.167C186.507 34.167 185.824 34.8725 185.824 35.719Z" fill="#FF8200"/>
<path fill-rule="evenodd" clip-rule="evenodd" d="M34.8245 23.6419C31.658 23.6419 29.0919 21.0732 29.0919 17.9066C29.0919 14.7386 31.658 12.1713 34.8245 12.1713C37.9909 12.1713 40.557 14.7386 40.557 17.9066C40.557 21.0732 37.9909 23.6419 34.8245 23.6419ZM34.8245 9.47168C30.1678 9.47168 26.3936 13.2477 26.3936 17.9066C26.3936 22.564 30.1678 26.34 34.8245 26.34C39.4812 26.34 43.2554 22.564 43.2554 17.9066C43.2554 13.2477 39.4812 9.47168 34.8245 9.47168Z" fill="white"/>
<path fill-rule="evenodd" clip-rule="evenodd" d="M143.776 8.86768L138.99 20.4779L134.434 10.0488H131.45L139.022 26.5448L143.776 15.0655L148.53 26.5448L156.169 10.0488H153.185L148.596 20.4779L143.776 8.86768ZM59.3642 11.7208H59.4296C60.347 10.5077 61.1335 9.62185 62.8389 9.62185C63.7243 9.62185 64.4454 9.91712 65.1999 10.3433L63.9525 12.7375C63.8848 12.6908 63.8197 12.6446 63.7563 12.5996C63.3302 12.2971 62.9793 12.048 62.3795 12.048C59.495 12.048 59.3642 15.7542 59.3642 17.7557V25.4633H56.7414V10.048H59.3642V11.7208ZM13.4814 14.6405H13.416C12.2035 13.0987 10.6944 12.0499 8.62991 12.0499C5.44889 12.0499 3.18816 14.6725 3.18816 17.7561C3.18816 20.8063 5.28606 23.4637 8.49761 23.4637C10.6944 23.4637 12.2354 22.479 13.5134 20.8063H13.5803V24.3161C12.0712 25.3328 10.5315 25.8899 8.69533 25.8899C4.04012 25.8899 0.5 22.4136 0.5 17.7561C0.5 13.1641 4.2044 9.62229 8.72877 9.62229C10.3992 9.62229 12.1046 10.1794 13.4814 11.1641V14.6405ZM77.3283 12.0495C79.6225 12.0495 81.4907 13.8517 81.8512 16.0829H72.6397C72.9668 13.8517 75.0661 12.0495 77.3283 12.0495ZM77.5566 23.4619C74.5733 23.4619 72.5409 21.1666 72.5089 18.3128H84.6049C84.868 13.7208 82.2453 9.62185 77.2949 9.62185C72.4754 9.62185 69.8207 13.3935 69.8207 17.952C69.8207 22.3797 72.7706 25.8895 77.3604 25.8895C80.5079 25.8895 82.9984 24.3157 84.474 21.5608L82.2453 20.2808C81.229 22.1179 79.7854 23.4619 77.5566 23.4619ZM93.061 17.5922C93.061 20.6104 94.8303 23.4628 98.1102 23.4628C101.486 23.4628 103.255 20.7413 103.255 17.6242C103.255 14.542 101.322 12.0489 98.0767 12.0489C95.028 12.0489 93.061 14.7064 93.061 17.5922ZM93.1918 12.2467H93.2587C94.5366 10.5406 96.4383 9.62273 98.5681 9.62273C103.093 9.62273 105.945 13.5253 105.945 17.7886C105.945 22.1842 103.158 25.8904 98.5362 25.8904C96.4383 25.8904 94.5032 24.9726 93.2587 23.2984H93.1918V34.1231H90.5691V10.0489H93.1918V12.2467ZM171.873 16.0829C171.513 13.8517 169.643 12.0495 167.349 12.0495C165.087 12.0495 162.989 13.8517 162.66 16.0829H171.873ZM162.529 18.3128C162.563 21.1666 164.595 23.4619 167.579 23.4619C169.807 23.4619 171.251 22.1179 172.267 20.2808L174.496 21.5608C173.02 24.3157 170.529 25.8895 167.382 25.8895C162.791 25.8895 159.841 22.3797 159.841 17.952C159.841 13.3935 162.497 9.62185 167.317 9.62185C172.267 9.62185 174.889 13.7208 174.627 18.3128H162.529ZM183.148 11.7208H183.083V10.048H180.46V25.4633H183.083V17.7557C183.083 15.7542 183.214 12.048 186.098 12.048C186.696 12.048 187.045 12.2951 187.471 12.5959C187.536 12.642 187.603 12.6896 187.673 12.7375L188.917 10.3433C188.163 9.91712 187.443 9.62185 186.558 9.62185C184.852 9.62185 184.066 10.5077 183.148 11.7208ZM119.677 23.2904C116.623 23.2904 114.146 20.8119 114.146 17.7559C114.146 14.6999 116.623 12.2228 119.677 12.2228C122.733 12.2228 125.209 14.6999 125.209 17.7559C125.209 20.8119 122.733 23.2904 119.677 23.2904ZM119.677 9.62202C115.188 9.62202 111.549 13.2642 111.549 17.7558C111.549 22.2489 115.188 25.8897 119.677 25.8897C124.168 25.8897 127.807 22.2489 127.807 17.7558C127.807 13.2642 124.168 9.62202 119.677 9.62202ZM29.0924 17.9069C29.0924 14.7389 31.6584 12.1717 34.8249 12.1717C37.9914 12.1717 40.5574 14.7389 40.5574 17.9069C40.5574 21.0749 37.9914 23.6422 34.8249 23.6422C31.6584 23.6422 29.0924 21.0749 29.0924 17.9069Z" fill="black"/>
</g>
<defs>
<clipPath id="clip0_303_3568">
<rect width="189" height="48" fill="white" transform="translate(0.5)"/>
</clipPath>
</defs>
</svg>
