<?xml version="1.0" encoding="UTF-8"?>
<svg version="1.1" xmlns="http://www.w3.org/2000/svg" width="216" height="87">
<path d="M0 0 C3.71944076 3.18809208 5.78900355 6.39487034 7.0625 11.125 C7.10375 12.0325 7.145 12.94 7.1875 13.875 C5.1875 15.875 5.1875 15.875 3.3125 15.9375 C-0.12987224 14.21631388 -1.09283024 11.25292273 -2.8125 7.875 C-10.62485717 7.02583074 -16.25623661 10.22637996 -22.4296875 14.82421875 C-33.54840497 24.23626378 -40.56895932 36.95552853 -42.22265625 51.4765625 C-42.4097985 58.55542154 -41.83755178 64.09368528 -37.3125 69.75 C-33.37102265 72.70610801 -28.4827858 72.38750431 -23.8125 71.875 C-14.78473582 69.40260762 -7.12371897 64.45879988 -0.75 57.6875 C2.79506942 54.02285482 6.04070187 51.57496455 11.1875 50.875 C15.52703195 51.58639868 18.45588591 52.39219204 21.1875 55.875 C22.13671875 58.72265625 22.13671875 58.72265625 22.875 61.9375 C23.12636719 63.00097656 23.37773438 64.06445312 23.63671875 65.16015625 C24.1875 67.875 24.1875 67.875 24.1875 69.875 C30.29912584 68.25721669 33.28377926 63.56854978 36.76513672 58.64282227 C38.45827128 55.3480975 38.49366456 53.3247201 38.375 49.640625 C38.34954102 48.43422363 38.32408203 47.22782227 38.29785156 45.98486328 C38.26143555 44.7111084 38.22501953 43.43735352 38.1875 42.125 C37.78842234 13.86400052 37.78842234 13.86400052 45.1875 2.875 C48.6875 1.625 48.6875 1.625 52.1875 1.875 C55.92024031 4.9015462 57.08673963 8.6500357 57.9375 13.23046875 C59.0432805 24.92755313 56.22189307 36.53288534 51.4375 47.125 C48.81881708 53.17478855 48.63024034 56.65506839 50.94140625 62.91796875 C51.63412586 64.59455098 52.40361107 66.23905789 53.1875 67.875 C57.4297374 67.32663179 59.95350805 65.90100314 63.375 63.375 C67.97303547 60.01092007 70.32810201 58.30054922 76.1875 58.875 C79.0625 60.875 79.0625 60.875 81.1875 62.875 C81.81398437 62.23691406 82.44046875 61.59882812 83.0859375 60.94140625 C84.31183594 59.70197266 84.31183594 59.70197266 85.5625 58.4375 C86.78066406 57.20193359 86.78066406 57.20193359 88.0234375 55.94140625 C91.31260132 52.8006704 93.59659349 52.5319667 98.15234375 52.58984375 C101.37785622 53.04178696 102.99650197 54.55511974 105.1875 56.875 C105.88476488 58.19259019 106.55741034 59.52399695 107.1875 60.875 C107.74179688 60.38128906 108.29609375 59.88757812 108.8671875 59.37890625 C109.59164062 58.73824219 110.31609375 58.09757812 111.0625 57.4375 C111.78179687 56.79941406 112.50109375 56.16132812 113.2421875 55.50390625 C115.64651933 53.49064044 116.79818295 52.91924057 119.9375 52.5625 C123.96997261 52.95023775 126.447188 53.9501074 129.1875 56.875 C130.84569718 59.63041222 132.30305558 62.41783746 133.6953125 65.31640625 C135.29490843 68.0591689 136.41622489 69.35054629 139.1875 70.875 C145.99525214 71.87204086 152.61034823 70.60015456 159.1875 68.875 C159.1875 70.195 159.1875 71.515 159.1875 72.875 C152.57764264 78.22583691 146.33837126 79.34562261 138.03125 79.19140625 C132.97736452 78.62909207 130.461827 76.149327 127 72.6875 C124.60128475 68.96535565 123.40517166 65.10917645 122.1875 60.875 C119.75477547 61.37717035 119.75477547 61.37717035 117.1875 62.875 C115.82502956 65.23045737 114.73098638 67.38860662 113.6875 69.875 C110.91009136 76.4929402 110.91009136 76.4929402 107.46875 78.3125 C106.7159375 78.498125 105.963125 78.68375 105.1875 78.875 C102.80840353 77.22793322 101.64977481 76.32503661 100.1875 73.875 C99.44354826 69.54750609 99.25813633 65.2608739 99.1875 60.875 C95.09960979 60.61913783 95.09960979 60.61913783 91.6875 62.875 C89.26680159 65.77983809 87.39162786 68.71175429 85.44140625 71.93359375 C83.65740617 74.69573718 81.7600026 76.83019024 79.1875 78.875 C77.8675 78.545 76.5475 78.215 75.1875 77.875 C74.5275 74.575 73.8675 71.275 73.1875 67.875 C71.99125 68.7825 70.795 69.69 69.5625 70.625 C68.82644531 71.16898437 68.09039062 71.71296875 67.33203125 72.2734375 C65.60862103 73.5605016 63.92265973 74.89763681 62.25 76.25 C58.15052896 78.42522953 54.73560407 78.85019422 50.1875 77.875 C46.55709621 75.11273624 44.26514182 71.92093407 42.1875 67.875 C42.1875 67.215 42.1875 66.555 42.1875 65.875 C41.5275 65.875 40.8675 65.875 40.1875 65.875 C39.960625 66.431875 39.73375 66.98875 39.5 67.5625 C37.81064043 70.53899068 35.68997295 72.55127512 33.1875 74.875 C32.589375 75.473125 31.99125 76.07125 31.375 76.6875 C28.05089804 78.49201249 24.88077388 78.5939775 21.1875 77.875 C18.6875 75.875 18.6875 75.875 17.1875 73.875 C16.135625 74.8340625 16.135625 74.8340625 15.0625 75.8125 C11.84618069 78.11985951 10.12692158 78.79460364 6.1875 78.875 C1.88148757 77.27079929 -0.21494093 75.575947 -2.8125 71.875 C-3.34617188 72.26171875 -3.87984375 72.6484375 -4.4296875 73.046875 C-14.95549125 80.40401119 -23.77860739 83.31496308 -36.8125 81.875 C-42.51221678 80.24236926 -46.62638346 75.7121042 -49.8125 70.875 C-54.74422236 61.73462735 -54.01734366 50.36302472 -51.32324219 40.6237793 C-46.0537859 23.53851838 -35.10768961 9.93121758 -19.20703125 1.4921875 C-12.81466557 -1.34225682 -6.65058904 -2.66023562 0 0 Z M49.1875 11.875 C49.12691406 12.58527344 49.06632812 13.29554687 49.00390625 14.02734375 C48.92011719 14.94644531 48.83632812 15.86554687 48.75 16.8125 C48.66878906 17.72902344 48.58757812 18.64554688 48.50390625 19.58984375 C48.1875 21.875 48.1875 21.875 47.1875 22.875 C47.11436433 25.40549402 47.09502473 27.90804837 47.125 30.4375 C47.12951172 31.14841797 47.13402344 31.85933594 47.13867188 32.59179688 C47.15049136 34.35290013 47.16842737 36.11396036 47.1875 37.875 C50.40448769 32.08442215 50.32029943 26.51382462 50.25 20.0625 C50.24548828 19.27423828 50.24097656 18.48597656 50.23632812 17.67382812 C50.22461312 15.74085239 50.20667998 13.80791607 50.1875 11.875 C49.8575 11.875 49.5275 11.875 49.1875 11.875 Z M6.3125 60.875 C3.78967652 63.78215519 3.78967652 63.78215519 4.375 67.6875 C4.7771875 69.2653125 4.7771875 69.2653125 5.1875 70.875 C7.56055578 71.29280879 7.56055578 71.29280879 10.1875 70.875 C12.9922708 67.46920689 13.68495366 64.19689851 14.1875 59.875 C10.52282597 58.51383536 9.60140591 58.58706545 6.3125 60.875 Z " fill="#358EE2" transform="translate(52.8125,2.125)"/>
<path d="M0 0 C-1.74890409 4.25626147 -3.85498787 5.30569691 -7.890625 7.18359375 C-10.56214992 8.21757284 -13.15489294 8.71548929 -16 9 C-15.67 7.68 -15.34 6.36 -15 5 C-17.31 4.67 -19.62 4.34 -22 4 C-21.67 3.34 -21.34 2.68 -21 2 C-18.70703125 1.65625 -18.70703125 1.65625 -15.8125 1.5 C-10.47604652 1.12672476 -5.04906983 -1.94194994 0 0 Z " fill="#347FE0" transform="translate(213,72)"/>
<path d="M0 0 C-3.45680903 2.76544722 -7.14341602 4.84921278 -11 7 C-11 6.01 -11 5.02 -11 4 C-9.35546875 2.578125 -9.35546875 2.578125 -7.1875 1.25 C-6.47980469 0.80140625 -5.77210937 0.3528125 -5.04296875 -0.109375 C-3 -1 -3 -1 0 0 Z M-12 6 C-13.33286976 9.01033512 -14.74419314 10.87638334 -17.1875 13.0625 C-22.71169125 18.40178108 -26.68806921 25.1014905 -30 32 C-30.66 32 -31.32 32 -32 32 C-29.75598098 24.5958213 -21.13060123 6 -12 6 Z " fill="#38B4EC" transform="translate(36,5)"/>
<path d="M0 0 C4.99834992 -0.29402058 8.05062318 -0.20219742 12 3 C15.09309173 6.86636466 16.77309495 10.00808892 17 15 C16.34 15.66 15.68 16.32 15 17 C12.875 16.625 12.875 16.625 11 16 C11.66 15.01 12.32 14.02 13 13 C12.86393557 9.73445362 12.69356657 7.7490519 10.4375 5.3125 C7.0640307 3.49601653 3.61716813 2.26600884 0 1 C0 0.67 0 0.34 0 0 Z " fill="#3BBAEE" transform="translate(43,1)"/>
<path d="M0 0 C1.8125 1.375 1.8125 1.375 3 3 C3 3.66 3 4.32 3 5 C0.36 4.67 -2.28 4.34 -5 4 C-8.35622898 8.5052839 -8.35622898 8.5052839 -9 14 C-9.99 14.33 -10.98 14.66 -12 15 C-11.53482785 9.30164111 -10.15958895 5.78725598 -7 1 C-4.45132831 -0.27433584 -2.82594567 -0.27570202 0 0 Z " fill="#38B8ED" transform="translate(105,4)"/>
<path d="M0 0 C1.5078125 1.08984375 1.5078125 1.08984375 3 3 C3.1796875 6.06640625 3.1796875 6.06640625 2.875 9.5625 C2.78992188 10.71878906 2.70484375 11.87507813 2.6171875 13.06640625 C2 16 2 16 -1 18 C-0.835 17.2575 -0.67 16.515 -0.5 15.75 C0.20054587 10.49590599 0.07707499 5.29248251 0 0 Z " fill="#39AFEC" transform="translate(108,15)"/>
<path d="M0 0 C1.875 2.0625 1.875 2.0625 3 4 C2.01 4 1.02 4 0 4 C-0.33 3.67 -0.66 3.34 -1 3 C-2.68608966 2.92794489 -4.37500659 2.91613932 -6.0625 2.9375 C-6.98160156 2.94652344 -7.90070312 2.95554687 -8.84765625 2.96484375 C-9.55792969 2.97644531 -10.26820312 2.98804688 -11 3 C-11.33 2.34 -11.66 1.68 -12 1 C-7.58980512 -0.78507888 -4.6019882 -1.43172966 0 0 Z " fill="#3ABAED" transform="translate(51,7)"/>
<path d="M0 0 C0.66 0 1.32 0 2 0 C2 1.32 2 2.64 2 4 C1.34 4 0.68 4 0 4 C0.33 4.66 0.66 5.32 1 6 C1.06950541 7.54023996 1.08452357 9.08334988 1.0625 10.625 C1.05347656 11.44226562 1.04445313 12.25953125 1.03515625 13.1015625 C1.02355469 13.72804688 1.01195313 14.35453125 1 15 C0.01 15 -0.98 15 -2 15 C-1.85973717 12.68715544 -1.71264442 10.37472409 -1.5625 8.0625 C-1.48128906 6.77472656 -1.40007812 5.48695312 -1.31640625 4.16015625 C-1 1 -1 1 0 0 Z " fill="#37AAEC" transform="translate(93,20)"/>
<path d="M0 0 C0 4.38968456 -2.12805101 5.76905739 -5 9 C-5.66 8.34 -6.32 7.68 -7 7 C-4.69 4.69 -2.38 2.38 0 0 Z M-9 8 C-8.34 8.33 -7.68 8.66 -7 9 C-7.99 9.99 -8.98 10.98 -10 12 C-10 9 -10 9 -9 8 Z M-13 11 C-12.34 11.33 -11.68 11.66 -11 12 C-13.1385485 14.1385485 -14.13275314 14.42655063 -17 15 C-15.68 13.68 -14.36 12.36 -13 11 Z " fill="#3482DF" transform="translate(54,58)"/>
<path d="M0 0 C1.09506492 3.28519475 1.09960608 5.73663415 1.0625 9.1875 C1.05347656 10.27417969 1.04445313 11.36085938 1.03515625 12.48046875 C1.02355469 13.31191406 1.01195313 14.14335937 1 15 C0.34 14.01 -0.32 13.02 -1 12 C-1.66 12 -2.32 12 -3 12 C-3.04254356 10.00045254 -3.04080783 7.99958364 -3 6 C-2.67 5.67 -2.34 5.34 -2 5 C-1.835 4.34 -1.67 3.68 -1.5 3 C-1 1 -1 1 0 0 Z " fill="#39B7ED" transform="translate(101,15)"/>
<path d="M0 0 C-3.45680903 2.76544722 -7.14341602 4.84921278 -11 7 C-11 6.01 -11 5.02 -11 4 C-9.35546875 2.578125 -9.35546875 2.578125 -7.1875 1.25 C-6.47980469 0.80140625 -5.77210937 0.3528125 -5.04296875 -0.109375 C-3 -1 -3 -1 0 0 Z " fill="#3BBBED" transform="translate(36,5)"/>
<path d="M0 0 C0.33 0 0.66 0 1 0 C1 8.25 1 16.5 1 25 C0.67 25 0.34 25 0 25 C0 16.75 0 8.5 0 0 Z " fill="#25AADF" transform="translate(89,29)"/>
<path d="M0 0 C3.71824156 1.23941385 4.67378745 2.9233963 7 6 C7.66 6.66 8.32 7.32 9 8 C7.68 8 6.36 8 5 8 C0 2.77272727 0 2.77272727 0 0 Z " fill="#347FE1" transform="translate(178,70)"/>
<path d="M0 0 C0.66 0.99 1.32 1.98 2 3 C2.66 3 3.32 3 4 3 C3.25 4.9375 3.25 4.9375 2 7 C-0.125 7.75 -0.125 7.75 -2 8 C-1.125 1.125 -1.125 1.125 0 0 Z " fill="#38A1E8" transform="translate(99,36)"/>
<path d="M0 0 C1 3 1 3 0.22265625 4.82421875 C-0.8515625 6.54947917 -1.92578125 8.27473958 -3 10 C-3.66 10 -4.32 10 -5 10 C-3.84414715 6.08788267 -2.64465038 3.1254959 0 0 Z " fill="#35A9E9" transform="translate(9,27)"/>
<path d="M0 0 C0.66 0.66 1.32 1.32 2 2 C-1.465 4.97 -1.465 4.97 -5 8 C-5 5 -5 5 -2.5 2.3125 C-1.675 1.549375 -0.85 0.78625 0 0 Z " fill="#39B2EB" transform="translate(27,16)"/>
<path d="M0 0 C0.33 0 0.66 0 1 0 C1.33 2.64 1.66 5.28 2 8 C1.01 7.67 0.02 7.34 -1 7 C-1.625 4.625 -1.625 4.625 -2 2 C-1.34 1.34 -0.68 0.68 0 0 Z " fill="#2E70DF" transform="translate(129,73)"/>
<path d="M0 0 C5.61 0 11.22 0 17 0 C17 0.33 17 0.66 17 1 C11.39 1 5.78 1 0 1 C0 0.67 0 0.34 0 0 Z " fill="#0095AF" transform="translate(15,85)"/>
<path d="M0 0 C2.64 0.33 5.28 0.66 8 1 C7.67 1.66 7.34 2.32 7 3 C5.02 3 3.04 3 1 3 C0.67 2.01 0.34 1.02 0 0 Z " fill="#3680E4" transform="translate(102,77)"/>
<path d="M0 0 C1.98 1.65 3.96 3.3 6 5 C5.34 5.66 4.68 6.32 4 7 C2.35 5.02 0.7 3.04 -1 1 C-0.67 0.67 -0.34 0.34 0 0 Z " fill="#347EE1" transform="translate(6,74)"/>
<path d="M0 0 C3.63 0 7.26 0 11 0 C11 0.33 11 0.66 11 1 C7.37 1 3.74 1 0 1 C0 0.67 0 0.34 0 0 Z " fill="#13A9E7" transform="translate(192,72)"/>
<path d="M0 0 C0.33 0 0.66 0 1 0 C1 3.63 1 7.26 1 11 C0.67 11 0.34 11 0 11 C0 7.37 0 3.74 0 0 Z " fill="#0E86E9" transform="translate(151,66)"/>
<path d="M0 0 C0.33 0 0.66 0 1 0 C1 3.3 1 6.6 1 10 C0.67 10 0.34 10 0 10 C0 6.7 0 3.4 0 0 Z " fill="#15A9F2" transform="translate(90,19)"/>
<path d="M0 0 C2.97 0 5.94 0 9 0 C9 0.33 9 0.66 9 1 C6.03 1 3.06 1 0 1 C0 0.67 0 0.34 0 0 Z " fill="#3D82D9" transform="translate(20,73)"/>
<path d="M0 0 C2.31 0 4.62 0 7 0 C7 0.33 7 0.66 7 1 C4.36 1.33 1.72 1.66 -1 2 C-0.67 1.34 -0.34 0.68 0 0 Z " fill="#3175E9" transform="translate(169,53)"/>
<path d="M0 0 C0.66 0.33 1.32 0.66 2 1 C0.35 2.32 -1.3 3.64 -3 5 C-1.125 1.125 -1.125 1.125 0 0 Z " fill="#0AB3F1" transform="translate(28,19)"/>
<path d="M0 0 C1.98 0 3.96 0 6 0 C6 0.99 6 1.98 6 3 C4.02 2.34 2.04 1.68 0 1 C0 0.67 0 0.34 0 0 Z " fill="#3AB6E1" transform="translate(44,10)"/>
<path d="M0 0 C2.64 0 5.28 0 8 0 C8 0.33 8 0.66 8 1 C5.36 1 2.72 1 0 1 C0 0.67 0 0.34 0 0 Z " fill="#2D7FE9" transform="translate(74,81)"/>
<path d="M0 0 C0.66 0 1.32 0 2 0 C2 2.31 2 4.62 2 7 C1.67 7 1.34 7 1 7 C0.67 4.69 0.34 2.38 0 0 Z " fill="#198BF2" transform="translate(124,71)"/>
<path d="M0 0 C0.33 0 0.66 0 1 0 C1 2.64 1 5.28 1 8 C0.67 8 0.34 8 0 8 C0 5.36 0 2.72 0 0 Z " fill="#199EF4" transform="translate(111,25)"/>
<path d="M0 0 C0.33 0 0.66 0 1 0 C1 2.64 1 5.28 1 8 C0.67 8 0.34 8 0 8 C0 5.36 0 2.72 0 0 Z " fill="#00BFF5" transform="translate(112,17)"/>
<path d="M0 0 C1.65 0 3.3 0 5 0 C4.67 0.66 4.34 1.32 4 2 C2.68 2 1.36 2 0 2 C0 1.34 0 0.68 0 0 Z " fill="#205CE0" transform="translate(106,68)"/>
<path d="M0 0 C0.33 0 0.66 0 1 0 C1 2.31 1 4.62 1 7 C0.67 7 0.34 7 0 7 C0 4.69 0 2.38 0 0 Z " fill="#00A3E1" transform="translate(12,46)"/>
<path d="M0 0 C1.98 0.99 1.98 0.99 4 2 C3.67 2.66 3.34 3.32 3 4 C2.01 2.68 1.02 1.36 0 0 Z " fill="#0091EE" transform="translate(54,2)"/>
<path d="M0 0 C1.98 0 3.96 0 6 0 C6 0.33 6 0.66 6 1 C4.02 1 2.04 1 0 1 C0 0.67 0 0.34 0 0 Z " fill="#27ABEE" transform="translate(194,82)"/>
<path d="M0 0 C1.98 0 3.96 0 6 0 C6 0.33 6 0.66 6 1 C4.02 1 2.04 1 0 1 C0 0.67 0 0.34 0 0 Z " fill="#33B3EE" transform="translate(123,59)"/>
<path d="M0 0 C0.33 0 0.66 0 1 0 C1 1.98 1 3.96 1 6 C0.67 6 0.34 6 0 6 C0 4.02 0 2.04 0 0 Z " fill="#007FEC" transform="translate(11,54)"/>
<path d="M0 0 C1.98 0 3.96 0 6 0 C6 0.33 6 0.66 6 1 C4.02 1 2.04 1 0 1 C0 0.67 0 0.34 0 0 Z " fill="#007FEC" transform="translate(62,51)"/>
<path d="M0 0 C0.33 0 0.66 0 1 0 C1 1.98 1 3.96 1 6 C0.67 6 0.34 6 0 6 C0 4.02 0 2.04 0 0 Z " fill="#209AE9" transform="translate(111,11)"/>
<path d="M0 0 C1.65 0 3.3 0 5 0 C5 0.33 5 0.66 5 1 C3.35 1 1.7 1 0 1 C0 0.67 0 0.34 0 0 Z " fill="#1884E9" transform="translate(188,82)"/>
<path d="M0 0 C0.33 0.66 0.66 1.32 1 2 C1.66 2.33 2.32 2.66 3 3 C2.01 3 1.02 3 0 3 C0 2.01 0 1.02 0 0 Z " fill="#1E46DB" transform="translate(59,69)"/>
<path d="M0 0 C0.33 0 0.66 0 1 0 C1 1.65 1 3.3 1 5 C0.67 5 0.34 5 0 5 C0 3.35 0 1.7 0 0 Z " fill="#02B2F7" transform="translate(12,61)"/>
<path d="M0 0 C0.99 0.33 1.98 0.66 3 1 C1.68 1.33 0.36 1.66 -1 2 C-0.67 1.34 -0.34 0.68 0 0 Z " fill="#278CE9" transform="translate(147,63)"/>
<path d="M0 0 C0 0.99 0 1.98 0 3 C-0.66 2.67 -1.32 2.34 -2 2 C-1.34 1.34 -0.68 0.68 0 0 Z " fill="#0265D6" transform="translate(135,61)"/>
<path d="M0 0 C1.65 0 3.3 0 5 0 C5 0.33 5 0.66 5 1 C3.35 1 1.7 1 0 1 C0 0.67 0 0.34 0 0 Z " fill="#35C9E3" transform="translate(100,2)"/>
<path d="M0 0 C4 1 4 1 4 1 Z " fill="#1B6AF5" transform="translate(108,81)"/>
<path d="M0 0 C4 1 4 1 4 1 Z " fill="#1B54E4" transform="translate(103,81)"/>
<path d="M0 0 C0.66 0.33 1.32 0.66 2 1 C1.01 1 0.02 1 -1 1 C-0.67 0.67 -0.34 0.34 0 0 Z " fill="#035FEC" transform="translate(120,74)"/>
<path d="M0 0 C1.485 0.99 1.485 0.99 3 2 C2.01 2 1.02 2 0 2 C0 1.34 0 0.68 0 0 Z " fill="#2A6AD3" transform="translate(78,69)"/>
<path d="M0 0 C1 4 1 4 1 4 Z " fill="#00BFF5" transform="translate(175,67)"/>
<path d="M0 0 C1 4 1 4 1 4 Z " fill="#03BFDF" transform="translate(77,64)"/>
<path d="M0 0 C0.66 0.33 1.32 0.66 2 1 C1.01 1 0.02 1 -1 1 C-0.67 0.67 -0.34 0.34 0 0 Z " fill="#039FF5" transform="translate(47,62)"/>
<path d="M0 0 C1 4 1 4 1 4 Z " fill="#1462ED" transform="translate(103,59)"/>
<path d="M0 0 C1 4 1 4 1 4 Z " fill="#429FFF" transform="translate(102,55)"/>
<path d="M0 0 C1 4 1 4 1 4 Z " fill="#1E74EE" transform="translate(90,54)"/>
<path d="M0 0 C1 4 1 4 1 4 Z " fill="#188AF5" transform="translate(0,41)"/>
<path d="M0 0 C1 4 1 4 1 4 Z " fill="#039FF5" transform="translate(1,37)"/>
<path d="M0 0 C1 4 1 4 1 4 Z " fill="#037FD5" transform="translate(91,14)"/>
<path d="M0 0 C0.66 0.33 1.32 0.66 2 1 C1.01 1 0.02 1 -1 1 C-0.67 0.67 -0.34 0.34 0 0 Z " fill="#039FF5" transform="translate(24,7)"/>
<path d="M0 0 C3 1 3 1 3 1 Z " fill="#1C71DB" transform="translate(35,83)"/>
<path d="M0 0 C3 1 3 1 3 1 Z " fill="#0000D9" transform="translate(59,82)"/>
<path d="M0 0 C3 1 3 1 3 1 Z " fill="#209BE8" transform="translate(200,81)"/>
<path d="M0 0 C3 1 3 1 3 1 Z " fill="#209BE8" transform="translate(62,81)"/>
<path d="M0 0 C3 1 3 1 3 1 Z " fill="#209BE8" transform="translate(56,81)"/>
<path d="M0 0 C0.66 0.66 1.32 1.32 2 2 C1.34 2 0.68 2 0 2 C0 1.34 0 0.68 0 0 Z " fill="#00AAF2" transform="translate(181,77)"/>
<path d="M0 0 C0.66 0 1.32 0 2 0 C1.67 0.66 1.34 1.32 1 2 C0.67 1.34 0.34 0.68 0 0 Z " fill="#04A9D4" transform="translate(49,75)"/>
<path d="" fill="#047FF2" transform="translate(0,0)"/>
<path d="M0 0 C3 1 3 1 3 1 Z " fill="#38AAE8" transform="translate(29,72)"/>
<path d="M0 0 C3 1 3 1 3 1 Z " fill="#042AE5" transform="translate(32,71)"/>
<path d="M0 0 C3 1 3 1 3 1 Z " fill="#00AAF2" transform="translate(205,70)"/>
<path d="M0 0 C3 1 3 1 3 1 Z " fill="#2071BD" transform="translate(209,69)"/>
<path d="" fill="#3838C5" transform="translate(0,0)"/>
<path d="" fill="#209BE8" transform="translate(0,0)"/>
<path d="" fill="#042AE5" transform="translate(0,0)"/>
<path d="" fill="#1C71DB" transform="translate(0,0)"/>
<path d="" fill="#1C63C7" transform="translate(0,0)"/>
<path d="" fill="#20B8FF" transform="translate(0,0)"/>
<path d="M0 0 C3 1 3 1 3 1 Z " fill="#20B8FF" transform="translate(62,62)"/>
<path d="M0 0 C0.99 0.495 0.99 0.495 2 1 C1.01 1.495 1.01 1.495 0 2 C0 1.34 0 0.68 0 0 Z " fill="#007FC7" transform="translate(162,58)"/>
<path d="" fill="#1C38E5" transform="translate(0,0)"/>
<path d="M0 0 C3 1 3 1 3 1 Z " fill="#20C5EF" transform="translate(150,53)"/>
<path d="M0 0 C3 1 3 1 3 1 Z " fill="#20C5EF" transform="translate(145,53)"/>
<path d="M0 0 C3 1 3 1 3 1 Z " fill="#047FF2" transform="translate(59,52)"/>
<path d="" fill="#047FF2" transform="translate(0,0)"/>
<path d="" fill="#2063F2" transform="translate(0,0)"/>
<path d="" fill="#2063F2" transform="translate(0,0)"/>
<path d="" fill="#387EE3" transform="translate(0,0)"/>
<path d="" fill="#2070E3" transform="translate(0,0)"/>
<path d="" fill="#04D4FF" transform="translate(0,0)"/>
<path d="" fill="#0454C7" transform="translate(0,0)"/>
<path d="M0 0 C3 1 3 1 3 1 Z " fill="#4BB9D5" transform="translate(55,19)"/>
<path d="" fill="#04D4FF" transform="translate(0,0)"/>
<path d="M0 0 C3 1 3 1 3 1 Z " fill="#1C8DF2" transform="translate(38,12)"/>
<path d="" fill="#16ADF3" transform="translate(0,0)"/>
<path d="M0 0 C3 1 3 1 3 1 Z " fill="#00549D" transform="translate(41,11)"/>
<path d="" fill="#047FF2" transform="translate(0,0)"/>
<path d="M0 0 C3 1 3 1 3 1 Z " fill="#04D4FF" transform="translate(34,1)"/>
<path d="M0 0 C3 1 3 1 3 1 Z " fill="#1C38E5" transform="translate(50,0)"/>
<path d="M0 0 C3 1 3 1 3 1 Z " fill="#2F74D7" transform="translate(37,0)"/>
<path d="M0 0 C2 1 2 1 2 1 Z " fill="#067FBF" transform="translate(33,84)"/>
<path d="M0 0 C2 1 2 1 2 1 Z " fill="#00BFBF" transform="translate(13,84)"/>
<path d="M0 0 C2 1 2 1 2 1 Z " fill="#06BFFF" transform="translate(11,83)"/>
<path d="M0 0 C2 1 2 1 2 1 Z " fill="#0000D9" transform="translate(158,82)"/>
<path d="M0 0 C2 1 2 1 2 1 Z " fill="#007FEC" transform="translate(130,82)"/>
<path d="M0 0 C2 1 2 1 2 1 Z " fill="#2A2ACA" transform="translate(38,82)"/>
<path d="M0 0 C2 1 2 1 2 1 Z " fill="#2AAADD" transform="translate(186,81)"/>
<path d="M0 0 C2 1 2 1 2 1 Z " fill="#2A2ACA" transform="translate(160,81)"/>
<path d="M0 0 C2 1 2 1 2 1 Z " fill="#06BFFF" transform="translate(156,81)"/>
<path d="M0 0 C2 1 2 1 2 1 Z " fill="#063FEC" transform="translate(132,81)"/>
<path d="M0 0 C2 1 2 1 2 1 Z " fill="#00FFFF" transform="translate(204,80)"/>
<path d="M0 0 C2 1 2 1 2 1 Z " fill="#00FFFF" transform="translate(184,80)"/>
<path d="M0 0 C2 1 2 1 2 1 Z " fill="#003FAC" transform="translate(112,80)"/>
<path d="M0 0 C2 1 2 1 2 1 Z " fill="#007FEC" transform="translate(101,80)"/>
<path d="M0 0 C2 1 2 1 2 1 Z " fill="#007FEC" transform="translate(82,80)"/>
<path d="M0 0 C2 1 2 1 2 1 Z " fill="#0000D9" transform="translate(72,80)"/>
<path d="M0 0 C2 1 2 1 2 1 Z " fill="#007FEC" transform="translate(65,80)"/>
<path d="M0 0 C2 1 2 1 2 1 Z " fill="#0000D9" transform="translate(54,80)"/>
<path d="M0 0 C2 1 2 1 2 1 Z " fill="#003FAC" transform="translate(42,80)"/>
<path d="M0 0 C2 1 2 1 2 1 Z " fill="#0000D9" transform="translate(7,80)"/>
<path d="M0 0 C2 1 2 1 2 1 Z " fill="#00BFBF" transform="translate(206,79)"/>
<path d="" fill="#063FEC" transform="translate(0,0)"/>
<path d="M0 0 C2 1 2 1 2 1 Z " fill="#007FEC" transform="translate(84,79)"/>
<path d="M0 0 C2 1 2 1 2 1 Z " fill="#2A2ACA" transform="translate(208,78)"/>
<path d="" fill="#007FEC" transform="translate(0,0)"/>
<path d="M0 0 C2 1 2 1 2 1 Z " fill="#063FEC" transform="translate(115,78)"/>
<path d="" fill="#063FEC" transform="translate(0,0)"/>
<path d="" fill="#06BFFF" transform="translate(0,0)"/>
<path d="M0 0 C2 1 2 1 2 1 Z " fill="#007FEC" transform="translate(46,77)"/>
<path d="" fill="#063FEC" transform="translate(0,0)"/>
<path d="" fill="#00BFBF" transform="translate(0,0)"/>
<path d="" fill="#00BFBF" transform="translate(0,0)"/>
<path d="" fill="#007FEC" transform="translate(0,0)"/>
<path d="" fill="#007FEC" transform="translate(0,0)"/>
<path d="" fill="#00FFFF" transform="translate(0,0)"/>
<path d="" fill="#003FAC" transform="translate(0,0)"/>
<path d="" fill="#2AAADD" transform="translate(0,0)"/>
<path d="" fill="#00BFBF" transform="translate(0,0)"/>
<path d="" fill="#003FAC" transform="translate(0,0)"/>
<path d="M0 0 C2 1 2 1 2 1 Z " fill="#3094FF" transform="translate(18,72)"/>
<path d="" fill="#06BFFF" transform="translate(0,0)"/>
<path d="M0 0 C2 1 2 1 2 1 Z " fill="#067FBF" transform="translate(203,71)"/>
<path d="M0 0 C2 1 2 1 2 1 Z " fill="#0C7FFF" transform="translate(190,71)"/>
<path d="M0 0 C2 1 2 1 2 1 Z " fill="#2A55EC" transform="translate(16,71)"/>
<path d="" fill="#1CC5EE" transform="translate(0,0)"/>
<path d="" fill="#06BFFF" transform="translate(0,0)"/>
<path d="M0 0 C2 1 2 1 2 1 Z " fill="#00BFBF" transform="translate(35,70)"/>
<path d="" fill="#06BFFF" transform="translate(0,0)"/>
<path d="M0 0 C2 1 2 1 2 1 Z " fill="#2A55EC" transform="translate(37,69)"/>
<path d="" fill="#2A55EC" transform="translate(0,0)"/>
<path d="" fill="#0C7FFF" transform="translate(0,0)"/>
<path d="" fill="#2AD4FF" transform="translate(0,0)"/>
<path d="M0 0 C2 1 2 1 2 1 Z " fill="#06BFFF" transform="translate(39,68)"/>
<path d="" fill="#06BFFF" transform="translate(0,0)"/>
<path d="" fill="#2A2ACA" transform="translate(0,0)"/>
<path d="" fill="#1CC5EE" transform="translate(0,0)"/>
<path d="" fill="#2A2ACA" transform="translate(0,0)"/>
<path d="M0 0 C2 1 2 1 2 1 Z " fill="#06BFFF" transform="translate(42,66)"/>
<path d="" fill="#1C45DB" transform="translate(0,0)"/>
<path d="M0 0 C2 1 2 1 2 1 Z " fill="#063FEC" transform="translate(113,65)"/>
<path d="M0 0 C2 1 2 1 2 1 Z " fill="#388BDD" transform="translate(172,64)"/>
<path d="" fill="#2285EE" transform="translate(0,0)"/>
<path d="" fill="#00FFFF" transform="translate(0,0)"/>
<path d="" fill="#063FEC" transform="translate(0,0)"/>
<path d="M0 0 C2 1 2 1 2 1 Z " fill="#00FFFF" transform="translate(117,62)"/>
<path d="M0 0 C2 1 2 1 2 1 Z " fill="#00FFFF" transform="translate(119,61)"/>
<path d="" fill="#003FAC" transform="translate(0,0)"/>
<path d="" fill="#00BFBF" transform="translate(0,0)"/>
<path d="M0 0 C2 1 2 1 2 1 Z " fill="#063FEC" transform="translate(129,60)"/>
<path d="M0 0 C2 1 2 1 2 1 Z " fill="#067FBF" transform="translate(121,60)"/>
<path d="" fill="#06BFFF" transform="translate(0,0)"/>
<path d="M0 0 C2 1 2 1 2 1 Z " fill="#063FEC" transform="translate(140,56)"/>
<path d="M0 0 C2 1 2 1 2 1 Z " fill="#00FFFF" transform="translate(178,55)"/>
<path d="M0 0 C2 1 2 1 2 1 Z " fill="#063FEC" transform="translate(166,55)"/>
<path d="" fill="#0000D9" transform="translate(0,0)"/>
<path d="M0 0 C2 1 2 1 2 1 Z " fill="#2AE8E8" transform="translate(176,54)"/>
<path d="M0 0 C2 1 2 1 2 1 Z " fill="#2AD4FF" transform="translate(143,54)"/>
<path d="" fill="#2A6A9D" transform="translate(0,0)"/>
<path d="M0 0 C2 1 2 1 2 1 Z " fill="#007FEC" transform="translate(70,53)"/>
<path d="M0 0 C2 1 2 1 2 1 Z " fill="#063FEC" transform="translate(57,53)"/>
<path d="M0 0 C2 1 2 1 2 1 Z " fill="#0000D9" transform="translate(148,52)"/>
<path d="" fill="#067FBF" transform="translate(0,0)"/>
<path d="M0 0 C2 1 2 1 2 1 Z " fill="#003FAC" transform="translate(68,52)"/>
<path d="" fill="#00BFBF" transform="translate(0,0)"/>
<path d="" fill="#3094FF" transform="translate(0,0)"/>
<path d="" fill="#0C7FFF" transform="translate(0,0)"/>
<path d="" fill="#00BFBF" transform="translate(0,0)"/>
<path d="" fill="#06BFFF" transform="translate(0,0)"/>
<path d="" fill="#2AA8A8" transform="translate(0,0)"/>
<path d="" fill="#2AD4FF" transform="translate(0,0)"/>
<path d="" fill="#2AE8E8" transform="translate(0,0)"/>
<path d="" fill="#2A55EC" transform="translate(0,0)"/>
<path d="" fill="#2A68D5" transform="translate(0,0)"/>
<path d="" fill="#06BFFF" transform="translate(0,0)"/>
<path d="" fill="#00FFFF" transform="translate(0,0)"/>
<path d="" fill="#2A68D5" transform="translate(0,0)"/>
<path d="" fill="#06BFFF" transform="translate(0,0)"/>
<path d="M0 0 C2 1 2 1 2 1 Z " fill="#00BFBF" transform="translate(33,15)"/>
<path d="" fill="#2285EE" transform="translate(0,0)"/>
<path d="" fill="#55D1D1" transform="translate(0,0)"/>
<path d="M0 0 C2 1 2 1 2 1 Z " fill="#067FBF" transform="translate(36,13)"/>
<path d="" fill="#2AD4FF" transform="translate(0,0)"/>
<path d="" fill="#2AE8E8" transform="translate(0,0)"/>
<path d="" fill="#06BFFF" transform="translate(0,0)"/>
<path d="" fill="#2AE8E8" transform="translate(0,0)"/>
<path d="M0 0 C2 1 2 1 2 1 Z " fill="#003FAC" transform="translate(26,6)"/>
<path d="M0 0 C2 1 2 1 2 1 Z " fill="#06BFFF" transform="translate(29,4)"/>
<path d="M0 0 C2 1 2 1 2 1 Z " fill="#00FFFF" transform="translate(98,3)"/>
<path d="M0 0 C2 1 2 1 2 1 Z " fill="#06BFFF" transform="translate(32,2)"/>
<path d="" fill="#0000D9" transform="translate(0,0)"/>
<path d="" fill="#0C7FFF" transform="translate(0,0)"/>
<path d="" fill="#5555BB" transform="translate(0,0)"/>
<path d="" fill="#5555BB" transform="translate(0,0)"/>
<path d="" fill="#5555BB" transform="translate(0,0)"/>
<path d="" fill="#00FFFF" transform="translate(0,0)"/>
<path d="" fill="#0000D9" transform="translate(0,0)"/>
<path d="" fill="#007F7F" transform="translate(0,0)"/>
<path d="" fill="#007F7F" transform="translate(0,0)"/>
<path d="" fill="#007F7F" transform="translate(0,0)"/>
<path d="" fill="#0000D9" transform="translate(0,0)"/>
<path d="" fill="#0C7FFF" transform="translate(0,0)"/>
<path d="" fill="#0C7FFF" transform="translate(0,0)"/>
<path d="" fill="#00FFFF" transform="translate(0,0)"/>
<path d="" fill="#00FFFF" transform="translate(0,0)"/>
<path d="" fill="#007F7F" transform="translate(0,0)"/>
<path d="" fill="#00FFFF" transform="translate(0,0)"/>
<path d="" fill="#0C7FFF" transform="translate(0,0)"/>
<path d="" fill="#00FFFF" transform="translate(0,0)"/>
<path d="" fill="#0C7FFF" transform="translate(0,0)"/>
<path d="" fill="#5555BB" transform="translate(0,0)"/>
<path d="" fill="#0C7FFF" transform="translate(0,0)"/>
<path d="" fill="#00FFFF" transform="translate(0,0)"/>
<path d="" fill="#00FFFF" transform="translate(0,0)"/>
<path d="" fill="#0C7FFF" transform="translate(0,0)"/>
<path d="" fill="#007F7F" transform="translate(0,0)"/>
<path d="" fill="#5555BB" transform="translate(0,0)"/>
<path d="" fill="#00FFFF" transform="translate(0,0)"/>
<path d="" fill="#0C7FFF" transform="translate(0,0)"/>
<path d="" fill="#007F7F" transform="translate(0,0)"/>
<path d="" fill="#0C7FFF" transform="translate(0,0)"/>
<path d="" fill="#0C7FFF" transform="translate(0,0)"/>
<path d="" fill="#388BDD" transform="translate(0,0)"/>
<path d="" fill="#0C7FFF" transform="translate(0,0)"/>
<path d="" fill="#0C7FFF" transform="translate(0,0)"/>
<path d="" fill="#0C7FFF" transform="translate(0,0)"/>
<path d="" fill="#0C7FFF" transform="translate(0,0)"/>
<path d="" fill="#0C7FFF" transform="translate(0,0)"/>
<path d="" fill="#0C7FFF" transform="translate(0,0)"/>
<path d="" fill="#0C7FFF" transform="translate(0,0)"/>
<path d="" fill="#0000D9" transform="translate(0,0)"/>
<path d="" fill="#0C7FFF" transform="translate(0,0)"/>
<path d="" fill="#0C7FFF" transform="translate(0,0)"/>
<path d="" fill="#0C7FFF" transform="translate(0,0)"/>
<path d="" fill="#5555BB" transform="translate(0,0)"/>
<path d="" fill="#007F7F" transform="translate(0,0)"/>
<path d="" fill="#0C7FFF" transform="translate(0,0)"/>
<path d="" fill="#5555BB" transform="translate(0,0)"/>
<path d="" fill="#0C7FFF" transform="translate(0,0)"/>
<path d="" fill="#5555BB" transform="translate(0,0)"/>
<path d="" fill="#5555BB" transform="translate(0,0)"/>
<path d="" fill="#5555BB" transform="translate(0,0)"/>
<path d="" fill="#55AAFF" transform="translate(0,0)"/>
<path d="" fill="#55AAFF" transform="translate(0,0)"/>
<path d="" fill="#0C7FFF" transform="translate(0,0)"/>
<path d="" fill="#5555BB" transform="translate(0,0)"/>
<path d="" fill="#55AAFF" transform="translate(0,0)"/>
<path d="" fill="#5555BB" transform="translate(0,0)"/>
<path d="" fill="#0C7FFF" transform="translate(0,0)"/>
<path d="" fill="#5555BB" transform="translate(0,0)"/>
<path d="" fill="#0C7FFF" transform="translate(0,0)"/>
<path d="" fill="#5555BB" transform="translate(0,0)"/>
<path d="" fill="#5555BB" transform="translate(0,0)"/>
<path d="" fill="#0C7FFF" transform="translate(0,0)"/>
<path d="" fill="#5555BB" transform="translate(0,0)"/>
<path d="" fill="#0C7FFF" transform="translate(0,0)"/>
<path d="" fill="#007F7F" transform="translate(0,0)"/>
<path d="" fill="#5555BB" transform="translate(0,0)"/>
<path d="" fill="#0C7FFF" transform="translate(0,0)"/>
<path d="" fill="#0C7FFF" transform="translate(0,0)"/>
<path d="" fill="#55AAFF" transform="translate(0,0)"/>
<path d="" fill="#0C7FFF" transform="translate(0,0)"/>
<path d="" fill="#0C7FFF" transform="translate(0,0)"/>
<path d="" fill="#0C7FFF" transform="translate(0,0)"/>
<path d="" fill="#0C7FFF" transform="translate(0,0)"/>
<path d="" fill="#5555BB" transform="translate(0,0)"/>
<path d="" fill="#0C7FFF" transform="translate(0,0)"/>
<path d="" fill="#0C7FFF" transform="translate(0,0)"/>
<path d="" fill="#358EE0" transform="translate(0,0)"/>
<path d="" fill="#007F7F" transform="translate(0,0)"/>
<path d="" fill="#0C7FFF" transform="translate(0,0)"/>
<path d="" fill="#0C7FFF" transform="translate(0,0)"/>
<path d="" fill="#5555BB" transform="translate(0,0)"/>
<path d="" fill="#007F7F" transform="translate(0,0)"/>
<path d="" fill="#0C7FFF" transform="translate(0,0)"/>
<path d="" fill="#0C7FFF" transform="translate(0,0)"/>
<path d="" fill="#0C7FFF" transform="translate(0,0)"/>
<path d="" fill="#0C7FFF" transform="translate(0,0)"/>
<path d="" fill="#0C7FFF" transform="translate(0,0)"/>
<path d="" fill="#0C7FFF" transform="translate(0,0)"/>
<path d="" fill="#5555BB" transform="translate(0,0)"/>
<path d="" fill="#0C7FFF" transform="translate(0,0)"/>
<path d="" fill="#0C7FFF" transform="translate(0,0)"/>
<path d="" fill="#0C7FFF" transform="translate(0,0)"/>
<path d="" fill="#0C7FFF" transform="translate(0,0)"/>
<path d="" fill="#00FFFF" transform="translate(0,0)"/>
<path d="" fill="#0C7FFF" transform="translate(0,0)"/>
<path d="" fill="#0C7FFF" transform="translate(0,0)"/>
<path d="" fill="#0C7FFF" transform="translate(0,0)"/>
<path d="" fill="#0C7FFF" transform="translate(0,0)"/>
<path d="" fill="#0C7FFF" transform="translate(0,0)"/>
<path d="" fill="#0C7FFF" transform="translate(0,0)"/>
<path d="" fill="#0C7FFF" transform="translate(0,0)"/>
<path d="" fill="#00FFFF" transform="translate(0,0)"/>
<path d="" fill="#5555BB" transform="translate(0,0)"/>
<path d="" fill="#0C7FFF" transform="translate(0,0)"/>
<path d="" fill="#55D1D1" transform="translate(0,0)"/>
<path d="" fill="#007F7F" transform="translate(0,0)"/>
<path d="" fill="#55AAFF" transform="translate(0,0)"/>
<path d="" fill="#0C7FFF" transform="translate(0,0)"/>
<path d="" fill="#55AAFF" transform="translate(0,0)"/>
<path d="" fill="#0C7FFF" transform="translate(0,0)"/>
<path d="" fill="#0C7FFF" transform="translate(0,0)"/>
<path d="" fill="#00FFFF" transform="translate(0,0)"/>
<path d="" fill="#55AAFF" transform="translate(0,0)"/>
<path d="" fill="#007F7F" transform="translate(0,0)"/>
<path d="" fill="#0C7FFF" transform="translate(0,0)"/>
<path d="" fill="#00FFFF" transform="translate(0,0)"/>
<path d="" fill="#007F7F" transform="translate(0,0)"/>
<path d="" fill="#0C7FFF" transform="translate(0,0)"/>
<path d="" fill="#00FFFF" transform="translate(0,0)"/>
<path d="" fill="#55D1D1" transform="translate(0,0)"/>
<path d="" fill="#55D1D1" transform="translate(0,0)"/>
<path d="" fill="#0C7FFF" transform="translate(0,0)"/>
<path d="" fill="#55AAFF" transform="translate(0,0)"/>
<path d="" fill="#55D1D1" transform="translate(0,0)"/>
<path d="" fill="#55D1D1" transform="translate(0,0)"/>
<path d="" fill="#55AAFF" transform="translate(0,0)"/>
<path d="" fill="#55D1D1" transform="translate(0,0)"/>
<path d="" fill="#0C7FFF" transform="translate(0,0)"/>
<path d="" fill="#55D1D1" transform="translate(0,0)"/>
<path d="" fill="#55D1D1" transform="translate(0,0)"/>
<path d="" fill="#55D1D1" transform="translate(0,0)"/>
<path d="" fill="#0C7FFF" transform="translate(0,0)"/>
<path d="" fill="#0C7FFF" transform="translate(0,0)"/>
<path d="" fill="#0C7FFF" transform="translate(0,0)"/>
<path d="" fill="#00FFFF" transform="translate(0,0)"/>
<path d="" fill="#00FFFF" transform="translate(0,0)"/>
<path d="" fill="#00FFFF" transform="translate(0,0)"/>
<path d="" fill="#55AAFF" transform="translate(0,0)"/>
<path d="" fill="#00FFFF" transform="translate(0,0)"/>
<path d="" fill="#00FFFF" transform="translate(0,0)"/>
<path d="" fill="#0C7FFF" transform="translate(0,0)"/>
<path d="" fill="#55AAFF" transform="translate(0,0)"/>
<path d="" fill="#0C7FFF" transform="translate(0,0)"/>
</svg>
