<svg width="220" height="16" viewBox="0 0 220 16" fill="none" xmlns="http://www.w3.org/2000/svg">
<rect width="220" height="16" fill="#F5F5F5"/>
<g id="1st Line">
<g id="Frame 554">
<rect x="-39.5" y="-74.5" width="299" height="165" rx="19.5" fill="white"/>
<rect x="-39.5" y="-74.5" width="299" height="165" rx="19.5" stroke="#E3DDD1"/>
<path id="Vector" d="M2.71786 3.63836V12.4463H5.2849C6.20171 12.4463 7.81528 11.7749 8.65874 10.6294C9.61221 9.28651 9.61221 7.31163 8.8421 5.88972C7.59525 3.55936 4.99153 3.59886 2.71786 3.63836ZM10.0889 13.0388C8.80543 14.4212 7.04517 15.2901 5.24823 15.3296H0.11414C0.00412331 15.3296 0.0041229 15.0927 0.0041229 15.0927V0.834028C-0.0325492 0.63654 0.187483 0.715528 0.187483 0.715528H4.99153C8.4387 0.873518 11.2258 3.28288 11.8859 6.67967C12.3259 9.04953 11.6658 11.3799 10.0889 13.0388ZM24.6111 4.6258L22.8875 9.484H26.188C26.1513 9.484 24.6111 4.6258 24.6111 4.6258ZM31.0287 15.3691H28.2783L27.1781 12.4463H22.0074L20.9439 15.3691H17.9368C17.9368 15.3691 17.8634 15.4086 17.9001 15.2507L23.0342 0.794528C23.0342 0.794528 23.0709 0.715528 23.1442 0.715528H25.7846C25.9313 0.715528 25.8946 0.676037 25.968 0.834028L31.1754 15.2112C31.1754 15.1717 31.2854 15.3691 31.0287 15.3691ZM40.3068 15.3691H37.7764C37.703 15.3691 37.6664 15.3692 37.6664 15.2902V0.834028C37.6664 0.755033 37.703 0.715528 37.7764 0.715528H40.3068C40.4168 0.715528 40.4168 0.755033 40.4168 0.834028V15.2507C40.4168 15.3297 40.3801 15.3691 40.3068 15.3691ZM57.0659 15.3691H49.2914C49.2914 15.3691 49.1814 15.3692 49.1814 15.2902V0.834028C49.1814 0.755033 49.2181 0.715528 49.2914 0.715528H51.8218C51.9318 0.715528 51.9318 0.755033 51.9318 0.834028V12.4463H57.0659C57.1392 12.4463 57.1759 12.4858 57.1759 12.5648V15.2507C57.1759 15.3297 57.1392 15.3691 57.0659 15.3691ZM71.4047 15.3691H68.8743C68.801 15.3691 68.7643 15.3692 68.7643 15.2902V8.65455L64.0703 0.834028C64.0703 0.834028 64.0336 0.715528 64.1436 0.715528H66.9674L70.1578 5.69223L73.3483 0.715528H76.062C76.1354 0.715528 76.1354 0.834028 76.1354 0.834028L71.5514 8.65455V15.2902C71.5147 15.3297 71.5147 15.3691 71.4047 15.3691ZM109.324 15.3691H106.793C106.72 15.3691 106.683 15.3692 106.683 15.2902V9.28652H100.449C100.449 11.3009 100.486 13.2758 100.449 15.2507C100.449 15.3692 100.412 15.3691 100.339 15.3691H97.8086C97.7352 15.3691 97.6986 15.3692 97.6986 15.2902V0.834028C97.6986 0.755033 97.7352 0.715528 97.8086 0.715528H100.339C100.449 0.715528 100.449 0.75503 100.449 0.794528V6.36369H106.683V0.834028C106.683 0.755033 106.72 0.715528 106.793 0.715528H109.324C109.397 0.715528 109.434 0.75503 109.434 0.794528V15.2507C109.434 15.3297 109.434 15.3691 109.324 15.3691ZM123.919 4.6258L122.196 9.484H125.496L123.919 4.6258ZM130.337 15.3691H127.586L126.486 12.4463H121.315L120.252 15.3691H117.245C117.245 15.3691 117.171 15.4086 117.208 15.2507L122.342 0.794528C122.342 0.794528 122.379 0.715528 122.452 0.715528H125.093C125.239 0.715528 125.203 0.676037 125.276 0.834028L130.483 15.2112C130.483 15.1717 130.593 15.3691 130.337 15.3691ZM140.972 6.56118C141.705 6.60068 142.732 6.67968 143.319 6.00822C143.649 5.61324 143.685 4.98128 143.539 4.5468C143.172 3.51986 142.072 3.59886 141.118 3.59886H140.935L140.972 6.56118ZM140.862 15.3691H138.331C138.258 15.3691 138.221 15.3692 138.221 15.2902V0.834028C138.221 0.755033 138.258 0.715528 138.368 0.715528C139.651 0.715528 140.752 0.67604 141.815 0.67604C143.832 0.715537 144.786 1.229 145.776 2.69041C146.326 3.51986 146.619 4.5863 146.509 5.61324C146.399 6.87717 145.812 8.02259 144.602 8.53606C146.142 10.7874 147.939 12.8413 149.333 15.1717C149.37 15.2902 149.26 15.3296 149.186 15.3691H146.069C144.639 13.3548 143.245 11.4194 141.925 9.5235H141.045C141.045 9.5235 140.972 9.484 140.972 9.60249V15.2507C140.972 15.3297 140.935 15.3691 140.862 15.3691ZM162.498 15.1717C162.425 15.3691 162.461 15.3691 162.241 15.3691H159.784C159.674 15.3691 159.711 15.4086 159.601 15.1717L154.32 0.834028C154.284 0.63654 154.43 0.715528 154.43 0.715528H157.217L161.031 11.1429L164.662 0.715528H167.339C167.339 0.715528 167.522 0.676037 167.449 0.834028L162.498 15.1717ZM175.407 0.67604H184.465C184.538 0.715537 184.575 0.75503 184.575 0.794528V3.51986C184.575 3.59886 184.538 3.63836 184.465 3.63836H177.937V6.40319H182.778C182.888 6.40319 182.888 6.44269 182.888 6.52168V9.24702C182.888 9.32601 182.851 9.36552 182.778 9.36552H178.047V12.4463H184.758C184.831 12.4463 184.831 12.4858 184.831 12.5648V15.2902C184.831 15.3692 184.795 15.4086 184.721 15.4086H175.407C175.333 15.4086 175.297 15.4086 175.297 15.3296V0.873528C175.26 0.715537 175.333 0.67604 175.407 0.67604ZM196.75 15.6061C195.246 15.5271 193.889 14.6977 193.083 13.3153C192.899 12.9993 192.716 12.6438 192.716 12.2488C193.486 11.7354 194.256 11.2614 195.026 10.7874C195.21 11.1824 195.283 11.6169 195.576 11.9723C196.053 12.5253 196.64 12.9203 197.41 12.8018C198.4 12.6438 199.28 11.3404 198.767 10.3135C198.107 8.97054 196.603 8.85204 195.43 8.25958C193.963 7.46962 192.936 5.88973 192.973 4.23083C193.009 2.61142 194.183 0.992013 195.65 0.55754C197.557 0.00457293 199.61 0.794523 200.564 2.69041C200.6 2.72991 200.527 2.8879 200.527 2.8879C200.527 2.8879 198.657 4.23082 198.363 4.27031C198.033 3.71735 197.63 3.08538 196.97 3.08538C195.503 3.04589 195.136 4.5468 195.98 5.37625C197.557 6.48219 199.72 6.40319 200.857 8.33858C201.664 9.72099 201.884 11.6564 201.077 13.1178C200.234 14.6977 198.694 15.7246 196.75 15.6061ZM219.89 3.63836C218.57 3.63836 217.25 3.59886 215.893 3.63836C215.893 7.50913 215.929 11.3799 215.929 15.2507C215.929 15.3297 215.893 15.3691 215.819 15.3691H213.289C213.216 15.3691 213.179 15.3692 213.179 15.2902C213.179 11.3799 213.179 7.70661 213.216 3.67785H209.182C209.108 3.67785 209.072 3.67786 209.072 3.59886V0.873528C209.072 0.794533 209.108 0.755028 209.182 0.755028H219.89C219.963 0.755028 220 0.79453 220 0.834028V3.55936C220 3.59886 219.963 3.63836 219.89 3.63836Z" fill="#1A1719"/>
</g>
</g>
</svg>
