<svg width="200" height="26" viewBox="0 0 200 26" fill="none" xmlns="http://www.w3.org/2000/svg">
<path d="M75 0.332891H79.3333V12.3199C79.2 17.433 75 21.4287 70 21.2932C65.1667 21.1578 61.3 17.2298 61.1667 12.3199V0.332891H65.5V12.3199C65.6 14.995 67.8 17.0605 70.4333 16.959C72.9333 16.8574 74.9 14.8257 75 12.3199V0.332891ZM96.1333 21.2932H100.467V0.332891H96.1333V21.2932ZM4.33333 12.8956H13.1V8.76443H4.33333V4.49787H13.4V0.332891H0V21.2932H13.6667V17.1283H4.33333V12.8956ZM41.4667 20.8869C42.4333 22.0721 45.3667 22.7493 48 22.3091L44.4333 26C40.2667 26 36.1667 22.6477 35.2 21.1917C29.5333 19.7017 26.1333 13.8437 27.5667 8.0872C29.0333 2.33073 34.8 -1.12316 40.4667 0.332891C46.1333 1.78894 49.5333 7.68087 48.1 13.4373C47.2 16.8912 44.7333 19.6679 41.4667 20.8869ZM44.1 10.7961C44.1 7.27452 41.3 4.43015 37.8333 4.43015C34.3667 4.43015 31.5667 7.27452 31.5667 10.7961C31.5667 14.3177 34.3667 17.1621 37.8333 17.1621C41.2667 17.1283 44.0667 14.3177 44.1 10.7961ZM192.067 10.3559L199.367 0.265164H194L189.4 6.63116L184.8 0.265164H179.433L186.767 10.3559L178.9 21.2932H184.267L189.467 14.1146L194.667 21.2932H200L192.067 10.3559ZM163 6.73274C165.2 9.44167 164.867 13.4373 162.2 15.6722C160.433 17.1621 158.033 17.5346 155.933 16.7219L153.333 20.3451C158.533 23.054 164.933 20.9885 167.6 15.7061C169.733 11.5072 168.933 6.39412 165.6 3.07568L163 6.73274ZM130.7 13.3696L120.8 0.299027H116.633V21.2594H120.967V7.74859L131.2 21.2594H135V0.332891H130.667V13.3696H130.7ZM151.933 10.7961C151.967 7.27452 154.767 4.46401 158.2 4.43015C159 4.43015 159.8 4.59946 160.533 4.90421L163.133 1.28101C157.967 -1.46178 151.567 0.536065 148.833 5.81848C146.633 10.0512 147.467 15.2659 150.867 18.5843L153.4 14.9611C152.433 13.8098 151.9 12.3199 151.9 10.7961H151.933Z" fill="#231F20"/>
</svg>
