<svg width="212" height="44" viewBox="0 0 212 44" fill="none" xmlns="http://www.w3.org/2000/svg">
<g clip-path="url(#clip0_303_3506)">
<path d="M26.867 4C17.9203 4 10.667 11.2533 10.667 20.2C10.667 29.1467 17.9203 36.4 26.867 36.4C35.8137 36.4 43.067 29.1467 43.067 20.2C43.0563 11.2573 35.8097 4.01067 26.867 4ZM40.667 20.2C40.6697 22.648 40.015 25.0533 38.7737 27.1627L29.3643 15.4H39.8043C40.3763 16.936 40.6683 18.5613 40.667 20.2ZM26.867 6.4C31.671 6.40267 36.127 8.90267 38.635 13H15.099C17.6057 8.90267 22.063 6.40267 26.867 6.4ZM13.9297 15.4H24.3697L14.9603 27.164C12.867 23.596 12.4883 19.2773 13.9297 15.4ZM16.411 29.192L25.667 17.6213V33.944C22.0803 33.6307 18.7563 31.9253 16.411 29.192ZM28.067 33.944V17.6213L37.323 29.1907C34.9777 31.924 31.6563 33.6307 28.067 33.944Z" fill="black"/>
<path d="M83.9866 15.28C82.2293 15.28 80.5959 16.1867 79.6666 17.68H81.8879C83.8746 17.68 85.4879 19.292 85.4879 21.28V31.6H89.0879V20.38C89.0879 17.564 86.8026 15.28 83.9866 15.28ZM75.4666 7.12H79.0666V31.6H75.4666V7.12ZM56.2666 10H63.4666V31.6H67.0666V10H73.2719L74.2666 7.6H57.2613L56.2666 10ZM171.429 26.08V17.992C169.272 18.7533 167.829 20.792 167.829 23.08V26.68C167.829 29.0587 169.384 31.156 171.66 31.8467C173.935 32.5373 176.393 31.6573 177.715 29.68H175.029C173.041 29.68 171.429 28.068 171.429 26.08Z" fill="black"/>
<path d="M178.314 15.588C175.988 14.7653 173.4 15.628 172.029 17.68H174.714C176.704 17.68 178.314 19.292 178.314 21.28V31.6H181.914V7.12H178.314V15.588ZM107.64 15.76H111.24V31.6H107.64V15.76ZM138.457 26.08V7.12H134.857V26.68C134.856 29.0587 136.412 31.1573 138.686 31.8467C140.962 32.5373 143.422 31.6573 144.742 29.68H142.057C140.068 29.68 138.457 28.068 138.457 26.08Z" fill="black"/>
<path d="M143.543 15.28C141.74 15.28 140.057 16.18 139.057 17.68H141.743C143.731 17.68 145.343 19.292 145.343 21.28V29.368C147.5 28.6067 148.943 26.568 148.943 24.28V20.68C148.943 17.6974 146.525 15.28 143.543 15.28ZM125.257 15.28C123.368 15.2787 121.589 16.168 120.457 17.68H124.057C125.012 17.68 125.927 18.0587 126.603 18.7334C127.277 19.4094 127.656 20.3253 127.656 21.28V22.48H122.856C120.527 22.4774 118.532 24.1494 118.125 26.444C117.72 28.7374 119.02 30.992 121.209 31.7907C123.399 32.588 125.844 31.6974 127.009 29.68H125.257C123.995 29.6827 122.823 29.0227 122.172 27.94C121.52 26.86 121.485 25.5147 122.079 24.4H127.657V31.6H131.257V21.28C131.257 17.9667 128.571 15.28 125.257 15.28ZM160.029 15.28C158.227 15.28 156.543 16.18 155.543 17.68H158.229C160.217 17.68 161.829 19.292 161.829 21.28V29.368C163.987 28.6067 165.429 26.568 165.429 24.28V20.68C165.429 17.6974 163.012 15.28 160.029 15.28ZM154.943 26.08V17.992C152.787 18.7534 151.343 20.792 151.343 23.08V26.68C151.343 29.0587 152.897 31.156 155.173 31.8467C157.449 32.5374 159.908 31.6574 161.229 29.68H158.543C156.556 29.68 154.943 28.068 154.943 26.08ZM100.44 15.28C98.7266 15.28 97.1439 16.196 96.2879 17.68H98.6399C100.297 17.68 101.64 19.0227 101.64 20.68V21.64H95.6986L95.6879 17.84C93.5706 18.3854 92.0892 20.2934 92.0879 22.48V25.48C92.0879 28.2654 93.8346 30.7507 96.4559 31.692C99.0772 32.6334 102.007 31.828 103.779 29.68H101.107C98.1239 29.68 95.7066 27.2627 95.7066 24.28L95.7052 23.56H105.241V20.08C105.241 17.4294 103.091 15.28 100.44 15.28ZM118.787 19.0307C118.787 17.224 117.5 15.6747 115.724 15.344C113.949 15.012 112.191 15.9947 111.54 17.68H113.087C114.247 17.68 115.187 18.62 115.187 19.78V21.4307L118.787 19.0307ZM196.464 15.76L192.099 26.2974L187.735 15.76H183.837L190.151 31L186.324 40.24H188.921L199.061 15.76H196.464Z" fill="black"/>
</g>
<defs>
<clipPath id="clip0_303_3506">
<rect width="212" height="44" fill="white"/>
</clipPath>
</defs>
</svg>
