<svg width="49" height="48" viewBox="0 0 49 48" fill="none" xmlns="http://www.w3.org/2000/svg">
<g id="Group 4">
<path id="Vector 14" d="M23.2629 2.12218C11.8069 4.27513 7.25701 7.75585 2.89962 18.5396L1.70178 16.2849C6.49612 5.35264 11.4073 1.5964 25.1654 0.219727C25.1849 3.28652 25.0909 5.75862 25.3768 6.91354C36.3135 9.43923 39.3115 13.0918 41.1601 23.1196C41.246 23.6129 41.2199 23.3932 41.246 23.6129H47.7834C46.7285 34.061 45.5553 39.742 31.9297 46.3718L30.9432 44.7512L31.9297 44.4694C42.0558 39.2753 44.4319 34.8047 45.881 25.5153L40.9487 25.3039C33.1513 27.1456 30.2974 29.6145 29.393 37.9869C34.0686 36.5695 36.6058 33.9106 38.553 28.3338L40.9487 27.9815C38.0298 35.8093 35.0501 38.4575 27.8429 40.7349C27.1694 30.8984 29.239 26.8778 39.3281 23.6129C37.5307 13.5912 34.0978 10.2134 23.2629 8.53415C23.1354 6.3261 23.1862 4.80424 23.2629 2.12218Z" fill="#02382A"/>
<path id="Vector 15" d="M45.1058 17.3418C42.1269 10.186 39.2892 7.09724 31.8591 3.46091L32.8456 1.91077C39.1716 4.74114 42.4042 7.43352 46.9378 16.5667L45.1058 17.3418Z" fill="#02382A"/>
<path id="Union" fill-rule="evenodd" clip-rule="evenodd" d="M33.8976 3.29159C34.3795 2.14335 33.4496 0.658227 32.3013 0.17629C31.1531 -0.305646 29.8316 0.234492 29.3496 1.38272C28.8677 2.53095 29.4079 3.85246 30.5561 4.3344C31.7043 4.81634 33.4156 4.43982 33.8976 3.29159ZM16.3918 11.1703C17.202 11.8133 18.5919 11.7887 19.4821 11.2251C20.5342 10.5589 20.8471 9.166 20.181 8.11388C19.5148 7.06176 18.1219 6.74886 17.0698 7.415C16.4535 7.80523 15.9682 8.52249 15.8059 9.26122C10.0516 13.4268 8.32614 16.6023 7.76137 23.5423C5.31409 23.2665 3.88045 23.2343 1.13801 23.5423C2.66438 39.0975 10.3844 46.7405 25.7994 47.5695V16.1866C26.5504 15.6976 27.0678 14.7102 27.0678 13.8187C27.0678 12.5734 26.0583 11.5639 24.813 11.5639C23.5678 11.5639 22.5583 12.5734 22.5583 13.8187C22.5583 14.7317 23.101 15.7453 23.8814 16.2211C23.8745 16.7142 23.8671 17.1764 23.86 17.6234L23.86 17.6236L23.8599 17.6244C23.8354 19.1676 23.8137 20.5297 23.8233 22.357C23.7567 22.6107 23.6927 22.6693 23.5243 22.5843C22.4069 21.6415 21.7783 21.036 21.199 20.3348C21.4369 19.4292 21.0822 18.2894 20.4054 17.6376C19.5085 16.7737 18.0811 16.8005 17.2172 17.6974C16.3534 18.5943 16.3801 20.0217 17.277 20.8855C17.9235 21.5082 19.0039 21.8205 19.8803 21.6105C20.9032 22.5959 21.8831 23.5625 23.897 25.5856V45.4557C9.17917 42.3284 6.26277 36.8108 3.32231 25.3743C7.44568 24.9545 9.08838 25.3456 10.3684 25.6561C15.1301 27.3344 18.8282 31.0651 19.2466 37.9868C13.507 35.1396 11.7942 32.9504 10.3684 28.4041L8.18414 27.8404C10.9999 35.7946 14.1542 38.2001 21.2899 40.5234C21.6636 30.3094 19.0897 26.6357 9.80474 23.5423C10.0487 17.9036 11.4218 15.165 16.3918 11.1703ZM25.7995 29.2496L29.8727 25.0471C30.7029 25.2727 31.7273 25.058 32.3919 24.5301C33.367 23.7556 33.5296 22.3372 32.7551 21.3621C31.9806 20.387 30.5622 20.2244 29.5871 20.9989C28.8389 21.5933 28.3741 22.7216 28.5484 23.655C28.0396 24.3707 27.2483 25.1476 26.6451 25.697C26.3533 25.9284 26.1811 25.9735 25.7995 25.8675V26.4312V29.2496ZM29.3141 43.5778C30.5108 43.2334 32.1663 43.8074 32.5107 45.0041C32.8552 46.2008 31.758 47.567 30.5613 47.9114C29.3646 48.2558 28.1153 47.5649 27.7709 46.3682C27.4265 45.1715 28.1174 43.9222 29.3141 43.5778ZM2.80357 15.874C1.58469 15.619 0.303275 16.8142 0.0482467 18.033C-0.206781 19.2519 0.574571 20.4467 1.79345 20.7018C3.01232 20.9568 4.20716 20.1754 4.46218 18.9566C4.71721 17.7377 4.02244 16.129 2.80357 15.874ZM44.4553 19.6204C43.9058 18.5029 44.1798 16.7722 45.2973 16.2228C46.4148 15.6733 47.9527 16.5132 48.5021 17.6307C49.0515 18.7482 48.591 20.0996 47.4735 20.649C46.356 21.1984 45.0047 20.7379 44.4553 19.6204Z" fill="#02382A"/>
</g>
</svg>
