<svg xmlns="http://www.w3.org/2000/svg" width="1024" height="313" viewBox="-7.28 -7.28 841.258 257.223"><path fill="#181a1d" d="m143.498 58.282 17.5-30.4c5.1-8.9 2.1-20.3-6.8-25.4-8.9-5.1-20.3-2.1-25.4 6.8l-17.6 30.4c-37.4-11.8-79.3 3.5-99.7 38.9-13 22.5-14.6 48.4-6.7 71.1l32.4-56.2c7.4-12.9 19.5-22.1 33.9-26 14.4-3.9 29.4-1.9 42.3 5.6 26.6 15.4 35.8 49.6 20.4 76.2-15.4 26.6-49.5 35.8-76.2 20.4l18.6-32.2c8.9 5.1 20.3 2.1 25.4-6.8 5.1-8.9 2.1-20.3-6.8-25.4-8.9-5.1-20.3-2.1-25.4 6.8l-59.2 102.7c-5.1 8.9-2.1 20.3 6.8 25.4 8.9 5.1 20.3 2.1 25.4-6.8l17.6-30.4c37.4 11.8 79.3-3.5 99.7-38.9 20.4-35.3 12.7-79.2-16.2-105.8z" class="st0"/><path fill="#181a1d" d="M505.5 79.383c-23.6 0-42.401 17.8-42.401 42s18.8 42 42.4 42c23.6 0 42.399-17.8 42.399-42s-18.799-42-42.399-42zm184.5 0c-23.6 0-42.401 17.8-42.401 42s18.8 42 42.4 42c23.6 0 42.399-17.8 42.399-42s-18.799-42-42.399-42zm69.398.298v82.6h15.8v-34.299c0-5.9-1.199-14.9-1.199-14.9s5.699 7.299 9.799 11.199l41.201 38.8h1.7V80.483h-15.801v34.299c0 5.6 1.101 14.9 1.101 14.9s-5.601-7.499-9.601-11.199l-41.3-38.8zm-537.2.702v82h16.9v-26.9H251c16.7 0 30.5-8.4 30.5-27.6 0-19.2-13.8-27.5-30.5-27.5zm84 0v81.898h55.9v-14.799h-39v-19H356v-14.5h-32.9v-18.8h37.299v-14.8zm84.2 0v81.898h53.9v-14.799h-37.1v-67.1zm175.601 0V95.18h23.299v67.1h16.9v-67.1h23.4V80.383zm-60.5 14c14.9 0 25 11.7 25 27s-10.1 27-25 27-25-11.7-25-27 10.1-27 25-27zm184.5 0c14.9 0 25 11.7 25 27s-10.1 27-25 27-25-11.7-25-27 10.1-27 25-27zm-450.9.898h11.4c8.1 0 13.6 3.402 13.6 12.602 0 9.1-5.3 12.798-13.6 12.798h-11.4z"/></svg>