<svg xmlns="http://www.w3.org/2000/svg" xmlns:xlink="http://www.w3.org/1999/xlink" viewBox="0 0 302 17"><g id="ss43994383_1"><path d="M 0 17 L 0 0 L 302 0 L 302 17 Z" fill="transparent"></path><path d="M 301.646 1.825 C 302.089 1.878 301.929 1.323 302 1.217 C 301.256 1.34 301.664 1.966 301.646 1.825 Z" fill="rgb(249,207,1)"></path><path d="M 294.278 3.076 L 294.411 2.855 L 293.321 3.411 Z" fill="rgb(249,207,1)"></path><path d="M 287.388 3.066 C 288.043 4.009 289.885 2.917 291.107 3.251 L 291.311 3.463 L 291.869 2.705 C 290.381 2.828 288.442 3.331 287.388 3.066 Z" fill="rgb(249,207,1)"></path><path d="M 283.713 1.022 C 283.943 1.393 282.916 1.34 284.572 1.137 C 284.492 1.093 284.466 1.075 284.413 1.04 C 284.262 1.04 284.058 1.04 283.713 1.014 Z" fill="rgb(249,207,1)"></path><path d="M 284.412 1.049" fill="rgb(249,207,1)"></path><path d="M 281.065 1.27 L 282.021 0.935 C 281.818 0.714 280.967 0.67 281.286 0.512 C 280.303 0.697 280.507 0.908 281.065 1.261 Z" fill="rgb(249,207,1)"></path><path d="M 280.162 1.956 L 280.658 1.815 C 280.569 1.727 280.436 1.691 280.162 1.956 Z" fill="rgb(249,207,1)"></path><path d="M 281.703 1.525 L 280.649 1.825 C 280.79 1.975 280.799 2.283 281.127 1.719 C 281.038 2.001 281.251 1.728 281.694 1.525 Z" fill="rgb(249,207,1)"></path><path d="M 282.296 1.666 C 282.836 1.869 283.527 1.992 282.57 2.327 C 284.395 2.195 284.129 1.534 282.296 1.666 Z" fill="rgb(249,207,1)"></path><path d="M 287.043 4.046 L 287.76 4.319 L 288.38 4.002 C 288.07 4.16 286.998 3.746 287.043 4.046 Z" fill="rgb(249,207,1)"></path><path d="M 275.105 0.803 C 275.043 1.005 275.433 1.34 275.504 1.596 L 276.212 1.367 C 275.849 1.235 275.158 1.111 275.114 0.812 Z" fill="rgb(249,207,1)"></path><path d="M 275.504 1.596 L 274.45 1.948 C 275.397 1.983 275.566 1.816 275.504 1.596 Z" fill="rgb(249,207,1)"></path><path d="M 279.993 3.005 L 281.729 2.273 L 279.657 3.014 Z" fill="rgb(249,207,1)"></path><path d="M 271.076 0.793 L 271.669 0.326 L 270.606 1.031 Z" fill="rgb(249,207,1)"></path><path d="M 268.401 0.89 C 268.844 0.502 267.79 0.238 268.259 0 C 267.533 0.071 266.913 0.405 266.355 0.705 C 266.949 0.538 267.578 0.573 268.401 0.89 Z" fill="rgb(249,207,1)"></path><path d="M 265.417 1.146 C 265.709 1.049 266.019 0.881 266.355 0.705 C 266.037 0.793 265.727 0.925 265.417 1.146 Z" fill="rgb(249,207,1)"></path><path d="M 272.652 1.85 C 272.572 1.727 272.413 1.41 271.82 1.277 L 272.236 1.841 C 272.36 1.841 272.51 1.841 272.652 1.841 Z" fill="rgb(249,207,1)"></path><path d="M 272.245 1.86 L 272.227 1.843 C 271.775 1.825 271.465 1.816 271.333 1.816 C 271.448 1.816 271.722 1.834 272.245 1.86 Z" fill="rgb(249,207,1)"></path><path d="M 272.758 1.852 C 272.758 1.852 272.687 1.852 272.652 1.852 C 272.696 1.904 272.714 1.922 272.758 1.852 Z" fill="rgb(249,207,1)"></path><path d="M 277.222 2.512 C 276.602 2.829 275.309 3.173 276.566 3.649 C 277.009 3.261 276.292 2.988 277.222 2.512 Z" fill="rgb(249,207,1)"></path><path d="M 273.272 2.555 L 274.396 2.678 C 274.37 2.528 274.166 2.308 274.476 2.158 Z" fill="rgb(249,207,1)"></path><path d="M 272.723 2.741 L 273.272 2.556 L 272.855 2.512 Z" fill="rgb(249,207,1)"></path><path d="M 267.339 1.666 C 266.851 1.913 266.329 1.939 265.727 1.974 C 266.373 2.08 267.037 2.142 267.666 2.133 C 267.755 1.957 268.029 1.639 267.339 1.657 Z" fill="rgb(249,207,1)"></path><path d="M 269.721 1.807 C 269.721 1.807 269.641 1.833 269.615 1.842 C 269.685 1.886 269.738 1.904 269.721 1.807 Z" fill="rgb(249,207,1)"></path><path d="M 259.829 2.018 L 259.926 2.115 L 259.953 2.018 Z" fill="rgb(249,207,1)"></path><path d="M 267.773 2.239 C 268.26 2.345 268.543 2.204 268.818 2.027 C 268.454 2.089 268.074 2.124 267.666 2.133 C 267.631 2.212 267.622 2.265 267.773 2.239 Z" fill="rgb(249,207,1)"></path><path d="M 263.77 1.418 C 264.017 1.533 264.31 1.629 264.611 1.726 C 264.363 1.55 263.858 1.277 263.77 1.418 Z" fill="rgb(249,207,1)"></path><path d="M 269.455 1.684 C 269.455 1.684 269.499 1.666 269.526 1.657 C 269.366 1.534 269.384 1.596 269.455 1.684 Z" fill="rgb(249,207,1)"></path><path d="M 269.455 1.683 C 269.207 1.762 269.012 1.903 268.817 2.026 C 269.11 1.982 269.384 1.921 269.614 1.832 C 269.552 1.788 269.49 1.736 269.455 1.674 Z" fill="rgb(249,207,1)"></path><path d="M 258.075 5.658 C 258.155 5.138 259.421 4.636 260.519 5.191 C 261.591 4.786 260.874 3.076 259.926 2.115 C 259.891 2.344 259.9 2.556 258.793 2.873 C 259.182 3.155 261.255 3.516 260.325 4.001 C 258.855 4.283 259.12 3.825 258.403 3.552 C 259.014 4.195 256.543 4.521 256.871 5.473 L 258.155 5.12 C 258.182 5.27 257.712 5.508 258.075 5.64 Z" fill="rgb(249,207,1)"></path><path d="M 262.043 2.15 L 262.494 2.079 C 261.972 1.991 261.6 1.788 260.909 1.383 C 260.148 1.647 259.997 1.841 259.944 2.017 L 262.193 2.07 L 262.034 2.15 Z" fill="rgb(249,207,1)"></path><path d="M 264.549 2.062 C 264.195 2.635 263.105 2.882 263.779 3.499 C 265.116 3.446 264.717 3.014 265.514 2.767 C 263.353 2.917 266.134 2.45 264.567 2.133 C 264.992 2.036 265.373 2.001 265.736 1.974 C 265.346 1.904 264.974 1.825 264.62 1.719 C 264.638 1.736 264.655 1.745 264.673 1.754 L 264.682 1.754 C 264.779 1.825 264.806 1.869 264.7 1.825 C 264.7 1.825 264.664 1.833 264.655 1.833 C 264.638 1.913 264.602 1.983 264.558 2.045 C 263.929 1.93 264.46 1.895 264.655 1.833 C 264.655 1.807 264.682 1.78 264.682 1.745 L 262.521 2.062 C 262.981 2.142 263.557 2.115 264.567 2.045 Z" fill="rgb(249,207,1)"></path><path d="M 275.415 4.874 C 275.344 4.822 275.353 4.786 275.344 4.742 C 275.202 4.813 275.149 4.857 275.415 4.874 Z" fill="rgb(249,207,1)"></path><path d="M 274.52 4.538 C 274.68 4.459 274.804 4.229 275.317 4.282 C 275.76 4.45 275.317 4.556 275.344 4.741 C 275.654 4.591 276.424 4.326 275.45 4.053 L 275.3 4.133 C 274.432 3.939 273.307 3.234 273.458 3.154 C 273.715 3.665 273.936 4.027 274.52 4.529 Z" fill="rgb(249,207,1)"></path><path d="M 269.473 3.445 L 267.675 3.736 L 268.596 4.23 L 268.552 3.93 C 269.579 4.045 269.358 3.674 269.482 3.445 Z" fill="rgb(249,207,1)"></path><path d="M 259.625 1.737 L 259.855 1.129 L 258.828 1.993 Z" fill="rgb(249,207,1)"></path><path d="M 257.287 1.825 L 257.367 1.305 L 256.747 1.622 Z" fill="rgb(249,207,1)"></path><path d="M 125.424 11.482 L 124.902 11.65 C 125.15 11.597 125.309 11.535 125.424 11.482 Z" fill="rgb(249,207,1)"></path><path d="M 129.25 11.36 L 129.33 11.096 C 129.162 11.246 129.091 11.351 129.25 11.36 Z" fill="rgb(249,207,1)"></path><path d="M 199.769 2.75 C 198.989 2.282 198.104 1.542 198.21 2.124 L 198.458 2.688 C 198.998 2.573 199.406 2.626 199.76 2.741 Z" fill="rgb(249,207,1)"></path><path d="M 160.502 7.227 C 160.573 7.28 160.653 7.341 160.733 7.394 C 160.91 7.191 161.078 6.998 161.237 6.83 C 161.016 6.953 160.768 7.086 160.502 7.227 Z" fill="rgb(249,207,1)"></path><path d="M 160.033 9.614 L 159.006 9.279 C 159.236 9.403 159.572 9.517 160.033 9.614 Z" fill="rgb(249,207,1)"></path><path d="M 104.569 12.973 L 103.976 13.581 C 104.941 13.537 104.498 13.264 104.569 12.973 Z" fill="rgb(249,207,1)"></path><path d="M 233.297 2.301 C 232.624 2.089 232.101 2.001 231.632 1.975 C 232.438 2.292 233.093 2.777 233.297 2.301 Z" fill="rgb(249,207,1)"></path><path d="M 126.691 5.34 C 126.372 5.454 126.239 5.578 126.248 5.71 C 126.576 5.595 126.762 5.481 126.691 5.34 Z" fill="rgb(249,207,1)"></path><path d="M 229.71 2.01 C 229.825 2.063 229.94 2.09 230.064 2.142 C 230.551 2.037 231.039 1.957 231.632 1.984 C 231.039 1.746 230.357 1.605 229.71 2.01 Z" fill="rgb(249,207,1)"></path><path d="M 28.843 16.585 C 28.79 16.559 28.719 16.559 28.666 16.523 C 28.657 16.603 28.728 16.603 28.843 16.585 Z" fill="rgb(249,207,1)"></path><path d="M 6.403 12.268 C 6.615 12.215 6.969 12.197 7.306 12.162 C 7.138 12.135 6.863 12.162 6.403 12.268 Z" fill="rgb(249,207,1)"></path><path d="M 247.856 1.657" fill="rgb(249,207,1)"></path><path d="M 250.3 3.904 C 250.194 3.966 250.114 4.054 250.105 4.186 C 250.141 4.045 250.211 3.957 250.3 3.904 Z" fill="rgb(249,207,1)"></path><path d="M 224.822 5.648 C 224.822 5.648 224.795 5.648 224.778 5.648 C 224.928 5.754 224.902 5.737 224.822 5.648 Z" fill="rgb(249,207,1)"></path><path d="M 248.609 1.912 C 248.423 1.841 248.21 1.788 247.971 1.744 C 248.077 1.788 248.272 1.841 248.609 1.912 Z" fill="rgb(249,207,1)"></path><path d="M 248.502 1.639 C 248.67 1.657 248.812 1.675 248.936 1.692 C 248.998 1.595 248.936 1.534 248.502 1.639 Z" fill="rgb(249,207,1)"></path><path d="M 247.165 1.701 C 247.448 1.692 247.714 1.719 247.971 1.754 C 247.874 1.719 247.829 1.684 247.856 1.666 C 247.714 1.666 247.502 1.684 247.165 1.701 Z" fill="rgb(249,207,1)"></path><path d="M 69.314 12.69 C 69.314 12.69 69.243 12.663 69.208 12.637 C 68.721 12.901 68.942 12.848 69.314 12.69 Z" fill="rgb(249,207,1)"></path><path d="M 186.999 9.007 C 186.999 9.007 187.034 8.989 187.052 8.981 C 187.025 8.981 186.999 8.972 186.981 8.963 Z" fill="rgb(249,207,1)"></path><path d="M 185.228 9.474 C 185.971 8.742 186.405 8.813 186.981 8.954 L 186.352 7.314 Z" fill="rgb(249,207,1)"></path><path d="M 116.276 12.02 L 117.552 12.487 C 116.082 13.395 114.975 13.148 116.179 13.827 C 116.276 12.029 121.023 13.448 121.129 11.65 L 121.971 11.994 C 121.732 11.994 121.696 12.091 121.466 12.082 C 123.104 12.875 122.599 10.734 124.681 10.91 C 125.407 11.016 125.92 11.262 125.433 11.492 L 127.019 10.98 C 127.488 10.998 127.382 11.315 126.921 11.298 L 129.356 11.06 L 129.339 11.113 C 129.675 10.813 130.455 10.346 130.827 10.152 C 131.455 10.381 130.525 10.355 130.694 10.575 L 132.031 10.081 C 132.598 10.522 131.5 11.016 130.561 10.989 C 131.898 12.725 131.668 10.487 134.44 11.439 L 133.173 11.712 C 134.032 12.699 135.024 12.293 136.485 12.875 C 136.131 12.558 133.528 11.377 134.98 10.883 C 135.396 11.007 135.945 11.051 136.724 10.663 C 136.76 11.298 137.521 11.113 138.496 11.042 L 138.46 11.888 C 139.496 11.606 139.399 11.183 140.001 10.778 C 141.17 10.822 141.436 11.465 141.728 12.003 C 143.605 12.073 140.4 10.998 142.605 10.76 C 144.172 11.024 145.253 10.645 147.095 10.073 C 148.193 10.328 146.926 10.593 147.325 10.822 L 148.264 10.117 C 148.503 10.117 148.432 10.337 148.396 10.443 C 149.202 10.152 148.432 9.597 149.707 9.324 C 150.017 8.381 152.381 10.593 153.922 9.491 C 154.321 9.72 153.754 10.011 153.878 10.337 C 156.021 9.579 155.72 9.773 157.474 8.786 L 159.006 9.297 C 157.872 8.698 159.271 7.905 160.502 7.244 C 160.095 6.953 159.75 6.689 159.519 6.574 L 161.503 6.054 C 161.751 6.186 161.556 6.486 161.237 6.847 C 161.37 6.777 161.494 6.697 161.6 6.636 C 162.327 6.926 161.972 7.429 161.476 7.914 C 161.228 7.755 160.98 7.587 160.741 7.411 C 160.263 7.94 159.82 8.522 159.944 9.015 C 160.068 8.909 160.316 8.821 160.591 8.768 C 160.467 8.909 160.387 9.042 160.449 9.121 C 160.52 9.209 160.724 9.015 161.042 8.786 L 161.53 9.711 L 161.627 9.332 L 164.248 9.844 C 166.081 8.839 167.667 7.385 170.616 6.909 C 169.898 7.623 170.492 8.046 170.474 8.865 C 169.641 8.019 168.189 9.306 166.657 9.174 C 167.463 9.235 167.295 9.632 167.1 9.782 L 169.81 8.909 C 169.765 9.579 170.403 9.394 171.129 9.65 C 170.554 8.337 173.139 8.715 174.246 8.275 C 174.326 8.715 174.078 9.183 172.714 9.112 C 174.238 10.064 174.61 7.508 176.106 8.31 C 175.778 8.328 175.593 8.266 175.469 8.495 C 176.23 8.081 178.134 8.345 177.7 8.742 L 177.373 8.76 C 179.578 8.857 184.076 8.592 184.377 7.455 C 184.404 7.596 184.121 8.821 183.997 9.05 L 187.831 5.164 C 187.512 6.142 188.894 8.398 187.087 8.998 C 187.619 9.121 188.265 9.262 189.363 8.901 C 189 8.768 188.433 7.526 188.92 7.429 C 190.293 8.478 189.868 7.984 191.542 8.865 C 191.002 8.671 191.559 7.147 192.41 7.173 C 192.286 7.402 192.516 8.663 192.206 8.83 L 194.278 7.297 C 193.756 7.579 194.216 8.557 194.694 8.971 C 194.473 8.689 196.519 8.953 197.077 8.795 L 196.173 8.469 C 198.556 8.636 198.476 6.327 200.84 6.354 C 200.557 6.671 200.176 8.257 201.381 8.416 C 201.912 7.64 203.736 4.697 205.817 4.071 L 206.225 4.494 L 207.819 3.965 C 206.845 5.129 204.09 7.605 202.576 8.574 C 203.471 8.901 202.833 9.086 204.17 9.015 C 204.648 9.412 203.453 9.65 203.063 9.685 L 206.172 9.879 C 206.012 8.989 208.527 8.936 208.394 8.204 L 205.038 9.2 C 204.879 8.319 206.933 6.627 209.147 6.75 C 209.714 7.094 208.757 8.337 208.811 8.636 C 209.094 8.328 210.892 8.01 211.095 8.231 L 210.174 8.724 C 211.405 9.033 212.149 7.508 213.637 8.337 C 214.151 8.381 215.178 9.456 215.258 8.927 C 214.407 7.931 214.186 4.794 214.726 4.027 C 214.903 4.089 217.418 4.952 218.003 5.437 C 218.853 6.221 216.781 7.358 217.507 8.028 C 217.534 7.781 217.994 7.473 218.18 7.376 C 218.72 7.57 217.976 8.134 219.128 8.002 C 219.305 7.094 221.492 8.037 219.659 7.226 C 220.792 6.944 220.872 7.394 222.201 7.323 C 221.767 6.75 223.361 5.323 224.494 5.041 C 224.432 5.27 224.689 5.56 224.813 5.702 C 227.142 5.737 228.4 6.142 230.569 6.116 C 230.773 6.327 231.827 6.583 231.384 6.979 C 231.694 6.812 231.977 6.503 232.641 6.477 C 233.943 7.235 231.154 6.618 232.154 7.543 C 232.234 7.015 233.872 6.794 234.82 6.459 C 234.519 5.657 232.615 6.336 231.667 6.671 C 231.65 5.552 233.288 4.362 235.555 3.816 C 237.353 3.516 236.343 4.529 236.653 4.362 C 240.045 4.512 239.514 2.379 242.339 3.146 C 243.463 3.842 242.409 4.556 242.657 5.067 C 241.196 5.358 240.399 4.644 239.398 4.688 L 240.629 5.005 C 240.169 5.252 239.186 5.437 238.646 5.243 C 239.593 5.869 244.367 5.278 246.988 5.851 C 247.448 5.613 248.245 5.358 247.865 5.076 L 247.041 5.182 C 246.271 4.618 248.591 4.38 247.537 4.115 C 248.644 3.701 249.884 3.058 251.442 3.366 L 251.743 4.177 C 251.708 3.939 250.716 3.701 250.282 3.957 C 250.929 3.595 252.691 5.032 253.391 3.957 L 252.292 3.401 C 253.399 2.987 254.772 2.115 256.162 2.353 C 255.525 1.559 255.844 2.45 254.852 1.515 C 255.711 2.67 251.309 1.498 252.691 2.714 C 251.673 1.639 250.938 2.264 249.609 1.357 C 249.653 1.621 250.078 1.868 248.918 1.745 C 248.865 1.824 248.741 1.921 248.662 1.982 C 248.626 1.982 248.617 1.974 248.582 1.965 C 248.608 1.974 248.626 1.982 248.644 2 C 248.591 2.044 248.591 2.053 248.67 2.009 C 248.945 2.123 249.175 2.264 249.264 2.414 C 248.697 3.031 246.846 3.031 246.226 3.357 C 245.535 3.234 246.51 3.049 246.129 2.767 L 245.199 3.252 C 245.102 2.661 243.357 2.291 244.978 1.921 L 243.516 1.921 C 242.649 1.595 241.462 1.471 240.736 1.736 C 240.045 1.612 239 2.414 239.593 1.947 L 237.308 2.344 L 237.282 2.194 C 235.015 2.15 232.641 3.243 230.038 2.194 C 229.276 2.353 228.497 2.546 227.213 2.397 L 226.956 1.886 C 225.982 2.079 224.007 1.418 223.6 1.965 C 222.519 0.599 218.844 1.745 217.126 1.533 L 217.073 2.203 C 215.886 2.185 214.753 2.397 213.292 2.688 L 213.389 3.278 C 212.131 3.789 210.121 2.917 208.12 3.014 C 208.253 2.784 208.757 2.837 209.121 2.97 C 206.703 1.665 204.09 4.053 201.894 3.119 C 201.354 3.348 200.964 3.278 200.584 3.146 C 200.637 3.146 200.681 3.128 200.716 3.111 C 200.663 3.111 200.575 3.111 200.495 3.111 C 200.256 3.014 200.008 2.899 199.733 2.811 C 199.964 2.952 200.185 3.066 200.371 3.111 C 199.955 3.128 199.326 3.216 198.706 3.384 L 198.432 2.749 C 198.378 2.749 198.343 2.767 198.29 2.767 C 197.679 2.546 197.803 3.075 198.139 3.551 C 197.829 3.666 197.546 3.798 197.325 3.957 C 196.811 2.943 195.704 4.336 195.004 3.26 C 194.597 3.807 191.896 3.736 191.595 4.864 C 191.568 4.714 191.382 4.653 191.719 4.635 C 191.028 4.521 190.329 4.406 189.717 4.741 L 189.408 3.939 L 187.929 5.067 C 186.999 4.6 186.609 4.327 187.504 3.675 C 185.325 4.688 185.732 4.08 183.882 5.085 L 183.961 4.556 C 183.297 4.591 182.243 5.323 181.827 4.9 C 180.304 3.948 174.424 4.961 170.562 4.142 C 171.351 5.657 168.756 3.498 168.641 4.706 C 168.41 4.353 167.861 4.159 168.481 3.824 C 166.533 4.247 165.523 3.34 164.195 4.388 C 163.956 4.027 164.594 3.842 164.39 3.63 C 164.239 3.71 163.779 3.965 163.566 3.754 C 163.363 3.542 163.841 3.437 164.151 3.269 C 162.149 3.393 161.981 4.521 161.875 5.578 C 160.848 5.111 160.343 5.199 159.634 5.913 C 159.271 5.578 158.669 5.234 159.909 5.076 C 159.209 5.049 155.623 4.706 155.578 5.552 C 155.348 5.34 154.595 5.516 154.418 5.622 C 152.851 5.622 152.709 5.552 151.168 5.675 L 151.602 5.798 C 151.027 6.838 150.327 6.072 149.087 6.239 L 149.123 6.133 C 146.253 5.499 147.909 6.53 145.067 5.79 L 145.244 6.415 C 145.031 7.79 142.729 5.702 141.117 6.283 L 141.719 6.627 C 140.842 7.129 139.16 4.864 138.257 4.723 C 138.053 4.609 138.558 4.521 138.823 4.424 C 136.45 3.701 138.549 5.261 136.813 5.516 C 136.477 5.085 137.185 4.362 136.007 4.318 C 135.405 3.974 132.651 5.887 131.021 5.093 C 131.384 5.428 131.748 5.754 130.95 6.045 C 129.711 6.221 127.541 4.873 126.461 6.01 C 126.301 5.922 126.239 5.834 126.221 5.746 C 125.283 6.063 123.157 6.336 122.608 6.953 C 121.643 4.803 116.746 8.257 116.684 6.239 L 113.77 6.468 L 113.841 6.257 C 111.973 6.195 111.326 6.715 110.697 7.235 C 110.263 7.12 110.564 6.918 110.6 6.803 C 107.855 6.521 107.589 6.618 105.348 7.728 L 105.083 7.085 C 104.481 7.491 101.089 6.239 98.45 7.12 C 98.476 7.041 98.521 6.918 98.733 6.812 C 95.758 7.711 91.436 5.331 90.453 7.773 L 88.496 8.46 C 91.073 8.522 88.168 9.517 89.24 9.852 C 88.239 10.046 86.592 9.262 87.832 9.077 L 88.035 9.183 C 88.434 7.914 84.821 8.901 84.847 8.055 C 79.799 8.363 74.831 7.914 70.093 8.125 L 70.687 9.059 L 69.031 9.094 C 68.588 8.892 68.411 8.372 69.589 8.345 C 68.942 7.834 67.64 8.909 67.614 9.121 C 65.285 8.857 68.455 7.949 67.747 7.958 L 66.79 8.081 L 67.012 8.178 C 66.25 8.619 66.206 9.033 64.789 9.068 C 63.886 8.927 64.293 8.495 63.939 8.478 C 63.939 8.407 63.815 8.381 63.398 8.478 L 61.317 8.504 L 62.194 9.218 C 61.291 9.641 60.237 9.28 61.247 10.099 C 59.759 8.839 53.462 10.046 52.568 9.694 C 51.31 10.328 50.035 10.39 48.45 10.416 C 48.848 10.549 49.141 11.395 47.768 11.368 C 48.158 9.57 45.226 10.751 44.049 9.544 C 45.085 10.328 40.187 9.976 41.808 11.086 C 40.666 11.007 41.702 10.425 40.807 10.064 C 38.142 10.901 34.821 9.985 31.491 10.425 C 31.456 10.663 32.031 10.98 31.341 11.368 L 29.499 10.319 C 28.843 10.478 28.976 11.694 27.719 10.972 C 27.905 11.157 28.17 11.439 27.736 11.536 C 21.112 10.804 14.426 13.325 7.634 11.659 C 8.564 12.047 7.97 12.135 7.279 12.197 C 7.731 12.276 7.306 12.769 7.421 13.078 L 4.578 12.39 C 4.136 13.298 1.603 12.655 1.364 13.51 L 2.232 13.298 C 1.134 14.364 4.021 15.378 3.941 16.647 C 5.172 15.44 7.51 18.066 9.555 16.321 C 10.051 16.55 9.175 16.753 9.449 17.035 C 9.954 16.453 10.609 16.295 11.84 16.462 L 11.707 16.603 C 15.126 16.242 16.631 16.665 20.501 16.77 L 20.173 16.162 C 21.006 16.198 21.192 16.383 21.59 16.506 C 22.476 15.501 19.261 16.603 20.058 15.501 C 21.236 16.7 25.894 15.149 26.736 16.55 C 28.011 16.48 26.319 15.854 27.586 15.775 L 27.949 16.145 L 28.241 15.625 C 29.082 15.651 29.534 16.118 29.587 16.444 C 29.383 16.418 29.02 16.577 28.799 16.612 C 29.915 17 31.836 16.259 32.217 16.391 L 30.977 16.224 C 34.431 15.634 38.7 15.88 42.012 14.893 L 41.737 14.611 C 44.27 13.915 43.81 14.814 46.608 14.4 L 46.511 14.479 C 47.06 14.153 47.803 13.959 48.574 13.95 C 47.883 14.338 49.955 14.541 49.043 14.981 C 51.789 14.232 50.389 14.444 52.161 13.236 L 52.612 13.704 C 53.214 13.228 53.25 12.99 54.649 12.778 C 53.515 13.263 55.588 13.474 54.33 14.1 C 57.341 14.99 58.652 12.778 60.095 14.268 C 61.371 12.84 57.501 13.651 58.244 13.325 C 57.58 12.919 59.307 12.249 60.237 12.338 C 61.185 12.32 61.937 13.986 64.311 13.827 C 64.072 13.827 64.063 13.933 63.832 13.941 C 64.736 14.241 65.542 13.377 66.666 13.88 C 67.233 13.025 68.083 13.853 68.198 12.796 L 66.038 13.157 C 67.26 12.813 68.349 11.536 70.412 12.011 C 70.262 12.232 69.677 12.54 69.27 12.716 C 69.881 12.99 70.403 12.452 71.032 12.734 C 70.917 13.792 68.402 13.104 67.118 13.977 C 67.782 14.382 69.58 13.087 68.978 14.25 C 69.854 12.761 71.324 14.303 72.874 13.122 L 72.803 13.756 C 73.051 13.642 73.565 13.316 74.034 13.307 L 73.228 14.162 C 74.495 13.395 75.77 14.629 76.992 14.197 C 74.38 14.347 76.363 13.474 75.239 13.069 C 78.418 12.064 77.178 14.611 80.765 14.135 C 80.278 14.25 78.914 13.853 79.658 13.518 C 80.348 13.615 81.269 13.809 81.703 14.118 C 84.086 13.871 81.305 13.492 82.306 13.06 C 83.156 13.783 83.466 12.69 84.502 12.399 L 84.537 13.034 C 87.283 13.307 85.193 11.668 87.672 12.047 L 86.68 12.981 L 87.947 12.69 L 87.716 13.43 C 89.08 12.822 89.523 12.946 90.896 13.078 C 90.559 12.646 91.02 11.915 92.224 11.835 C 93.065 12.17 91.79 12.461 93.499 12.285 C 93.136 12.699 92.738 13.228 91.958 12.672 C 91.896 12.884 91.595 13.095 91.524 13.298 C 92.428 13.686 93.756 13.289 94.376 13.254 C 94.137 13.245 93.854 13.219 93.703 13.14 L 96.138 12.144 C 96.537 12.364 96.236 12.575 95.944 12.769 C 96.439 12.681 96.776 12.373 97.511 12.285 C 97.343 12.813 97.414 13.342 96.386 13.633 L 98.724 12.954 C 98.892 13.175 99.964 13.518 99.663 13.721 C 100.983 13.968 102.825 12.575 104.578 12.893 C 104.667 12.787 104.844 12.681 105.207 12.593 C 106.845 12.637 108.315 13.21 110.219 12.408 L 111.353 13.289 C 112.858 13.007 109.821 12.188 112.327 11.721 C 114.098 11.342 113.026 12.487 113.664 12.716 C 114.532 12.214 116.037 11.201 117.711 11.888 C 117.18 12.082 116.746 11.967 116.241 12.056 Z M 134.936 10.866 C 134.581 11.016 133.873 11.448 133.59 11.086 C 133.97 10.337 134.307 10.681 134.936 10.866 Z M 163.292 8.363 C 163.026 8.583 162.61 8.495 162.132 8.266 C 162.468 8.204 162.858 8.213 163.292 8.363 Z M 242.418 2.238 C 242.418 2.238 242.392 2.256 242.383 2.273 C 241.568 2.035 241.86 2.132 242.418 2.238 Z M 244.101 2.494 C 244.269 2.405 244.26 2.317 244.181 2.229 C 244.065 2.388 243.685 2.405 243.26 2.37 C 243.384 2.538 243.596 2.652 244.101 2.502 Z M 63.779 8.689 L 64.116 8.839 C 63.39 9.059 63.584 8.883 63.779 8.689 Z" fill="rgb(35, 95, 247)"></path><path d="M 160.095 9.332 C 159.989 9.226 159.953 9.112 159.927 8.988 C 159.785 9.103 159.785 9.226 160.095 9.332 Z" fill="rgb(249,207,1)"></path><path d="M 104.675 12.857 L 104.622 12.857 C 104.622 12.857 104.578 12.928 104.569 12.972 Z" fill="rgb(249,207,1)"></path><path d="M 218.171 8.284 C 217.826 8.196 217.631 8.081 217.498 7.967 C 217.48 8.125 217.64 8.249 218.171 8.284 Z" fill="rgb(249,207,1)"></path><path d="M 252.992 1.33 L 251.921 1.506 C 252.443 1.471 252.629 1.612 252.895 1.709 C 252.868 1.559 252.665 1.348 253.001 1.33 Z" fill="rgb(249,207,1)"></path><path d="M 262.37 5.191 C 262.53 5.111 262.707 5.182 262.857 5.102 L 262.813 4.803 C 262.14 4.829 261.68 5.067 262.37 5.191 Z" fill="rgb(249,207,1)"></path><path d="M 254.01 3.437 C 254.099 3.974 254.772 3.78 255.525 3.675 C 255.481 3.675 255.436 3.675 255.392 3.675 C 255.605 2.925 254.808 3.181 254.01 3.428 Z" fill="rgb(249,207,1)"></path><path d="M 255.702 3.657 C 255.932 3.63 256.171 3.613 256.402 3.639 C 256.49 3.34 256.118 3.578 255.702 3.657 Z" fill="rgb(249,207,1)"></path><path d="M 246.226 2.116 C 246.589 2.248 246.439 1.428 246.651 1.648 C 247.041 0.961 244.278 2.494 246.226 2.116 Z" fill="rgb(249,207,1)"></path><path d="M 254.639 5.2 L 254.365 4.539 L 253.948 5.077 Z" fill="rgb(249,207,1)"></path><path d="M 248.688 4.768 L 249.893 4.944 C 249.875 4.83 250.025 4.768 250.211 4.715 C 249.467 4.697 248.653 4.574 248.688 4.768 Z" fill="rgb(249,207,1)"></path><path d="M 250.211 4.706 C 250.601 4.715 250.964 4.706 251.177 4.592 C 250.964 4.601 250.521 4.627 250.211 4.706 Z" fill="rgb(249,207,1)"></path><path d="M 252.992 5.411 L 252.638 5.278 L 251.788 5.234 Z" fill="rgb(249,207,1)"></path><path d="M 235.741 4.795 L 234.43 5.006 C 234.298 5.236 234.661 5.368 235.148 5.271 C 235.458 5.112 235.945 5.015 235.741 4.795 Z" fill="rgb(249,207,1)"></path><path d="M 239.735 6.556 C 239.381 6.424 239.354 6.274 239.151 6.062 L 239.124 6.882 Z" fill="rgb(249,207,1)"></path><path d="M 235.909 6.795 C 235.785 7.024 234.014 7.474 235.679 7.403 C 235.812 7.174 237.123 6.971 235.909 6.795 Z" fill="rgb(249,207,1)"></path><path d="M 216.099 6.073 L 216.435 6.055 L 216.365 4.707 Z" fill="rgb(249,207,1)"></path><path d="M 198.733 9.641 C 200.291 9.931 199.087 8.803 200.495 9.173 C 200.849 8.847 199.335 8.874 199.707 8.592 C 198.777 8.944 198.281 8.768 198.733 9.649 Z" fill="rgb(249,207,1)"></path><path d="M 199.707 8.585 C 199.857 8.532 200.017 8.461 200.185 8.373 C 199.919 8.461 199.786 8.532 199.707 8.585 Z" fill="rgb(249,207,1)"></path><path d="M 2.692 11.792 L 1.674 11.58 L 2.347 11.986 Z" fill="rgb(249,207,1)"></path><path d="M 0.841 12.919 L 0.549 12.082 L 0 12.902 C 0.221 12.849 0.655 12.743 0.841 12.928 Z" fill="rgb(249,207,1)"></path><path d="M 137.778 12.488 L 137.849 12.276 C 137.69 12.056 137.451 12.047 136.981 12.029 L 137.778 12.479 Z" fill="rgb(249,207,1)"></path><path d="M 124.202 12.374 L 124.433 12.383 L 123.963 11.625 Z" fill="rgb(249,207,1)"></path><path d="M 112.867 13.818 C 113.336 13.827 113.868 13.633 114.337 13.651 C 113.327 13.827 112.699 12.857 112.867 13.818 Z" fill="rgb(249,207,1)"></path></g></svg>