<svg width="20" height="20" viewBox="0 0 20 20" fill="none" xmlns="http://www.w3.org/2000/svg">
<path id="Vector - 0" fill-rule="evenodd" clip-rule="evenodd" d="M10 0.25C4.61522 0.25 0.25 4.61522 0.25 10C0.25 15.3848 4.61522 19.75 10 19.75C12.0166 19.75 14.1344 19.1425 15.6653 18.1253C16.0104 17.8959 16.1042 17.4302 15.8748 17.0852C15.6455 16.7401 15.1798 16.6463 14.8347 16.8756C13.5625 17.7231 11.7072 18.25 10 18.25C5.44365 18.25 1.75 14.5563 1.75 10C1.75 5.44365 5.44365 1.75 10 1.75C14.5563 1.75 18.25 5.44365 18.25 10C18.25 12.4797 17.23 13 16.375 13C15.52 13 14.5 12.4797 14.5 10V6.25C14.5 5.83579 14.1642 5.5 13.75 5.5C13.3358 5.5 13 5.83579 13 6.25V6.64937C11.6226 5.41446 9.62985 5.14829 7.97666 5.97842C6.32347 6.80855 5.34674 8.56584 5.51455 10.4081C5.68237 12.2504 6.96053 13.8023 8.7365 14.32C10.5125 14.8378 12.4244 14.216 13.5559 12.7525C14.1184 13.8775 15.0888 14.5 16.375 14.5C18.4881 14.5 19.75 12.8181 19.75 10C19.7443 4.61758 15.3824 0.255684 10 0.25ZM10 13C8.34315 13 7 11.6569 7 10C7 8.34315 8.34315 7 10 7C11.6569 7 13 8.34315 13 10C13 11.6569 11.6569 13 10 13Z" fill="#6B7D82"/>
</svg>
