<svg width="18" height="21" viewBox="0 0 18 21" fill="none" xmlns="http://www.w3.org/2000/svg">
<path id="Vector - 0" fill-rule="evenodd" clip-rule="evenodd" d="M16.5 7.5H13.5V5.25C13.5 2.76472 11.4853 0.75 9 0.75C6.51472 0.75 4.5 2.76472 4.5 5.25V7.5H1.5C0.671573 7.5 0 8.17157 0 9V19.5C0 20.3284 0.671573 21 1.5 21H16.5C17.3284 21 18 20.3284 18 19.5V9C18 8.17157 17.3284 7.5 16.5 7.5ZM6 5.25C6 3.59315 7.34315 2.25 9 2.25C10.6569 2.25 12 3.59315 12 5.25V7.5H6V5.25ZM16.5 19.5H1.5V9H16.5V19.5Z" fill="#6B7D82"/>
</svg>
