<svg width="40" height="41" viewBox="0 0 40 41" fill="none" xmlns="http://www.w3.org/2000/svg">
<g id="ep:close">
<path id="Vector" d="M29.855 8.8825L20 18.7375L10.145 8.8825C9.908 8.6656 9.59642 8.54851 9.27521 8.55562C8.954 8.56274 8.64792 8.69352 8.42073 8.9207C8.19354 9.14789 8.06277 9.45397 8.05565 9.77518C8.04854 10.0964 8.16562 10.408 8.38253 10.645L18.2325 20.5L8.38003 30.3525C8.25966 30.4672 8.16343 30.6048 8.09701 30.7573C8.0306 30.9097 7.99532 31.0739 7.99326 31.2401C7.9912 31.4064 8.0224 31.5714 8.08502 31.7254C8.14765 31.8795 8.24043 32.0194 8.35792 32.1371C8.47541 32.2547 8.61524 32.3477 8.76918 32.4106C8.92313 32.4734 9.08808 32.5048 9.25434 32.503C9.42061 32.5012 9.58483 32.4661 9.73736 32.3999C9.88989 32.3337 10.0276 32.2377 10.1425 32.1175L20 22.265L29.855 32.12C30.0921 32.3369 30.4036 32.454 30.7248 32.4469C31.0461 32.4398 31.3521 32.309 31.5793 32.0818C31.8065 31.8546 31.9373 31.5485 31.9444 31.2273C31.9515 30.9061 31.8344 30.5945 31.6175 30.3575L21.7625 20.5025L31.6175 10.645C31.7379 10.5303 31.8341 10.3927 31.9005 10.2402C31.967 10.0878 32.0022 9.92363 32.0043 9.75736C32.0064 9.5911 31.9752 9.4261 31.9125 9.27207C31.8499 9.11804 31.7571 8.97808 31.6396 8.86042C31.5221 8.74277 31.3823 8.64978 31.2284 8.58694C31.0744 8.5241 30.9095 8.49267 30.7432 8.49449C30.5769 8.49631 30.4127 8.53136 30.2602 8.59756C30.1077 8.66376 29.9699 8.75979 29.855 8.88V8.8825Z" fill="#959494"/>
</g>
</svg>
