<svg width="119" height="116" viewBox="0 0 119 116" fill="none" xmlns="http://www.w3.org/2000/svg">
<g id="Group 4">
<path id="Vector 14" d="M56.8318 5.1286C29.1463 10.3316 18.1508 18.7433 7.62049 44.8041L4.72571 39.3551C16.312 12.9355 28.1806 3.85796 61.4294 0.531006C61.4766 7.94242 61.2495 13.9167 61.9402 16.7077C88.3707 22.8115 95.6158 31.6386 100.083 55.8724C100.291 57.0644 100.228 56.5335 100.291 57.0644H116.09C113.54 82.314 110.705 96.0431 77.7764 112.065L75.3924 108.149L77.7764 107.468C102.248 94.9154 107.99 84.1115 111.492 61.662L99.5724 61.1511C80.7288 65.6018 73.8318 71.5684 71.6463 91.8018C82.9455 88.3762 89.077 81.9507 93.7828 68.4732L99.5724 67.6218C92.5185 86.5392 85.3176 92.9389 67.9001 98.4428C66.2725 74.6712 71.2741 64.9547 95.6559 57.0644C91.3123 32.8454 83.0162 24.6824 56.8318 20.6242C56.5236 15.2881 56.6464 11.6102 56.8318 5.1286Z" fill="#E3DDD1"/>
<path id="Vector 15" d="M109.619 41.9093C102.42 24.6163 95.5621 17.1516 77.6061 8.36386L79.99 4.61768C95.2779 11.4577 103.09 17.9643 114.046 40.0362L109.619 41.9093Z" fill="#E3DDD1"/>
<path id="Union" fill-rule="evenodd" clip-rule="evenodd" d="M82.5323 7.95466C83.6969 5.17977 81.4495 1.59072 78.6746 0.426035C75.8997 -0.738645 72.7061 0.566688 71.5414 3.34158C70.3767 6.11647 71.6821 9.31012 74.457 10.4748C77.2318 11.6395 81.3676 10.7296 82.5323 7.95466ZM40.2268 26.995C42.1848 28.549 45.5437 28.4894 47.695 27.1273C50.2376 25.5175 50.9938 22.1513 49.3839 19.6087C47.7741 17.066 44.4079 16.3099 41.8652 17.9197C40.3757 18.8628 39.203 20.5963 38.8108 22.3816C24.9046 32.4485 20.7347 40.1226 19.3698 56.8942C13.4556 56.2278 9.99091 56.1498 3.36335 56.8942C7.05207 94.486 25.7089 112.957 62.9618 114.96V39.1179C64.7766 37.9361 66.027 35.5499 66.027 33.3954C66.027 30.386 63.5874 27.9464 60.578 27.9464C57.5686 27.9464 55.129 30.386 55.129 33.3954C55.129 35.6019 56.4405 38.0513 58.3265 39.2012C58.3098 40.39 58.292 41.5045 58.2749 42.5822L58.2747 42.5904C58.2153 46.3207 58.1629 49.6128 58.1862 54.0297C58.025 54.6429 57.8703 54.7845 57.4633 54.5788C54.763 52.3005 53.2439 50.8372 51.8441 49.1427C52.419 46.9543 51.5618 44.1998 49.9261 42.6243C47.7586 40.5367 44.3091 40.6014 42.2215 42.7689C40.1338 44.9364 40.1985 48.3859 42.366 50.4736C43.9283 51.9784 46.5391 52.7332 48.657 52.2256C51.1293 54.6069 53.4972 56.9431 58.3642 61.8323V109.852C22.7961 102.294 15.7482 88.9599 8.64208 61.3215C18.6069 60.3071 22.5768 61.2523 25.6702 62.0026C37.1775 66.0586 46.1146 75.0743 47.1257 91.8018C33.255 84.9211 29.1159 79.6305 25.6702 68.6436L20.3915 67.2813C27.1962 86.504 34.8192 92.3172 52.0638 97.932C52.9668 73.2482 46.7466 64.3699 24.308 56.8942C24.8975 43.2672 28.216 36.6491 40.2268 26.995ZM58.1939 55.1911L58.1914 55.1893L58.1939 55.1913V55.1911ZM62.962 70.6869L72.8056 60.5308C74.8119 61.0759 77.2875 60.5571 78.8937 59.2812C81.2501 57.4095 81.6431 53.9818 79.7713 51.6253C77.8996 49.2689 74.4719 48.8759 72.1154 50.7477C70.3071 52.184 69.184 54.9108 69.6051 57.1665C68.3756 58.8961 66.4632 60.7736 65.0054 62.1014C64.3003 62.6605 63.884 62.7695 62.962 62.5134V63.8756V70.6869ZM71.4554 105.313C74.3474 104.481 78.3484 105.868 79.1808 108.76C80.0131 111.652 77.3615 114.954 74.4695 115.786C71.5775 116.618 68.5583 114.949 67.726 112.057C66.8937 109.165 68.5634 106.146 71.4554 105.313ZM7.38844 38.3625C4.44283 37.7461 1.34607 40.6344 0.729755 43.5801C0.113437 46.5257 2.00171 49.4132 4.94732 50.0295C7.89294 50.6458 10.7805 48.7576 11.3968 45.8119C12.0131 42.8663 10.3341 38.9788 7.38844 38.3625ZM108.047 47.4161C106.719 44.7154 107.381 40.5329 110.082 39.2051C112.782 37.8772 116.499 39.907 117.827 42.6076C119.154 45.3083 118.041 48.574 115.341 49.9018C112.64 51.2296 109.374 50.1167 108.047 47.4161Z" fill="#E3DDD1"/>
</g>
</svg>
